<svg xmlns="http://www.w3.org/2000/svg" xmlns:xlink="http://www.w3.org/1999/xlink" width="97" height="70" viewBox="0 0 97 70"><defs><style>.a,.f{fill:#e9e9e9;}.b{opacity:0.5;}.c,.d{fill:none;}.d{stroke:#221f20;stroke-linecap:round;stroke-linejoin:round;stroke-width:1.5px;}.e{opacity:0;}.f{font-size:14px;font-family:Poppins-Light, Poppins;font-weight:300;}.g{filter:url(#a);}</style><filter id="a" x="0" y="0" width="97" height="43" filterUnits="userSpaceOnUse"><feOffset dy="3" input="SourceAlpha"/><feGaussianBlur stdDeviation="3" result="b"/><feFlood flood-opacity="0.161"/><feComposite operator="in" in2="b"/><feComposite in="SourceGraphic"/></filter></defs><g transform="translate(9 6)"><rect class="a" width="48" height="48" rx="8" transform="translate(0 16)"/><g class="b" transform="translate(-2.917 11.182)"><g transform="translate(0 2)"><path class="c" d="M0,0H30V30H0Z" transform="translate(11.911 11.818)"/><path class="d" d="M3,25.49H8.007L24.281,9.216a3.541,3.541,0,1,0-5.007-5.007L3,20.482V25.49" transform="translate(12.646 12.594)"/><line class="d" x2="4.979" y2="4.979" transform="translate(30.052 18.698)"/><path class="d" d="M14.2,9.224,7.979,3,3,7.979,9.224,14.2" transform="translate(12.646 12.552)"/><line class="d" x1="1.867" y2="1.867" transform="translate(18.788 21.82)"/><path class="d" d="M16.979,12,23.2,18.224,18.224,23.2,12,16.979" transform="translate(14.975 14.881)"/><line class="d" x1="1.867" y2="1.867" transform="translate(30.042 33.074)"/></g></g><g class="e" transform="translate(0 -3)"><g class="g" transform="matrix(1, 0, 0, 1, -9, -3)"><rect class="a" width="79" height="25" transform="translate(9 6)"/></g><text class="f" transform="translate(12 21)"><tspan x="0" y="0">Practice</tspan></text></g></g></svg>