<svg xmlns="http://www.w3.org/2000/svg" xmlns:xlink="http://www.w3.org/1999/xlink" width="120" height="71" viewBox="0 0 120 71"><defs><style>.a{fill:transparent;}.b,.h{fill:none;}.b,.c{stroke:#221f20;stroke-width:1.5px;opacity:0.5;}.c{fill:#d71922;}.d{opacity:0;}.e{fill:#f2f2f2;}.f{fill:#231f20;font-size:14px;font-family:Poppins-Light, Poppins;font-weight:300;}.g{stroke:none;}.i{filter:url(#a);}</style><filter id="a" x="0" y="0" width="120" height="43" filterUnits="userSpaceOnUse"><feOffset dy="3" input="SourceAlpha"/><feGaussianBlur stdDeviation="3" result="b"/><feFlood flood-opacity="0.161"/><feComposite operator="in" in2="b"/><feComposite in="SourceGraphic"/></filter></defs><g transform="translate(9 6)"><rect class="a" width="48" height="48" rx="8" transform="translate(0 17)"/><g transform="translate(1 18)"><g transform="translate(11 11)"><g class="b" transform="translate(0)"><rect class="g" width="10" height="10" rx="3"/><rect class="h" x="0.75" y="0.75" width="8.5" height="8.5" rx="2.25"/></g><g class="b" transform="translate(0 14)"><rect class="g" width="10" height="10" rx="3"/><rect class="h" x="0.75" y="0.75" width="8.5" height="8.5" rx="2.25"/></g><g class="b" transform="translate(14)"><rect class="g" width="10" height="10" rx="3"/><rect class="h" x="0.75" y="0.75" width="8.5" height="8.5" rx="2.25"/></g><g class="b" transform="translate(14 14)"><rect class="g" width="10" height="10" rx="3"/><rect class="h" x="0.75" y="0.75" width="8.5" height="8.5" rx="2.25"/></g><g class="c" transform="translate(10 10)"><circle class="g" cx="2" cy="2" r="2"/><circle class="h" cx="2" cy="2" r="1.25"/></g></g></g><g class="d" transform="translate(0 -3)"><g class="i" transform="matrix(1, 0, 0, 1, -9, -3)"><rect class="e" width="102" height="25" transform="translate(9 6)"/></g><text class="f" transform="translate(12 21)"><tspan x="0" y="0">Dashboard</tspan></text></g></g></svg>