<svg xmlns="http://www.w3.org/2000/svg" xmlns:xlink="http://www.w3.org/1999/xlink" width="99" height="70" viewBox="0 0 99 70"><defs><style>.a,.e{fill:#e9e9e9;}.b,.c{fill:none;}.c{stroke:#7b797a;stroke-linecap:round;stroke-linejoin:round;stroke-width:1.5px;}.d{opacity:0;}.e{font-size:14px;font-family:Poppins-Light, Poppins;font-weight:300;}.f{filter:url(#a);}</style><filter id="a" x="0" y="0" width="99" height="43" filterUnits="userSpaceOnUse"><feOffset dy="3" input="SourceAlpha"/><feGaussianBlur stdDeviation="3" result="b"/><feFlood flood-opacity="0.161"/><feComposite operator="in" in2="b"/><feComposite in="SourceGraphic"/></filter></defs><g transform="translate(9 6)"><rect class="a" width="48" height="48" rx="8" transform="translate(0 16)"/><g transform="translate(12 28)"><g transform="translate(-3.271 -3.271)"><path class="b" d="M0,0H30V30H0Z"/><path class="c" d="M6.233,4H19.794A2.508,2.508,0,0,1,22.26,6.548V21.836a2.508,2.508,0,0,1-2.466,2.548H6.233A1.254,1.254,0,0,1,5,23.11V5.274A1.254,1.254,0,0,1,6.233,4m3.7,0V26.932" transform="translate(1.37 0.52)"/><line class="c" x2="2.548" transform="translate(16.222 10.042)"/><line class="c" x2="2.548" transform="translate(16.222 15.042)"/></g></g><g class="d" transform="translate(0 -3)"><g class="f" transform="matrix(1, 0, 0, 1, -9, -3)"><rect class="a" width="81" height="25" transform="translate(9 6)"/></g><text class="e" transform="translate(12 21)"><tspan x="0" y="0">Prepare</tspan></text></g></g></svg>