<svg width="325" height="304" viewBox="0 0 325 304" fill="none" xmlns="http://www.w3.org/2000/svg">
    <path d="M172.491 235.83c47.943 0 86.809-38.866 86.809-86.809s-38.866-86.81-86.809-86.81c-47.944 0-86.81 38.867-86.81 86.81 0 47.943 38.866 86.809 86.81 86.809z" fill="#CBECD0"/>
    <path d="M281.952 152.512v-9.096a6.54 6.54 0 0 0-6.54-6.54h-23.083a6.546 6.546 0 0 1-4.624-1.915 6.543 6.543 0 0 1-1.915-4.624v-9.096c0-.859.169-1.709.497-2.503a6.55 6.55 0 0 1 3.54-3.539 6.547 6.547 0 0 1 2.502-.498h.729a6.539 6.539 0 0 0 6.54-6.539v-9.096a6.538 6.538 0 0 0-6.54-6.54H87.105a6.54 6.54 0 0 0-6.54 6.54v9.096a6.54 6.54 0 0 0 6.54 6.539 6.553 6.553 0 0 1 4.624 1.916 6.537 6.537 0 0 1 1.915 4.624v9.096a6.533 6.533 0 0 1-1.915 4.624 6.551 6.551 0 0 1-2.122 1.418 6.552 6.552 0 0 1-2.502.497h-25.29a6.538 6.538 0 0 0-6.54 6.54v9.096a6.535 6.535 0 0 0 1.916 4.624 6.55 6.55 0 0 0 2.121 1.418 6.55 6.55 0 0 0 2.503.497h9.923a6.538 6.538 0 0 1 6.54 6.54v9.096a6.533 6.533 0 0 1-1.916 4.624 6.551 6.551 0 0 1-4.624 1.916h-.024a6.541 6.541 0 0 0-6.54 6.539v9.096a6.535 6.535 0 0 0 1.916 4.624 6.55 6.55 0 0 0 4.624 1.916h1.436a6.541 6.541 0 0 1 6.54 6.539v9.096a6.54 6.54 0 0 1-6.54 6.54H49.588c-.86 0-1.71.169-2.503.497a6.551 6.551 0 0 0-3.54 3.54 6.537 6.537 0 0 0-.497 2.502v9.096a6.542 6.542 0 0 0 6.54 6.54h206.981a6.536 6.536 0 0 0 4.624-1.916 6.537 6.537 0 0 0 1.916-4.624v-9.096a6.537 6.537 0 0 0-6.54-6.539h-5.67a6.536 6.536 0 0 1-4.624-1.916 6.537 6.537 0 0 1-1.916-4.624v-9.096a6.537 6.537 0 0 1 6.54-6.539h13.37a6.537 6.537 0 0 0 6.539-6.54v-9.096a6.54 6.54 0 0 0-6.539-6.539h-4.056a6.55 6.55 0 0 1-6.042-4.038 6.528 6.528 0 0 1-.498-2.502v-9.096c0-1.734.689-3.398 1.916-4.624a6.536 6.536 0 0 1 4.624-1.916h15.199a6.54 6.54 0 0 0 6.54-6.539z" fill="#CBECD0"/>
    <path d="M81.893 156.528h15.16M81.893 160.897h15.16M81.893 165.268h15.16M220.705 190.506h15.16M220.705 194.875h15.16M220.705 199.245h15.16M153.72 79.673h15.16M153.72 84.041h15.16M153.72 88.412h15.16" stroke="#AFDCB4" stroke-width="1.773" stroke-miterlimit="10" stroke-linecap="round"/>
    <path d="M196.221 242.023a6.48 6.48 0 1 0 0-12.96 6.48 6.48 0 0 0 0 12.96zM187.582 223.422a3.36 3.36 0 1 0 0-6.72 3.36 3.36 0 0 0 0 6.72zM209.561 228.222a4.8 4.8 0 1 0 0-9.6 4.8 4.8 0 0 0 0 9.6zM104.205 109.255a7.71 7.71 0 1 0 0-15.42 7.71 7.71 0 0 0 0 15.42zM89.473 100.07a4.016 4.016 0 1 0 0-8.032 4.016 4.016 0 0 0 0 8.032zM93.161 84.719a2.316 2.316 0 1 0 0-4.633 2.316 2.316 0 0 0 0 4.633zM105.985 89.595a5.554 5.554 0 1 0 0-11.108 5.554 5.554 0 0 0 0 11.108z" fill="#AFDCB4"/>
    <path d="M242.001 129.39a7.71 7.71 0 1 0 0-15.42 7.71 7.71 0 0 0 0 15.42zM226.302 126.564a4.016 4.016 0 1 0 0-8.032 4.016 4.016 0 0 0 0 8.032zM226.632 99.176a3.476 3.476 0 1 0 0-6.952 3.476 3.476 0 0 0 0 6.952zM224.214 110.879a2.316 2.316 0 1 0 0-4.632 2.316 2.316 0 0 0 0 4.632zM236.621 110.482a5.553 5.553 0 1 0-5.554-5.553 5.554 5.554 0 0 0 5.554 5.553z" fill="#CCE7CF"/>
    <path d="M242.001 129.39a7.71 7.71 0 1 0 0-15.42 7.71 7.71 0 0 0 0 15.42zM226.302 126.564a4.016 4.016 0 1 0 0-8.032 4.016 4.016 0 0 0 0 8.032zM226.632 99.176a3.476 3.476 0 1 0 0-6.952 3.476 3.476 0 0 0 0 6.952zM224.214 110.879a2.316 2.316 0 1 0 0-4.632 2.316 2.316 0 0 0 0 4.632zM236.621 110.482a5.553 5.553 0 1 0-5.554-5.553 5.554 5.554 0 0 0 5.554 5.553z" fill="#AFDCB4"/>
    <path d="M187.076 139.94c10.18 0 18.433-8.252 18.433-18.432 0-10.18-8.253-18.433-18.433-18.433s-18.432 8.253-18.432 18.433 8.252 18.432 18.432 18.432z" fill="#00AB16"/>
    <path d="M198.004 115.272a2.89 2.89 0 1 0 0-5.783 2.892 2.892 0 0 0 0 5.783z" fill="#E0F6E3"/>
    <path d="M246.545 166.434c5.216-10.614-19.965-33.669-56.242-51.495-36.277-17.825-69.914-23.671-75.13-13.057-5.215 10.615 19.965 33.67 56.243 51.496 36.277 17.825 69.914 23.671 75.129 13.056z" fill="#93C099"/>
    <path d="M186.478 122.725c31.719 15.586 54.954 35.169 56.806 46.94a7.493 7.493 0 0 0 3.261-3.23c5.216-10.614-19.964-33.67-56.242-51.495-36.277-17.826-69.914-23.672-75.129-13.057a7.5 7.5 0 0 0-.565 4.555c10.45-5.727 40.149.7 71.869 16.287z" fill="#56B663"/>
    <path d="M203.284 154.691c2.08-4.233-7.96-13.425-22.425-20.533-14.465-7.108-27.877-9.438-29.957-5.206-2.079 4.232 7.961 13.425 22.426 20.533 14.465 7.107 27.877 9.438 29.956 5.206z" fill="#93C099"/>
    <path d="M179.335 137.261c12.647 6.215 21.912 14.024 22.65 18.717a2.992 2.992 0 0 0 1.301-1.288c2.079-4.232-7.961-13.425-22.426-20.533-14.465-7.107-27.877-9.438-29.956-5.206a2.987 2.987 0 0 0-.225 1.816c4.166-2.283 16.008.28 28.656 6.494z" fill="#00AB16"/>
    <path d="M172.407 243.693H57.334l93.343-112.924 51.845 25.475-30.115 87.449z" fill="url(#9k4tg0c3ia)"/>
    <g clip-path="url(#irdd3hxxib)">
        <path d="M84.595 227.112v-6.068H69.137v-4.456l11.109-23.609h5.365l-11.109 23.609h10.093v-9.363h4.774v9.363h3.428v4.456h-3.428v6.068h-4.774zm25.626.711c-2.285 0-4.31-.506-6.075-1.517a11 11 0 0 1-4.16-4.172c-1.008-1.77-1.513-3.8-1.513-6.092v-11.994c0-2.291.505-4.322 1.513-6.092a11.004 11.004 0 0 1 4.16-4.171c1.765-1.012 3.79-1.517 6.075-1.517 2.269 0 4.286.505 6.051 1.517a10.954 10.954 0 0 1 4.183 4.171c1.009 1.77 1.513 3.801 1.513 6.092v11.994c0 2.292-.504 4.322-1.513 6.092a10.95 10.95 0 0 1-4.183 4.172c-1.765 1.011-3.782 1.517-6.051 1.517zm0-4.527c1.292 0 2.458-.308 3.498-.925a7.068 7.068 0 0 0 2.505-2.512c.631-1.059.946-2.236.946-3.532v-12.611c0-1.28-.315-2.449-.946-3.508a6.828 6.828 0 0 0-2.505-2.512c-1.04-.632-2.206-.948-3.498-.948-1.292 0-2.466.316-3.522.948a7.076 7.076 0 0 0-2.505 2.512c-.615 1.059-.922 2.228-.922 3.508v12.611c0 1.296.307 2.473.922 3.532a7.335 7.335 0 0 0 2.505 2.512c1.056.617 2.23.925 3.522.925zm32.864 3.816v-6.068h-15.458v-4.456l11.109-23.609h5.366l-11.109 23.609h10.092v-9.363h4.775v9.363h3.427v4.456h-3.427v6.068h-4.775z" fill="#93C099"/>
    </g>
    <path d="M312.238 290.623c3.863 0 6.995-3.123 6.995-6.975 0-3.852-3.132-6.975-6.995-6.975s-6.995 3.123-6.995 6.975c0 3.852 3.132 6.975 6.995 6.975zM297.997 288.067a3.64 3.64 0 0 0 3.644-3.633 3.638 3.638 0 0 0-3.644-3.633 3.638 3.638 0 0 0-3.643 3.633 3.638 3.638 0 0 0 3.643 3.633zM298.295 263.289a3.15 3.15 0 0 0 3.154-3.144 3.15 3.15 0 0 0-3.154-3.145 3.15 3.15 0 0 0-3.153 3.145 3.149 3.149 0 0 0 3.153 3.144zM296.102 273.878c1.16 0 2.101-.938 2.101-2.096a2.098 2.098 0 0 0-2.101-2.095 2.098 2.098 0 0 0-2.102 2.095c0 1.158.941 2.096 2.102 2.096zM307.357 273.517a5.031 5.031 0 0 0 5.038-5.024 5.031 5.031 0 0 0-5.038-5.024c-2.783 0-5.039 2.249-5.039 5.024s2.256 5.024 5.039 5.024zM292.011 23.732c3.249 0 5.883-2.627 5.883-5.866 0-3.24-2.634-5.866-5.883-5.866-3.248 0-5.882 2.626-5.882 5.866 0 3.24 2.634 5.866 5.882 5.866zM287.92 43.481c2.165 0 3.92-1.75 3.92-3.909a3.914 3.914 0 0 0-3.92-3.909 3.914 3.914 0 0 0-3.92 3.91 3.915 3.915 0 0 0 3.92 3.908zM28.766 207.444A4.228 4.228 0 0 0 33 203.222 4.228 4.228 0 0 0 28.766 199a4.228 4.228 0 0 0-4.234 4.222 4.228 4.228 0 0 0 4.234 4.222zM25.822 221.658a2.817 2.817 0 0 0 2.821-2.813 2.818 2.818 0 0 0-2.821-2.814A2.818 2.818 0 0 0 23 218.845a2.817 2.817 0 0 0 2.822 2.813zM29.901 36.315c3.369 0 6.099-2.723 6.099-6.081 0-3.359-2.73-6.082-6.099-6.082-3.368 0-6.098 2.723-6.098 6.082 0 3.358 2.73 6.08 6.098 6.08zM17.484 34.086a3.172 3.172 0 0 0 3.177-3.167 3.172 3.172 0 0 0-3.177-3.168 3.172 3.172 0 0 0-3.176 3.168 3.172 3.172 0 0 0 3.176 3.167zM17.745 12.483a2.746 2.746 0 0 0 2.75-2.741A2.746 2.746 0 0 0 17.744 7a2.746 2.746 0 0 0-2.75 2.742 2.746 2.746 0 0 0 2.75 2.741zM15.832 21.715a1.83 1.83 0 0 0 1.833-1.827 1.83 1.83 0 0 0-1.833-1.828A1.83 1.83 0 0 0 14 19.889c0 1.009.82 1.827 1.832 1.827zM25.646 21.401a4.387 4.387 0 0 0 4.393-4.38c0-2.42-1.967-4.38-4.393-4.38a4.387 4.387 0 0 0-4.393 4.38c0 2.42 1.967 4.38 4.393 4.38z" fill="#AFDCB4"/>
    <defs>
        <linearGradient id="9k4tg0c3ia" x1="192.634" y1="150.41" x2="98.965" y2="261.34" gradientUnits="userSpaceOnUse">
            <stop stop-color="#56B663"/>
            <stop offset="1" stop-color="#fff" stop-opacity="0"/>
        </linearGradient>
        <clipPath id="irdd3hxxib">
            <path fill="#fff" transform="translate(69.137 192.147)" d="M0 0h82.727v36.148H0z"/>
        </clipPath>
    </defs>
</svg>
