<svg width="1210" height="434" viewBox="0 0 1210 434" fill="none" xmlns="http://www.w3.org/2000/svg">
    <path d="M621.908 352.337c81.134 0 146.907-65.89 146.907-147.169C768.815 123.89 703.042 58 621.908 58 540.773 58 475 123.89 475 205.168c0 81.279 65.773 147.169 146.908 147.169z" fill="#CBECD0"/>
    <path d="M807.149 211.088v-15.42c0-2.941-1.166-5.761-3.241-7.84a11.06 11.06 0 0 0-7.826-3.247h-39.063a11.056 11.056 0 0 1-7.826-3.247 11.087 11.087 0 0 1-3.242-7.84v-15.42a11.108 11.108 0 0 1 3.242-7.84 11.056 11.056 0 0 1 7.826-3.247h1.233a11.06 11.06 0 0 0 7.826-3.247 11.098 11.098 0 0 0 3.241-7.84v-15.42c0-2.94-1.166-5.76-3.241-7.839a11.06 11.06 0 0 0-7.826-3.247H477.408a11.056 11.056 0 0 0-7.826 3.247 11.094 11.094 0 0 0-3.242 7.839v15.42c0 2.941 1.166 5.761 3.242 7.84a11.056 11.056 0 0 0 7.826 3.247 11.055 11.055 0 0 1 7.825 3.247 11.087 11.087 0 0 1 3.242 7.84v15.42a11.108 11.108 0 0 1-3.242 7.84 11.058 11.058 0 0 1-7.825 3.247H434.61a11.056 11.056 0 0 0-7.826 3.247 11.095 11.095 0 0 0-3.242 7.84v15.42a11.107 11.107 0 0 0 3.242 7.839 11.064 11.064 0 0 0 7.826 3.247h16.793c2.935 0 5.75 1.168 7.826 3.248a11.097 11.097 0 0 1 3.241 7.839v15.42a11.107 11.107 0 0 1-3.241 7.84 11.073 11.073 0 0 1-7.826 3.247h-.041c-2.935 0-5.75 1.168-7.825 3.247a11.098 11.098 0 0 0-3.242 7.84v15.42c0 1.456.286 2.897.843 4.242a11.066 11.066 0 0 0 5.989 6.001c1.343.557 2.782.844 4.235.844h2.43a11.06 11.06 0 0 1 7.826 3.247 11.097 11.097 0 0 1 3.241 7.839v15.42c0 2.941-1.166 5.761-3.241 7.84a11.06 11.06 0 0 1-7.826 3.247h-39.875a11.055 11.055 0 0 0-7.825 3.248 11.093 11.093 0 0 0-3.242 7.839v15.42a11.09 11.09 0 0 0 6.832 10.243c1.343.557 2.782.844 4.235.844h350.277c2.935 0 5.75-1.168 7.825-3.247a11.098 11.098 0 0 0 3.242-7.84v-15.42c0-2.94-1.166-5.76-3.242-7.839a11.052 11.052 0 0 0-7.825-3.248h-9.596a11.06 11.06 0 0 1-7.826-3.247 11.098 11.098 0 0 1-3.241-7.84v-15.42c0-2.94 1.166-5.76 3.241-7.839a11.06 11.06 0 0 1 7.826-3.247h22.626c2.935 0 5.75-1.168 7.826-3.248a11.097 11.097 0 0 0 3.241-7.839v-15.42a11.1 11.1 0 0 0-3.241-7.84 11.06 11.06 0 0 0-7.826-3.247h-6.864a11.055 11.055 0 0 1-7.825-3.247 11.106 11.106 0 0 1-3.242-7.84v-15.42c0-2.94 1.166-5.76 3.242-7.839a11.052 11.052 0 0 1 7.825-3.248h25.722a11.06 11.06 0 0 0 7.826-3.247 11.097 11.097 0 0 0 3.241-7.839z" fill="#CBECD0"/>
    <path d="M468.586 217.896h25.657M468.586 225.304h25.657M468.586 232.711h25.657M703.5 275.499h25.656M703.5 282.906h25.656M703.5 290.314h25.656M590.142 87.6h25.655M590.142 95.008h25.655M590.142 102.416h25.655" stroke="#AFDCB4" stroke-width="3" stroke-miterlimit="10" stroke-linecap="round"/>
    <path d="M662.067 362.835c6.057 0 10.966-4.919 10.966-10.986 0-6.067-4.909-10.986-10.966-10.986-6.056 0-10.966 4.919-10.966 10.986 0 6.067 4.91 10.986 10.966 10.986zM647.445 331.302a5.692 5.692 0 0 0 5.687-5.697 5.691 5.691 0 0 0-5.687-5.696 5.691 5.691 0 0 0-5.686 5.696 5.692 5.692 0 0 0 5.686 5.697zM684.641 339.439c4.486 0 8.123-3.643 8.123-8.137 0-4.495-3.637-8.138-8.123-8.138-4.487 0-8.123 3.643-8.123 8.138 0 4.494 3.636 8.137 8.123 8.137zM506.347 137.753c7.206 0 13.048-5.852 13.048-13.071 0-7.219-5.842-13.071-13.048-13.071s-13.048 5.852-13.048 13.071c0 7.219 5.842 13.071 13.048 13.071zM481.415 122.181c3.753 0 6.796-3.048 6.796-6.808s-3.043-6.809-6.796-6.809c-3.754 0-6.796 3.049-6.796 6.809 0 3.76 3.042 6.808 6.796 6.808zM487.657 96.156a3.924 3.924 0 0 0 3.92-3.927 3.924 3.924 0 0 0-3.92-3.927 3.924 3.924 0 0 0-3.92 3.927 3.924 3.924 0 0 0 3.92 3.927zM509.359 104.423c5.191 0 9.398-4.216 9.398-9.415 0-5.2-4.207-9.415-9.398-9.415-5.19 0-9.398 4.215-9.398 9.415 0 5.199 4.208 9.415 9.398 9.415z" fill="#AFDCB4"/>
    <path d="M739.54 171.887c7.206 0 13.048-5.852 13.048-13.071 0-7.219-5.842-13.071-13.048-13.071s-13.048 5.852-13.048 13.071c0 7.219 5.842 13.071 13.048 13.071zM712.974 167.097c3.753 0 6.796-3.048 6.796-6.808s-3.043-6.809-6.796-6.809c-3.754 0-6.797 3.049-6.797 6.809 0 3.76 3.043 6.808 6.797 6.808zM713.531 120.665a5.888 5.888 0 0 0 5.882-5.893 5.887 5.887 0 0 0-5.882-5.893 5.888 5.888 0 0 0-5.883 5.893 5.888 5.888 0 0 0 5.883 5.893zM709.44 140.506a3.924 3.924 0 0 0 3.92-3.927 3.924 3.924 0 0 0-3.92-3.928 3.924 3.924 0 0 0-3.92 3.928 3.924 3.924 0 0 0 3.92 3.927zM730.435 139.832c5.191 0 9.399-4.215 9.399-9.415 0-5.2-4.208-9.415-9.399-9.415-5.19 0-9.398 4.215-9.398 9.415 0 5.2 4.208 9.415 9.398 9.415z" fill="#CCE7CF"/>
    <path d="M739.54 171.887c7.206 0 13.048-5.852 13.048-13.071 0-7.219-5.842-13.071-13.048-13.071s-13.048 5.852-13.048 13.071c0 7.219 5.842 13.071 13.048 13.071zM712.974 167.097c3.753 0 6.796-3.048 6.796-6.808s-3.043-6.809-6.796-6.809c-3.754 0-6.797 3.049-6.797 6.809 0 3.76 3.043 6.808 6.797 6.808zM713.531 120.665a5.888 5.888 0 0 0 5.882-5.893 5.887 5.887 0 0 0-5.882-5.893 5.888 5.888 0 0 0-5.883 5.893 5.888 5.888 0 0 0 5.883 5.893zM709.44 140.506a3.924 3.924 0 0 0 3.92-3.927 3.924 3.924 0 0 0-3.92-3.928 3.924 3.924 0 0 0-3.92 3.928 3.924 3.924 0 0 0 3.92 3.927zM730.435 139.832c5.191 0 9.399-4.215 9.399-9.415 0-5.2-4.208-9.415-9.399-9.415-5.19 0-9.398 4.215-9.398 9.415 0 5.2 4.208 9.415 9.398 9.415z" fill="#AFDCB4"/>
    <path d="M646.589 189.773c17.228 0 31.194-13.99 31.194-31.249 0-17.258-13.966-31.249-31.194-31.249-17.227 0-31.193 13.991-31.193 31.249 0 17.259 13.966 31.249 31.193 31.249z" fill="#00AB16"/>
    <path d="M665.083 147.953a4.897 4.897 0 0 0 4.893-4.902 4.898 4.898 0 0 0-4.893-4.902 4.898 4.898 0 0 0-4.894 4.902 4.897 4.897 0 0 0 4.894 4.902z" fill="#E0F6E3"/>
    <path d="M747.23 234.689c8.827-17.994-33.787-57.08-95.179-87.3-61.393-30.22-118.317-40.13-127.143-22.136-8.827 17.995 33.787 57.081 95.179 87.301 61.393 30.22 118.317 40.13 127.143 22.135z" fill="#93C099"/>
    <path d="M645.578 160.586c53.679 26.424 92.999 59.624 96.133 79.579a12.694 12.694 0 0 0 5.519-5.476c8.827-17.995-33.786-57.081-95.179-87.301-61.392-30.22-118.315-40.13-127.142-22.136a12.739 12.739 0 0 0-.955 7.723c17.683-9.708 67.944 1.188 121.624 27.611z" fill="#56B663"/>
    <path d="M674.02 214.78c3.519-7.175-13.472-22.76-37.951-34.809-24.479-12.05-47.176-16.001-50.696-8.826-3.519 7.175 13.472 22.76 37.951 34.809 24.479 12.05 47.176 16.001 50.696 8.826z" fill="#93C099"/>
    <path d="M633.488 185.233c21.404 10.536 37.082 23.774 38.332 31.731a5.062 5.062 0 0 0 2.2-2.184c3.52-7.175-13.471-22.76-37.95-34.809-24.479-12.05-47.177-16.002-50.696-8.827a5.085 5.085 0 0 0-.381 3.08c7.051-3.871 27.092.473 48.495 11.009z" fill="#00AB16"/>
    <path d="M621.766 365.666H427.027l157.966-191.442 87.737 43.188-50.964 148.254z" fill="url(#wrbo10zf0a)"/>
    <g clip-path="url(#cou2tnsa0b)">
        <path d="M473.16 337.556v-10.288H447v-7.555l18.8-40.024h9.08l-18.8 40.024h17.08V303.84h8.08v15.873h5.8v7.555h-5.8v10.288h-8.08zm43.367 1.205c-3.867 0-7.294-.857-10.28-2.572-2.987-1.714-5.333-4.072-7.04-7.072-1.707-3.001-2.56-6.443-2.56-10.328v-20.334c0-3.884.853-7.327 2.56-10.327 1.707-3.001 4.053-5.358 7.04-7.073 2.986-1.714 6.413-2.572 10.28-2.572 3.84 0 7.253.858 10.24 2.572 3.013 1.715 5.373 4.072 7.08 7.073 1.706 3 2.56 6.443 2.56 10.327v20.334c0 3.885-.854 7.327-2.56 10.328-1.707 3-4.067 5.358-7.08 7.072-2.987 1.715-6.4 2.572-10.24 2.572zm0-7.675c2.187 0 4.16-.523 5.92-1.567a12 12 0 0 0 4.24-4.26c1.066-1.795 1.6-3.791 1.6-5.988v-21.378c0-2.17-.534-4.153-1.6-5.948a11.58 11.58 0 0 0-4.24-4.259c-1.76-1.072-3.733-1.608-5.92-1.608s-4.173.536-5.96 1.608c-1.76 1.045-3.173 2.464-4.24 4.259-1.04 1.795-1.56 3.778-1.56 5.948v21.378c0 2.197.52 4.193 1.56 5.988a12.445 12.445 0 0 0 4.24 4.26c1.787 1.044 3.773 1.567 5.96 1.567zm55.617 6.47v-10.288h-26.16v-7.555l18.8-40.024h9.08l-18.8 40.024h17.08V303.84h8.08v15.873h5.8v7.555h-5.8v10.288h-8.08z" fill="#93C099"/>
    </g>
    <path d="M214.02 131.718c7.206 0 13.048-5.826 13.048-13.011 0-7.186-5.842-13.011-13.048-13.011s-13.047 5.825-13.047 13.011c0 7.185 5.841 13.011 13.047 13.011zM187.454 126.95c3.754 0 6.796-3.034 6.796-6.777 0-3.742-3.042-6.777-6.796-6.777-3.753 0-6.796 3.035-6.796 6.777 0 3.743 3.043 6.777 6.796 6.777zM188.011 80.731c3.249 0 5.883-2.626 5.883-5.865 0-3.24-2.634-5.866-5.883-5.866-3.248 0-5.882 2.626-5.882 5.866 0 3.24 2.634 5.865 5.882 5.865zM183.92 100.481c2.165 0 3.92-1.75 3.92-3.909a3.914 3.914 0 0 0-3.92-3.909 3.914 3.914 0 0 0-3.92 3.91 3.914 3.914 0 0 0 3.92 3.908zM204.916 99.81c5.19 0 9.398-4.195 9.398-9.371s-4.208-9.372-9.398-9.372c-5.191 0-9.398 4.196-9.398 9.372s4.207 9.371 9.398 9.371zM1167.02 333.095c7.21 0 13.05-5.826 13.05-13.011 0-7.186-5.84-13.011-13.05-13.011-7.21 0-13.05 5.825-13.05 13.011 0 7.185 5.84 13.011 13.05 13.011zM1140.45 328.327c3.76 0 6.8-3.034 6.8-6.777 0-3.742-3.04-6.777-6.8-6.777-3.75 0-6.79 3.035-6.79 6.777 0 3.743 3.04 6.777 6.79 6.777zM1141.01 282.108c3.25 0 5.88-2.626 5.88-5.865 0-3.24-2.63-5.866-5.88-5.866a5.871 5.871 0 0 0-5.88 5.866c0 3.239 2.63 5.865 5.88 5.865zM1136.92 301.858c2.17 0 3.92-1.75 3.92-3.909a3.911 3.911 0 0 0-3.92-3.909c-2.16 0-3.92 1.75-3.92 3.909a3.918 3.918 0 0 0 3.92 3.909zM1157.92 301.187c5.19 0 9.39-4.195 9.39-9.371s-4.2-9.372-9.39-9.372-9.4 4.196-9.4 9.372 4.21 9.371 9.4 9.371zM1015.01 85.731c3.25 0 5.88-2.626 5.88-5.865 0-3.24-2.63-5.866-5.88-5.866s-5.88 2.626-5.88 5.866c0 3.24 2.63 5.865 5.88 5.865zM1010.92 105.481c2.17 0 3.92-1.75 3.92-3.909a3.911 3.911 0 0 0-3.92-3.909c-2.16 0-3.92 1.75-3.92 3.909a3.918 3.918 0 0 0 3.92 3.909zM307.011 328.731c3.249 0 5.883-2.626 5.883-5.865 0-3.24-2.634-5.866-5.883-5.866-3.248 0-5.882 2.626-5.882 5.866 0 3.239 2.634 5.865 5.882 5.865zM302.92 348.481c2.165 0 3.92-1.75 3.92-3.909a3.914 3.914 0 0 0-3.92-3.909 3.914 3.914 0 0 0-3.92 3.909 3.914 3.914 0 0 0 3.92 3.909z" fill="#AFDCB4"/>
    <defs>
        <linearGradient id="wrbo10zf0a" x1="655.997" y1="207.521" x2="497.15" y2="395.304" gradientUnits="userSpaceOnUse">
            <stop stop-color="#56B663"/>
            <stop offset="1" stop-color="#fff" stop-opacity="0"/>
        </linearGradient>
        <clipPath id="cou2tnsa0b">
            <path fill="#fff" transform="translate(447 278.282)" d="M0 0h140v61.282H0z"/>
        </clipPath>
    </defs>
</svg>
