<svg width="550" height="434" viewBox="0 0 550 434" fill="none" xmlns="http://www.w3.org/2000/svg">
    <path d="M502.534 180.428v-15.419a11.107 11.107 0 0 0-3.241-7.84 11.057 11.057 0 0 0-7.826-3.247h-39.063a11.053 11.053 0 0 1-7.826-3.248 11.094 11.094 0 0 1-3.242-7.839v-15.42a11.108 11.108 0 0 1 3.242-7.84 11.056 11.056 0 0 1 7.826-3.247h1.233a11.05 11.05 0 0 0 7.826-3.247 11.103 11.103 0 0 0 3.241-7.84v-15.42c0-2.94-1.166-5.76-3.241-7.84a11.06 11.06 0 0 0-7.826-3.246H122.023c-2.935 0-5.75 1.168-7.825 3.247a11.095 11.095 0 0 0-3.242 7.84v15.419a11.09 11.09 0 0 0 6.832 10.243c1.343.557 2.782.844 4.235.844 2.936 0 5.751 1.168 7.826 3.247a11.095 11.095 0 0 1 3.242 7.84v15.42a11.103 11.103 0 0 1-3.242 7.839 11.056 11.056 0 0 1-7.826 3.248H79.225a11.055 11.055 0 0 0-7.826 3.247 11.086 11.086 0 0 0-3.24 7.839v15.42a11.104 11.104 0 0 0 3.24 7.84 11.07 11.07 0 0 0 7.826 3.247H96.02c2.935 0 5.75 1.168 7.825 3.247a11.098 11.098 0 0 1 3.242 7.84v15.42c0 2.94-1.166 5.76-3.242 7.84a11.056 11.056 0 0 1-7.825 3.247h-.041c-2.935 0-5.75 1.168-7.826 3.247a11.096 11.096 0 0 0-3.241 7.84v15.42a11.103 11.103 0 0 0 3.241 7.839 11.055 11.055 0 0 0 7.826 3.247h2.43c2.935 0 5.75 1.169 7.825 3.248a11.094 11.094 0 0 1 3.242 7.839v15.42a11.09 11.09 0 0 1-6.832 10.243 11.055 11.055 0 0 1-4.235.844H58.533a11.054 11.054 0 0 0-7.826 3.247 11.096 11.096 0 0 0-3.241 7.84v15.42a11.108 11.108 0 0 0 3.241 7.839 11.058 11.058 0 0 0 7.826 3.248h401.046c2.935 0 5.75-1.168 7.825-3.247a11.098 11.098 0 0 0 3.242-7.84v-15.42a11.09 11.09 0 0 0-6.832-10.243 11.055 11.055 0 0 0-4.235-.844h-9.596a11.06 11.06 0 0 1-7.826-3.247 11.098 11.098 0 0 1-3.241-7.84v-15.42c0-2.94 1.166-5.76 3.241-7.839a11.06 11.06 0 0 1 7.826-3.247h22.626a11.055 11.055 0 0 0 7.826-3.248 11.098 11.098 0 0 0 3.241-7.839v-15.42a11.107 11.107 0 0 0-3.241-7.84 11.073 11.073 0 0 0-7.826-3.247h-6.864a11.055 11.055 0 0 1-7.826-3.247 11.107 11.107 0 0 1-3.241-7.84v-15.42a11.104 11.104 0 0 1 3.241-7.839 11.06 11.06 0 0 1 7.826-3.248h25.722a11.057 11.057 0 0 0 10.225-6.844c.556-1.345.842-2.787.842-4.243z" fill="#CBECD0"/>
    <path d="M165.326 221.766h58.551c.935 0 1.692-.759 1.692-1.696v-25.717c0-.936-.757-1.695-1.692-1.695h-58.551c-.935 0-1.693.759-1.693 1.695v25.717c0 .937.758 1.696 1.693 1.696zM196.295 187.411h58.551c.935 0 1.693-.759 1.693-1.695v-25.717c0-.937-.758-1.696-1.693-1.696h-58.551c-.935 0-1.692.759-1.692 1.696v25.717c0 .936.757 1.695 1.692 1.695zM129.122 187.411h58.551c.935 0 1.692-.759 1.692-1.695v-25.717c0-.937-.757-1.696-1.692-1.696h-58.551c-.935 0-1.693.759-1.693 1.696v25.717c0 .936.758 1.695 1.693 1.695zM398.638 242.274h-58.552c-.934 0-1.692.759-1.692 1.696v25.717c0 .936.758 1.695 1.692 1.695h58.552c.934 0 1.692-.759 1.692-1.695V243.97c0-.937-.758-1.696-1.692-1.696zM367.67 276.629h-58.551c-.935 0-1.693.759-1.693 1.695v25.717c0 .937.758 1.696 1.693 1.696h58.551c.935 0 1.692-.759 1.692-1.696v-25.717c0-.936-.757-1.695-1.692-1.695zM434.844 276.629h-58.552c-.934 0-1.692.759-1.692 1.695v25.717c0 .937.758 1.696 1.692 1.696h58.552c.934 0 1.692-.759 1.692-1.696v-25.717c0-.936-.758-1.695-1.692-1.695z" fill="#AFDCB4"/>
    <path d="M286.683 334.558v9.57a13.95 13.95 0 0 1-4.074 9.853 13.9 13.9 0 0 1-9.836 4.082h-46.732a13.9 13.9 0 0 0-9.837 4.081 13.95 13.95 0 0 0-4.074 9.854c0 3.695-1.465 7.24-4.074 9.853a13.9 13.9 0 0 1-9.836 4.082h-36.092a13.899 13.899 0 0 1-9.836-4.082 13.947 13.947 0 0 1-4.075-9.853v-24.699a13.95 13.95 0 0 0-4.074-9.853 13.894 13.894 0 0 0-9.836-4.082H91" stroke="#93C099" stroke-width="3.521" stroke-miterlimit="10" stroke-linecap="round"/>
    <path d="M366.076 55H207.924c-3.272 0-5.924 2.682-5.924 5.991V216.01c0 3.309 2.652 5.991 5.924 5.991h158.152c3.272 0 5.924-2.682 5.924-5.991V60.991c0-3.309-2.652-5.991-5.924-5.991z" fill="#CBECD0"/>
    <path d="M319.633 244.847h-65.899a2.977 2.977 0 0 0-2.979 2.984v29.486c0 .792.314 1.551.872 2.11.559.56 1.317.875 2.107.875h10.037a2.977 2.977 0 0 1 2.979 2.984v26.8c0 .792.314 1.551.873 2.111a2.977 2.977 0 0 0 2.106.874h33.908a2.981 2.981 0 0 0 2.979-2.985v-26.8a2.983 2.983 0 0 1 2.979-2.984h10.038a2.983 2.983 0 0 0 2.979-2.985v-29.486a2.983 2.983 0 0 0-2.979-2.984z" fill="#93C099"/>
    <path d="M311.216 302.327H262.15a5.367 5.367 0 0 0-5.363 5.372 5.367 5.367 0 0 0 5.363 5.372h49.066a5.367 5.367 0 0 0 5.362-5.372c0-2.967-2.4-5.372-5.362-5.372z" fill="#00AB16"/>
    <path d="M266.439 313.071h40.487v5.574a5.176 5.176 0 0 1-1.512 3.656 5.16 5.16 0 0 1-3.649 1.514h-30.164a5.166 5.166 0 0 1-3.65-1.514 5.18 5.18 0 0 1-1.512-3.656v-5.574z" fill="#56B663"/>
    <path d="M274.526 323.814h24.315v9.309a12.19 12.19 0 0 1-3.561 8.612 12.146 12.146 0 0 1-17.193 0 12.19 12.19 0 0 1-3.561-8.612v-9.309z" fill="#00AB16"/>
    <path d="M303.813 244.847v-31.963M269.553 244.847v-31.963" stroke="#00AB16" stroke-width="8.802" stroke-miterlimit="10"/>
    <path d="M267.532 146.975c3.869 0 7.006-3.143 7.006-7.019 0-3.876-3.137-7.018-7.006-7.018s-7.006 3.142-7.006 7.018 3.137 7.019 7.006 7.019zM306.455 146.975c3.869 0 7.006-3.143 7.006-7.019 0-3.876-3.137-7.018-7.006-7.018-3.87 0-7.006 3.142-7.006 7.018s3.136 7.019 7.006 7.019z" fill="#CBECD0"/>
    <path d="M392.285 111.273h27.332M392.285 119.165h27.332M392.285 127.058h27.332M151.957 103.381h27.333M151.957 111.273h27.333M151.957 119.165h27.333M186.502 262.975h27.334M186.502 270.867h27.334M186.502 278.759h27.334" stroke="#AFDCB4" stroke-width="3" stroke-miterlimit="10" stroke-linecap="round"/>
    <g clip-path="url(#kepmdtip5a)">
        <path d="M239.64 195.2c-2.96 0-5.707-.6-8.24-1.8a19.544 19.544 0 0 1-6.52-5.08c-1.813-2.16-3.107-4.64-3.88-7.44l7.44-2c.453 1.813 1.267 3.387 2.44 4.72a12.56 12.56 0 0 0 4.08 3.04c1.573.72 3.213 1.08 4.92 1.08 2.213 0 4.213-.533 6-1.6 1.813-1.093 3.24-2.533 4.28-4.32 1.067-1.787 1.6-3.76 1.6-5.92 0-2.213-.547-4.213-1.64-6a11.767 11.767 0 0 0-4.32-4.24c-1.787-1.067-3.76-1.6-5.92-1.6-2.453 0-4.533.507-6.24 1.52-1.707.987-3.053 2.16-4.04 3.52l-6.8-2.48 1.76-30.2h31v7.32h-27.12l3.28-3.08-1.44 23.4-1.6-2.04c1.547-1.627 3.4-2.867 5.56-3.72 2.187-.88 4.373-1.32 6.56-1.32 3.573 0 6.773.84 9.6 2.52 2.827 1.653 5.053 3.907 6.68 6.76 1.653 2.853 2.48 6.067 2.48 9.64 0 3.547-.92 6.787-2.76 9.72-1.813 2.907-4.227 5.24-7.24 7-3.013 1.733-6.32 2.6-9.92 2.6zm49.283 0c-3.814 0-7.214-.853-10.201-2.56a18.767 18.767 0 0 1-7-7c-1.706-2.987-2.56-6.387-2.56-10.2v-20.48c0-3.813.854-7.2 2.56-10.16 1.707-2.986 4.04-5.333 7-7.04 2.987-1.706 6.387-2.56 10.201-2.56 3.813 0 7.199.854 10.159 2.56a18.592 18.592 0 0 1 7.04 7.04c1.707 2.96 2.561 6.347 2.561 10.16v20.48c0 3.813-.854 7.213-2.561 10.2-1.706 2.96-4.053 5.293-7.04 7-2.96 1.707-6.346 2.56-10.159 2.56zm0-7.4c2.186 0 4.173-.533 5.959-1.6a12.071 12.071 0 0 0 4.32-4.28c1.067-1.813 1.6-3.813 1.6-6v-21.48c0-2.187-.533-4.173-1.6-5.96a11.975 11.975 0 0 0-4.32-4.32c-1.786-1.066-3.773-1.6-5.959-1.6-2.187 0-4.187.534-6 1.6a12.079 12.079 0 0 0-4.28 4.32c-1.067 1.787-1.601 3.773-1.601 5.96v21.48c0 2.187.534 4.187 1.601 6a12.176 12.176 0 0 0 4.28 4.28c1.813 1.067 3.813 1.6 6 1.6zm50.703 7.4c-3.814 0-7.214-.853-10.2-2.56a18.76 18.76 0 0 1-7-7c-1.707-2.987-2.56-6.387-2.56-10.2v-20.48c0-3.813.853-7.2 2.56-10.16 1.706-2.986 4.04-5.333 7-7.04 2.986-1.706 6.386-2.56 10.2-2.56 3.813 0 7.2.854 10.16 2.56a18.606 18.606 0 0 1 7.04 7.04c1.706 2.96 2.56 6.347 2.56 10.16v20.48c0 3.813-.854 7.213-2.56 10.2-1.707 2.96-4.054 5.293-7.04 7-2.96 1.707-6.347 2.56-10.16 2.56zm0-7.4c2.186 0 4.173-.533 5.96-1.6a12.087 12.087 0 0 0 4.32-4.28c1.066-1.813 1.6-3.813 1.6-6v-21.48c0-2.187-.534-4.173-1.6-5.96a11.99 11.99 0 0 0-4.32-4.32c-1.787-1.066-3.774-1.6-5.96-1.6-2.187 0-4.187.534-6 1.6a12.079 12.079 0 0 0-4.28 4.32c-1.067 1.787-1.6 3.773-1.6 5.96v21.48c0 2.187.533 4.187 1.6 6a12.176 12.176 0 0 0 4.28 4.28c1.813 1.067 3.813 1.6 6 1.6z" fill="#93C099"/>
    </g>
    <defs>
        <clipPath id="kepmdtip5a">
            <path fill="#fff" transform="translate(221 135)" d="M0 0h139v61H0z"/>
        </clipPath>
    </defs>
</svg>
