<svg width="325" height="304" viewBox="0 0 325 304" fill="none" xmlns="http://www.w3.org/2000/svg">
    <path d="M296.952 134.428v-9.096c0-.859-.169-1.709-.498-2.502a6.525 6.525 0 0 0-3.539-3.54 6.55 6.55 0 0 0-2.503-.497h-23.083a6.537 6.537 0 0 1-6.539-6.54v-9.096a6.546 6.546 0 0 1 1.915-4.624 6.531 6.531 0 0 1 4.624-1.915h.729a6.544 6.544 0 0 0 6.042-4.038 6.533 6.533 0 0 0 .498-2.502v-9.096a6.538 6.538 0 0 0-6.54-6.54H72.105a6.54 6.54 0 0 0-6.54 6.54v9.096a6.54 6.54 0 0 0 6.54 6.54 6.54 6.54 0 0 1 6.54 6.539v9.096a6.535 6.535 0 0 1-1.916 4.624 6.55 6.55 0 0 1-2.122 1.418 6.55 6.55 0 0 1-2.502.497h-25.29a6.552 6.552 0 0 0-4.624 1.916 6.533 6.533 0 0 0-1.916 4.624v9.096a6.535 6.535 0 0 0 1.916 4.624 6.55 6.55 0 0 0 2.121 1.418 6.551 6.551 0 0 0 2.503.497h9.923a6.538 6.538 0 0 1 6.54 6.54v9.096a6.539 6.539 0 0 1-6.54 6.54h-.024a6.541 6.541 0 0 0-6.54 6.539v9.096a6.535 6.535 0 0 0 1.916 4.624 6.55 6.55 0 0 0 4.624 1.916h1.436a6.541 6.541 0 0 1 6.54 6.539v9.096a6.544 6.544 0 0 1-4.037 6.042 6.552 6.552 0 0 1-2.503.498H34.588a6.55 6.55 0 0 0-2.503.497 6.55 6.55 0 0 0-3.54 3.54 6.537 6.537 0 0 0-.497 2.502v9.096a6.542 6.542 0 0 0 6.54 6.54h236.981a6.537 6.537 0 0 0 4.624-1.916 6.537 6.537 0 0 0 1.916-4.624v-9.096a6.532 6.532 0 0 0-1.916-4.624 6.55 6.55 0 0 0-2.121-1.418 6.554 6.554 0 0 0-2.503-.497h-5.67a6.536 6.536 0 0 1-4.624-1.916 6.537 6.537 0 0 1-1.916-4.624v-9.096a6.537 6.537 0 0 1 6.54-6.539h13.37a6.547 6.547 0 0 0 6.042-4.037 6.554 6.554 0 0 0 .497-2.503v-9.096a6.55 6.55 0 0 0-1.915-4.624 6.543 6.543 0 0 0-4.624-1.915h-4.056a6.55 6.55 0 0 1-6.042-4.037 6.537 6.537 0 0 1-.498-2.503v-9.096a6.528 6.528 0 0 1 1.916-4.624 6.55 6.55 0 0 1 2.121-1.418 6.554 6.554 0 0 1 2.503-.497h15.199a6.555 6.555 0 0 0 4.625-1.916 6.525 6.525 0 0 0 1.417-2.122 6.528 6.528 0 0 0 .498-2.502z" fill="#CBECD0"/>
    <path d="M97.692 158.812h34.599a1 1 0 0 0 1-1v-15.17a1 1 0 0 0-1-1H97.692a1 1 0 0 0-1 1v15.17a1 1 0 0 0 1 1zM115.992 138.547h34.599a1 1 0 0 0 1-1v-15.17a1 1 0 0 0-1-1h-34.599a1 1 0 0 0-1 1v15.17a1 1 0 0 0 1 1zM76.299 138.547h34.598a1 1 0 0 0 1-1v-15.17a1 1 0 0 0-1-1H76.299a1 1 0 0 0-1 1v15.17a1 1 0 0 0 1 1zM235.558 170.908H200.96a1 1 0 0 0-1 1v15.17a1 1 0 0 0 1 1h34.598a1 1 0 0 0 1-1v-15.17a1 1 0 0 0-1-1zM217.26 191.173h-34.599a1 1 0 0 0-1 1v15.169a1 1 0 0 0 1 1h34.599a1 1 0 0 0 1-1v-15.169a1 1 0 0 0-1-1zM256.953 191.173h-34.599a1 1 0 0 0-1 1v15.169a1 1 0 0 0 1 1h34.599a1 1 0 0 0 1-1v-15.169a1 1 0 0 0-1-1z" fill="#AFDCB4"/>
    <path d="M169.403 225.343v5.645a8.222 8.222 0 0 1-8.219 8.219h-27.615c-2.18 0-4.271.866-5.812 2.408a8.217 8.217 0 0 0-2.408 5.812 8.22 8.22 0 0 1-8.219 8.22H95.802a8.218 8.218 0 0 1-8.22-8.22v-14.569a8.217 8.217 0 0 0-8.219-8.219h-25.59" stroke="#93C099" stroke-width="2.08" stroke-miterlimit="10" stroke-linecap="round"/>
    <path d="M216.317 60.442h-93.453c-1.933 0-3.501 1.583-3.501 3.534v91.439c0 1.952 1.568 3.534 3.501 3.534h93.453c1.934 0 3.501-1.582 3.501-3.534V63.976c0-1.951-1.567-3.534-3.501-3.534z" fill="#CBECD0"/>
    <path d="M188.874 172.426h-38.94a1.762 1.762 0 0 0-1.76 1.76v17.393a1.762 1.762 0 0 0 1.76 1.76h5.931a1.761 1.761 0 0 1 1.761 1.761v15.808a1.76 1.76 0 0 0 1.76 1.761h20.036a1.761 1.761 0 0 0 1.761-1.761V195.1a1.76 1.76 0 0 1 1.76-1.761h5.931a1.76 1.76 0 0 0 1.761-1.76v-17.393a1.764 1.764 0 0 0-1.087-1.626 1.754 1.754 0 0 0-.674-.134z" fill="#93C099"/>
    <path d="M183.901 206.331h-28.994a3.17 3.17 0 0 0 0 6.338h28.994a3.17 3.17 0 0 0 0-6.338z" fill="#00AB16"/>
    <path d="M157.441 212.669h23.924v3.287a3.05 3.05 0 0 1-3.05 3.05h-17.824a3.056 3.056 0 0 1-2.156-.893 3.045 3.045 0 0 1-.894-2.157v-3.287z" fill="#56B663"/>
    <path d="M162.22 219.006h14.368v5.491a7.187 7.187 0 0 1-7.184 7.184 7.184 7.184 0 0 1-7.184-7.184v-5.491z" fill="#00AB16"/>
    <path d="M179.525 172.426v-18.854M159.281 172.426v-18.854" stroke="#00AB16" stroke-width="5.201" stroke-miterlimit="10"/>
    <path d="M158.087 114.695a4.14 4.14 0 1 0 0-8.28 4.14 4.14 0 0 0 0 8.28zM181.087 114.695a4.14 4.14 0 1 0 0-8.28 4.14 4.14 0 0 0 0 8.28z" fill="#CBECD0"/>
    <path d="M231.805 93.636h16.151M231.805 98.291h16.151M231.805 102.946h16.151M89.793 88.98h16.151M89.793 93.636h16.151M89.793 98.291h16.151M110.206 183.119h16.152M110.206 187.774h16.152M110.206 192.429h16.152" stroke="#AFDCB4" stroke-width="1.773" stroke-miterlimit="10" stroke-linecap="round"/>
    <g clip-path="url(#ddgwinew2a)">
        <path d="M141.605 143.345c-1.749 0-3.372-.354-4.869-1.063a11.545 11.545 0 0 1-3.852-3.002 11.518 11.518 0 0 1-2.293-4.397l4.396-1.181a6.569 6.569 0 0 0 1.442 2.789 7.42 7.42 0 0 0 2.411 1.796c.93.425 1.899.638 2.907.638 1.308 0 2.49-.315 3.546-.945a7.142 7.142 0 0 0 2.529-2.553c.63-1.056.945-2.222.945-3.498 0-1.308-.323-2.49-.969-3.546a6.947 6.947 0 0 0-2.553-2.505c-1.055-.63-2.221-.946-3.498-.946-1.449 0-2.679.3-3.687.899-1.009.583-1.804 1.276-2.387 2.08l-4.019-1.466 1.04-17.845h18.319v4.325h-16.026l1.938-1.82-.851 13.827-.945-1.205a9.07 9.07 0 0 1 3.285-2.198c1.293-.52 2.585-.78 3.877-.78 2.111 0 4.002.496 5.673 1.489a10.67 10.67 0 0 1 3.947 3.994c.977 1.686 1.465 3.585 1.465 5.697 0 2.096-.543 4.01-1.631 5.743a12.218 12.218 0 0 1-4.278 4.137c-1.78 1.024-3.734 1.536-5.862 1.536zm29.122 0c-2.253 0-4.263-.504-6.027-1.513a11.082 11.082 0 0 1-4.137-4.136c-1.008-1.765-1.513-3.774-1.513-6.027v-12.102c0-2.253.505-4.255 1.513-6.004a11.045 11.045 0 0 1 4.137-4.16c1.764-1.008 3.774-1.512 6.027-1.512s4.254.504 6.003 1.512a10.991 10.991 0 0 1 4.16 4.16c1.009 1.749 1.513 3.751 1.513 6.004v12.102c0 2.253-.504 4.262-1.513 6.027a11.028 11.028 0 0 1-4.16 4.136c-1.749 1.009-3.75 1.513-6.003 1.513zm0-4.373c1.292 0 2.466-.315 3.522-.945a7.134 7.134 0 0 0 2.552-2.529c.631-1.072.946-2.253.946-3.546V119.26c0-1.292-.315-2.466-.946-3.522a7.074 7.074 0 0 0-2.552-2.553c-1.056-.63-2.23-.945-3.522-.945-1.292 0-2.474.315-3.546.945a7.145 7.145 0 0 0-2.529 2.553c-.63 1.056-.945 2.23-.945 3.522v12.692c0 1.293.315 2.474.945 3.546a7.207 7.207 0 0 0 2.529 2.529c1.072.63 2.254.945 3.546.945zm29.961 4.373c-2.254 0-4.263-.504-6.027-1.513a11.082 11.082 0 0 1-4.137-4.136c-1.008-1.765-1.513-3.774-1.513-6.027v-12.102c0-2.253.505-4.255 1.513-6.004a11.045 11.045 0 0 1 4.137-4.16c1.764-1.008 3.773-1.512 6.027-1.512 2.253 0 4.255.504 6.004 1.512a11.005 11.005 0 0 1 4.16 4.16c1.008 1.749 1.512 3.751 1.512 6.004v12.102c0 2.253-.504 4.262-1.512 6.027a11.042 11.042 0 0 1-4.16 4.136c-1.749 1.009-3.751 1.513-6.004 1.513zm0-4.373c1.292 0 2.466-.315 3.522-.945a7.145 7.145 0 0 0 2.553-2.529c.629-1.072.945-2.253.945-3.546V119.26c0-1.292-.316-2.466-.945-3.522a7.084 7.084 0 0 0-2.553-2.553c-1.056-.63-2.23-.945-3.522-.945-1.292 0-2.474.315-3.545.945a7.132 7.132 0 0 0-2.53 2.553c-.63 1.056-.945 2.23-.945 3.522v12.692c0 1.293.315 2.474.945 3.546a7.193 7.193 0 0 0 2.53 2.529c1.071.63 2.253.945 3.545.945z" fill="#93C099"/>
    </g>
    <path d="M292 224h18.105v6.931a9.08 9.08 0 0 1-2.651 6.413 9.045 9.045 0 0 1-12.803 0 9.08 9.08 0 0 1-2.651-6.413V224zM51.668 41H30.332A2.334 2.334 0 0 0 28 43.336a2.334 2.334 0 0 0 2.332 2.336h21.336A2.334 2.334 0 0 0 54 43.336 2.334 2.334 0 0 0 51.668 41zM314.235 10h-26.47a.766.766 0 0 0-.765.766v11.627c0 .423.343.766.765.766h26.47a.766.766 0 0 0 .765-.766V10.766a.766.766 0 0 0-.765-.766zM36.317 187H12.683a.683.683 0 0 0-.683.684v10.381c0 .378.306.684.683.684h23.634a.683.683 0 0 0 .683-.684v-10.381a.683.683 0 0 0-.683-.684z" fill="#AFDCB4"/>
    <defs>
        <clipPath id="ddgwinew2a">
            <path fill="#fff" transform="translate(130.591 107.772)" d="M0 0h82.136v36.045H0z"/>
        </clipPath>
    </defs>
</svg>
