<svg width="70" height="70" viewBox="0 0 70 70" fill="none" xmlns="http://www.w3.org/2000/svg">
    <path d="M28.53 55.768c-15.91-13.183-6.023-33.526.91-42.05 5-4.659 8.409 3.751 2.158 13.184-5 7.546-.947 19.206 1.705 24.093 5.039 7.084 1.144 9.675-4.773 4.773z" fill="url(#kn11sbqmea)"/>
    <path d="M43.781 55.768c15.91-13.183 6.024-33.526-.909-42.05-5-4.659-8.41 3.751-2.159 13.184 5 7.546.947 19.206-1.705 24.093-5.038 7.084-1.143 9.675 4.773 4.773z" fill="url(#r4w2lvwg4b)"/>
    <path d="M18.985 10.425c6.102-2.593 8.167-.954 7.842 3.862-5.859 11.131-4.063 12.336-12.16 15.23-7.957 2.842-4.774-15.23 4.318-19.092z" fill="url(#d2k3n1i5kc)"/>
    <path d="M10.006 29.857c.91 1.65 3.439 1.488 5.845.81 1.433-.403 3.043 1.01 2.785 2.476-1.385 7.858.99 15.257 2.969 19.135.366.718.23 1.605-.377 2.133l-4.597 4.002c-.314.273-.729.428-1.14.37-10.8-1.503-7.268-32.158-5.485-28.926z" fill="url(#a8s17xxevd)"/>
    <path d="M40.406 59.255c-5.024 1.098-9.543.006-12.854-1.648-2.863-1.43-6.26-2.229-8.49.067a23.223 23.223 0 0 0-1.894 2.187c-3.03 4.036 7.36 9.998 19.32 8.41 9.456-1.256 11.517-3.952 10.927-6.59-.62-2.777-4.23-3.034-7.01-2.426z" fill="url(#avnzs2skhe)"/>
    <path d="M53.648 37.766c.63 7.958-2.582 13.804-5.417 16.959-1.052 1.17-1.49 2.861-.818 4.284l1.127 2.383c.425.9 1.24 1.616 2.236 1.626 8.142.085 11.762-15.787 12.182-26.65.079-2.042-1.815-3.516-3.815-3.098l-2.74.574c-1.778.372-2.899 2.11-2.755 3.922z" fill="url(#ntwz6b8jqf)"/>
    <path d="M23.192 7.355c2.325.325 3.72 1.63 4.501 2.97.615 1.055 2.072 1.762 3.223 1.352 4.75-1.69 9.849-.448 12.607.751.512.223 1.105.223 1.536-.131 1.389-1.14 3.553-3.734 4.84-8.124 1.545-5.273-13.6-2.803-21.366-.91-3.41 1.137-9.251 3.547-5.341 4.092z" fill="url(#g6wxs4muzg)"/>
    <path d="m61.066 31.83-5.083 1.016c-1.435.287-2.799-.727-3.054-2.168-1.023-5.791-3.26-10.498-5.217-13.579-.979-1.542-.458-4.157.641-5.616.479-.634.924-1.343 1.33-2.076 1.058-1.911 3.997-2.166 4.998-.225 2.953 5.729 7.344 14.914 8.16 20.346.169 1.126-.658 2.078-1.775 2.302z" fill="url(#i63h6l4r5h)"/>
    <path d="M33.778 49.373c-4.468-9.907-2.47-19.312.07-24.826.71-1.543 2.742-1.603 3.579-.126 5.32 9.385 2.988 19.168.026 25.063-.799 1.591-2.943 1.512-3.675-.11z" fill="#35AFB7"/>
    <circle cx="40.603" cy="17.533" r="1.187" fill="#9AC178"/>
    <circle cx="47.445" cy="42.82" r="1.187" fill="#9AC178"/>
    <circle cx="29.483" cy="50.541" r="1.187" fill="#9AC178"/>
    <circle cx="43.743" cy="24.12" r=".767" fill="#9AC178"/>
    <circle cx="28.295" cy="28.409" r=".767" fill="#9AC178"/>
    <circle cx="25.085" cy="37.118" r=".767" fill="#9AC178"/>
    <defs>
        <linearGradient id="kn11sbqmea" x1="27.801" y1="12.395" x2="27.801" y2="58.29" gradientUnits="userSpaceOnUse">
            <stop stop-color="#82D64F"/>
            <stop offset="1" stop-color="#4D9113"/>
        </linearGradient>
        <linearGradient id="r4w2lvwg4b" x1="44.511" y1="12.395" x2="44.511" y2="58.29" gradientUnits="userSpaceOnUse">
            <stop stop-color="#82D64F"/>
            <stop offset="1" stop-color="#4D9113"/>
        </linearGradient>
        <linearGradient id="d2k3n1i5kc" x1="18.495" y1="9.201" x2="18.495" y2="29.818" gradientUnits="userSpaceOnUse">
            <stop stop-color="#B2EB98"/>
            <stop offset="1" stop-color="#A6DA65"/>
        </linearGradient>
        <linearGradient id="a8s17xxevd" x1="15.14" y1="29.176" x2="15.14" y2="58.838" gradientUnits="userSpaceOnUse">
            <stop stop-color="#B2EB98"/>
            <stop offset="1" stop-color="#A6DA65"/>
        </linearGradient>
        <linearGradient id="avnzs2skhe" x1="32.072" y1="54.248" x2="32.072" y2="68.534" gradientUnits="userSpaceOnUse">
            <stop stop-color="#B2EB98"/>
            <stop offset="1" stop-color="#A6DA65"/>
        </linearGradient>
        <linearGradient id="ntwz6b8jqf" x1="54.629" y1="32.471" x2="54.629" y2="63.019" gradientUnits="userSpaceOnUse">
            <stop stop-color="#B2EB98"/>
            <stop offset="1" stop-color="#A6DA65"/>
        </linearGradient>
        <linearGradient id="g6wxs4muzg" x1="35.95" y1="1" x2="35.95" y2="12.81" gradientUnits="userSpaceOnUse">
            <stop stop-color="#B2EB98"/>
            <stop offset="1" stop-color="#A6DA65"/>
        </linearGradient>
        <linearGradient id="i63h6l4r5h" x1="54.162" y1="4.061" x2="54.162" y2="33.382" gradientUnits="userSpaceOnUse">
            <stop stop-color="#B2EB98"/>
            <stop offset="1" stop-color="#A6DA65"/>
        </linearGradient>
    </defs>
</svg>
