<svg width="20" height="20" viewBox="0 0 20 20" fill="none" xmlns="http://www.w3.org/2000/svg">
    <path d="M0 10C0 4.477 4.477 0 10 0s10 4.477 10 10-4.477 10-10 10S0 15.523 0 10z" fill="#56B663" fill-opacity=".1"/>
    <path fill-rule="evenodd" clip-rule="evenodd" d="M14.247 6.158 8.28 11.917l-1.583-1.692c-.292-.275-.75-.292-1.083-.058a.764.764 0 0 0-.217 1.008l1.875 3.05c.183.283.5.458.858.458.342 0 .667-.175.85-.458.3-.392 6.025-7.217 6.025-7.217.75-.766-.158-1.441-.758-.858v.008z" fill="#56B663"/>
</svg>
