<svg width="130" height="130" viewBox="0 0 130 130" fill="none" xmlns="http://www.w3.org/2000/svg">
    <g clip-path="url(#ppawvgkvka)">
        <path opacity=".6" d="M26.975 100.709c-8.003-1.828-14.625-6.033-19.663-13-9.303-12.858-9.77-30.327-1.239-43.713 2.011-3.148 4.368-6.154 7.049-9.08 2.316-2.538 4.062-5.524 5.281-8.734C26 5.83 39.711-1.178 60.227 6.622a22.742 22.742 0 0 0 9.445 1.503c32.236-1.93 44.301 13.568 41.031 42.29-.305 2.6.102 5.22 1.158 7.638 9.669 22.1 5.931 39.386-15.661 50.273-1.32.67-2.56 1.524-3.636 2.559-23.684 22.913-43.306 20.252-59.231-5.667a9.936 9.936 0 0 0-6.358-4.509z" fill="url(#z9z66p817b)"/>
        <circle cx="110" cy="105" r="8.4" fill="#fff"/>
        <path fill-rule="evenodd" clip-rule="evenodd" d="M121.2 105c0 2.97-1.18 5.819-3.281 7.919a11.197 11.197 0 0 1-15.839 0A11.2 11.2 0 1 1 121.2 105zm-15.4-2.8a1.398 1.398 0 0 1 1.4-1.4 1.4 1.4 0 0 1 1.4 1.4v5.6a1.404 1.404 0 0 1-1.4 1.4 1.402 1.402 0 0 1-1.4-1.4v-5.6zm7-1.4a1.398 1.398 0 0 0-1.4 1.4v5.6a1.4 1.4 0 1 0 2.8 0v-5.6a1.402 1.402 0 0 0-1.4-1.4z" fill="#00AB16"/>
        <path d="m103.31 15.132-2.56-3.473-4.042-1.564 3.473-2.56 1.565-4.021 2.559 3.473 4.022 1.544-3.474 2.56-1.543 4.041zM8.572 107.738l-2.56-3.474-4.042-1.543 3.494-2.56 1.544-4.042 2.56 3.494 4.021 1.544-3.473 2.559-1.544 4.022z" fill="#56B663"/>
        <path d="m13.772 27.625-2.56-3.474-4.042-1.564 3.474-2.56 1.544-4.021 2.559 3.473 4.042 1.544-3.473 2.56-1.544 4.042z" fill="#56B663" fill-opacity=".6"/>
        <path d="M61.852 18.443c-23.888 0-43.327 19.44-43.327 43.327 0 23.887 19.439 43.326 43.327 43.326 23.907 0 43.326-19.439 43.326-43.326 0-23.888-19.419-43.327-43.326-43.327zm0 80.377c-20.415 0-37.05-16.616-37.05-37.05 0-20.434 16.635-37.05 37.05-37.05 20.434 0 37.05 16.616 37.05 37.05 0 20.434-16.616 37.05-37.05 37.05z" fill="#00AB16"/>
        <path d="M61.852 24.72c-20.414 0-37.05 16.616-37.05 37.05 0 20.435 16.636 37.05 37.05 37.05 20.434 0 37.05-16.615 37.05-37.05 0-20.434-16.616-37.05-37.05-37.05zm25.675 40.2H61.852a3.151 3.151 0 0 1-3.149-3.15V31.608a3.151 3.151 0 0 1 3.149-3.149A3.151 3.151 0 0 1 65 31.607v27.036h22.527a3.151 3.151 0 0 1 3.148 3.148c0 1.747-1.422 3.128-3.148 3.128z" fill="#F4F9F5"/>
        <path d="M90.675 61.77a3.151 3.151 0 0 1-3.148 3.149H61.852a3.151 3.151 0 0 1-3.149-3.148V31.605a3.151 3.151 0 0 1 3.149-3.148A3.151 3.151 0 0 1 65 31.606v27.036h22.527c1.726-.02 3.148 1.402 3.148 3.128z" fill="#56B663"/>
    </g>
    <defs>
        <linearGradient id="z9z66p817b" x1="58.455" y1="126.488" x2="58.455" y2="3.512" gradientUnits="userSpaceOnUse">
            <stop stop-color="#E0F5E3"/>
            <stop offset=".388" stop-color="#56B663"/>
            <stop offset="1" stop-color="#fff"/>
        </linearGradient>
        <clipPath id="ppawvgkvka">
            <path fill="#fff" d="M0 0h130v130H0z"/>
        </clipPath>
    </defs>
</svg>
