<svg width="46" height="46" viewBox="0 0 46 46" fill="none" xmlns="http://www.w3.org/2000/svg">
    <path d="M1 9a8 8 0 0 1 8-8h28a8 8 0 0 1 8 8v28a8 8 0 0 1-8 8H9a8 8 0 0 1-8-8V9z" fill="#FCFDFD"/>
    <path d="M18 23h10m-12.5-5h15m-10 10h5" stroke="#56B663" stroke-width="1.67" stroke-linecap="round" stroke-linejoin="round"/>
    <path d="M9 1.5h28v-1H9v1zM44.5 9v28h1V9h-1zM37 44.5H9v1h28v-1zM1.5 37V9h-1v28h1zM9 44.5A7.5 7.5 0 0 1 1.5 37h-1A8.5 8.5 0 0 0 9 45.5v-1zM44.5 37a7.5 7.5 0 0 1-7.5 7.5v1a8.5 8.5 0 0 0 8.5-8.5h-1zM37 1.5A7.5 7.5 0 0 1 44.5 9h1A8.5 8.5 0 0 0 37 .5v1zM9 .5A8.5 8.5 0 0 0 .5 9h1A7.5 7.5 0 0 1 9 1.5v-1z" fill="#56B663"/>
</svg>
