<svg width="56" height="56" viewBox="0 0 56 56" fill="none" xmlns="http://www.w3.org/2000/svg">
    <g filter="url(#dxjwe095ea)">
        <path d="M28 4.8H8.8V24H28V4.8zM47.195 24.001h-19.2v19.2h19.2V24z" fill="#38D430"/>
        <path d="M47.195 4.8h-19.2V24h19.2V4.8z" fill="#00AB16"/>
        <path d="m39.82 18.625 1.614 1.664h1.864L40.702 17.6l1.664-1.93v-1.928l-2.546 2.944-2.446-2.53.716-.511c.832-.616 1.664-1.431 1.664-2.596 0-1.68-1.28-2.795-3.029-2.795-1.514 0-2.995 1.081-2.995 2.878 0 1.099.816 1.98 1.365 2.56l.35.366-.234.167c-1.248.915-2.063 1.792-2.063 3.278 0 1.514 1.165 3.013 3.328 3.013 1.331 0 2.346-.75 3.344-1.892zm-4.692-7.578a1.565 1.565 0 0 1 1.597-1.597c.982 0 1.631.699 1.631 1.564 0 .583-.25 1.082-.965 1.598l-.882.665-.466-.499c-.449-.45-.915-1.048-.915-1.73zm-.582 6.34c0-.915.532-1.497 1.181-1.98l.583-.45 2.645 2.746-.1.117c-.682.782-1.43 1.398-2.362 1.398-1.215 0-1.947-.916-1.947-1.83zm-10.034-2.986a6.124 6.124 0 1 0-6.134 6.144 5.962 5.962 0 0 0 3.5-1.178l1.007 1.011h2.91l-2.46-2.47a6 6 0 0 0 1.177-3.507zm-2.762 1.92-1.674-1.68h-2.91l3.136 3.15a3.919 3.919 0 1 1 1.448-1.47zm12.208 11.392h7.296v2.159h-2.498v7.458h2.488v2.158h-7.296v-2.155h2.504v-7.458h-2.494v-2.162z" fill="#1F1F1F"/>
    </g>
    <defs>
        <filter id="dxjwe095ea" x=".8" y=".8" width="54.395" height="54.401" filterUnits="userSpaceOnUse" color-interpolation-filters="sRGB">
            <feFlood flood-opacity="0" result="BackgroundImageFix"/>
            <feColorMatrix in="SourceAlpha" values="0 0 0 0 0 0 0 0 0 0 0 0 0 0 0 0 0 0 127 0" result="hardAlpha"/>
            <feOffset dy="4"/>
            <feGaussianBlur stdDeviation="4"/>
            <feColorMatrix values="0 0 0 0 0.641667 0 0 0 0 0.67375 0 0 0 0 0.7 0 0 0 0.1 0"/>
            <feBlend in2="BackgroundImageFix" result="effect1_dropShadow_757_2052"/>
            <feColorMatrix in="SourceAlpha" values="0 0 0 0 0 0 0 0 0 0 0 0 0 0 0 0 0 0 127 0" result="hardAlpha"/>
            <feOffset dy="4"/>
            <feGaussianBlur stdDeviation="4"/>
            <feColorMatrix values="0 0 0 0 0.641667 0 0 0 0 0.67375 0 0 0 0 0.7 0 0 0 0.1 0"/>
            <feBlend in2="effect1_dropShadow_757_2052" result="effect2_dropShadow_757_2052"/>
            <feBlend in="SourceGraphic" in2="effect2_dropShadow_757_2052" result="shape"/>
        </filter>
    </defs>
</svg>
