<svg width="70" height="70" viewBox="0 0 70 70" fill="none" xmlns="http://www.w3.org/2000/svg">
    <path fill-rule="evenodd" clip-rule="evenodd" d="M15.785 10.193a.82.82 0 0 0-1.298.668v34.92c0 .452.368.82.82.82h48.888c.798 0 1.126-1.025.476-1.489L15.785 10.193zm5.97 10.943a.82.82 0 0 0-1.295.67v19.493c0 .453.367.82.82.82H48.75c.8 0 1.127-1.026.475-1.489L21.756 21.136z" fill="url(#3t3haoxova)"/>
    <path d="M36 60.001c-.397 0-.742-.07-1.036-.212a1.377 1.377 0 0 1-.648-.636c-.136-.28-.17-.626-.102-1.036.06-.354.174-.646.342-.877a1.98 1.98 0 0 1 .629-.555c.25-.142.522-.248.815-.318.297-.071.599-.123.906-.155.375-.039.679-.074.91-.107.234-.032.409-.081.526-.146a.427.427 0 0 0 .212-.31v-.025c.049-.307 0-.545-.147-.714-.147-.168-.391-.253-.734-.253-.359 0-.66.08-.906.237a1.491 1.491 0 0 0-.534.559l-1.338-.196c.168-.38.4-.699.693-.955a2.917 2.917 0 0 1 1.016-.579 3.833 3.833 0 0 1 2.113-.09c.288.071.543.188.763.351.223.16.386.38.49.657.106.277.123.624.053 1.04l-.698 4.194h-1.42l.147-.861h-.049c-.117.174-.269.337-.456.49-.188.15-.411.27-.67.363-.258.09-.55.134-.877.134zm.56-1.085a1.696 1.696 0 0 0 1.383-.649c.151-.195.247-.409.285-.64l.122-.738a.879.879 0 0 1-.253.106 3.684 3.684 0 0 1-.383.085c-.139.025-.276.047-.412.066l-.351.049c-.226.03-.432.078-.62.147a1.251 1.251 0 0 0-.461.285.816.816 0 0 0-.224.465c-.044.27.02.475.191.616.172.139.412.208.722.208z" fill="#39BD9E"/>
    <path d="m3 35.626 1.387-8.354h1.477l-.514 3.124h.065a3.21 3.21 0 0 1 .396-.485c.168-.174.382-.323.64-.445.258-.125.571-.188.938-.188.484 0 .9.124 1.249.372.348.245.597.608.746 1.089.15.479.167 1.066.053 1.762-.114.688-.323 1.273-.628 1.754-.305.482-.673.849-1.106 1.102-.432.253-.894.38-1.387.38-.358 0-.647-.06-.864-.18a1.408 1.408 0 0 1-.494-.433 2.112 2.112 0 0 1-.249-.485h-.094l-.163.987H3zm1.97-3.133c-.065.405-.066.76-.004 1.065.066.304.193.542.384.714.193.168.447.253.763.253.323 0 .609-.087.856-.261.25-.177.457-.418.62-.723.163-.307.278-.656.343-1.048a2.873 2.873 0 0 0 0-1.036c-.06-.302-.186-.539-.38-.71-.19-.171-.448-.257-.775-.257-.318 0-.6.083-.848.249a1.933 1.933 0 0 0-.616.697c-.163.3-.277.652-.343 1.057z" fill="#39BDA1"/>
    <path d="M14.69 57.072H31.1" stroke="#38B87B" stroke-width=".821"/>
    <path fill="#D4F4B9" stroke="#38B87B" stroke-width=".821" d="m14.42 56.12 1.06 1.06-1.06 1.06-1.06-1.06z"/>
    <path stroke="#38B87B" stroke-width=".821" d="M44.026 57.221H65.36"/>
    <path fill="#D4F4B9" stroke="#38B87B" stroke-width=".821" d="m64.41 56.119 1.06 1.06-1.06 1.061-1.06-1.06z"/>
    <path d="M6.15 45.8v-7.697" stroke="#38B87B" stroke-width=".821"/>
    <path fill="#D4F4B9" stroke="#38B87B" stroke-width=".821" d="m5.196 46.07 1.06-1.06 1.061 1.06-1.06 1.061z"/>
    <path stroke="#38B87B" stroke-width=".821" d="M6.298 24.379V9.689"/>
    <path fill="#D4F4B9" stroke="#38B87B" stroke-width=".821" d="m5.196 10.641 1.061-1.06 1.06 1.06-1.06 1.06z"/>
    <defs>
        <linearGradient id="3t3haoxova" x1="16.233" y1="12.851" x2="57.115" y2="46.483" gradientUnits="userSpaceOnUse">
            <stop stop-color="#3ABFB0"/>
            <stop offset="1" stop-color="#37B66B"/>
        </linearGradient>
    </defs>
</svg>
