<svg width="77" height="63" viewBox="0 0 77 63" fill="none" xmlns="http://www.w3.org/2000/svg">
    <path fill-rule="evenodd" clip-rule="evenodd" d="M15.581 1.454A1 1 0 0 0 14 2.267v42.557a1 1 0 0 0 1 1h59.58c.972 0 1.372-1.248.58-1.813L15.582 1.453zm7.277 13.336a1 1 0 0 0-1.579.816v23.757a1 1 0 0 0 1 1h33.477c.974 0 1.373-1.251.578-1.815L22.858 14.79z" fill="url(#i32ofv9wba)"/>
    <path d="M40.219 62.156c-.484 0-.905-.087-1.263-.259a1.678 1.678 0 0 1-.79-.776c-.166-.34-.207-.762-.125-1.262.073-.431.213-.788.418-1.07.209-.281.464-.506.766-.675a3.83 3.83 0 0 1 .994-.388c.361-.086.73-.15 1.104-.19.457-.046.827-.089 1.108-.128.285-.04.5-.1.642-.18a.52.52 0 0 0 .258-.377v-.03c.06-.374 0-.664-.179-.87-.179-.206-.477-.308-.895-.308-.437 0-.805.096-1.103.288-.299.192-.516.42-.652.681l-1.63-.238c.205-.464.487-.852.845-1.164.358-.315.77-.55 1.238-.706.47-.159.973-.238 1.506-.238.365 0 .721.043 1.07.129.35.086.66.229.929.427.271.196.47.463.596.8.13.339.151.761.065 1.269l-.85 5.11h-1.73l.179-1.049h-.06a2.749 2.749 0 0 1-.557.597c-.229.182-.5.33-.815.443-.315.109-.671.164-1.069.164zm.681-1.323a2.067 2.067 0 0 0 1.685-.79 1.71 1.71 0 0 0 .349-.78l.149-.9a1.07 1.07 0 0 1-.309.129 4.52 4.52 0 0 1-.467.104c-.169.03-.336.056-.502.08-.166.023-.308.042-.428.06a3.6 3.6 0 0 0-.755.178 1.523 1.523 0 0 0-.562.348.995.995 0 0 0-.274.567c-.053.328.025.578.234.75.209.17.502.254.88.254z" fill="#39BD9E"/>
    <path d="m0 32.447 1.69-10.181h1.8l-.626 3.808h.08c.119-.186.28-.383.481-.592.206-.212.466-.392.781-.542.315-.152.696-.228 1.143-.228.59 0 1.098.15 1.522.452.424.298.727.74.91 1.327.182.584.203 1.3.064 2.148-.139.839-.394 1.551-.765 2.138-.372.587-.82 1.034-1.348 1.342a3.292 3.292 0 0 1-1.69.463c-.438 0-.789-.073-1.054-.22a1.715 1.715 0 0 1-.602-.526 2.574 2.574 0 0 1-.303-.592H1.97l-.2 1.203H0zm2.401-3.818c-.08.494-.08.927-.005 1.298.08.371.236.661.468.87.235.205.545.308.93.308.394 0 .742-.106 1.043-.318.305-.215.557-.509.756-.88.199-.375.338-.8.418-1.278.076-.474.076-.895 0-1.263-.073-.367-.227-.656-.463-.865-.232-.208-.547-.313-.944-.313-.388 0-.733.101-1.034.303a2.355 2.355 0 0 0-.751.85A4.002 4.002 0 0 0 2.4 28.63z" fill="#39BDA1"/>
    <path d="M14.246 58.586h20" stroke="#38B87B"/>
    <path fill="#D4F4B9" stroke="#38B87B" d="m13.918 57.424 1.293 1.293-1.293 1.292-1.293-1.292z"/>
    <path stroke="#38B87B" d="M50 58.766h26"/>
    <path fill="#D4F4B9" stroke="#38B87B" d="m74.842 57.424 1.292 1.293-1.292 1.292-1.293-1.292z"/>
    <path d="M3.838 44.852V35.47" stroke="#38B87B"/>
    <path fill="#D4F4B9" stroke="#38B87B" d="m2.676 45.18 1.293-1.293L5.26 45.18 3.97 46.472z"/>
    <path stroke="#38B87B" d="M4.018 18.744V.841"/>
    <path fill="#D4F4B9" stroke="#38B87B" d="M2.676 2 3.969.707 5.26 2 3.97 3.292z"/>
    <defs>
        <linearGradient id="i32ofv9wba" x1="16.127" y1="4.693" x2="65.952" y2="45.681" gradientUnits="userSpaceOnUse">
            <stop stop-color="#3ABFB0"/>
            <stop offset="1" stop-color="#37B66B"/>
        </linearGradient>
    </defs>
</svg>
