<svg width="34" height="34" viewBox="0 0 34 34" fill="none" xmlns="http://www.w3.org/2000/svg">
    <path d="M1 17C1 8.163 8.163 1 17 1s16 7.163 16 16-7.163 16-16 16S1 25.837 1 17z" fill="#8DFDB3"/>
    <path d="M23.666 16.387V17a6.667 6.667 0 1 1-3.953-6.093m3.953.76L17 18.34l-2-2" stroke="#039855" stroke-width="1.333" stroke-linecap="round" stroke-linejoin="round"/>
    <path d="M17 32C8.716 32 2 25.284 2 17H0c0 9.389 7.611 17 17 17v-2zm15-15c0 8.284-6.716 15-15 15v2c9.389 0 17-7.611 17-17h-2zM17 2c8.284 0 15 6.716 15 15h2c0-9.389-7.611-17-17-17v2zm0-2C7.611 0 0 7.611 0 17h2C2 8.716 8.716 2 17 2V0z" fill="#BDF3C5"/>
</svg>
