<svg width="107" height="116" viewBox="0 0 107 116" fill="none" xmlns="http://www.w3.org/2000/svg">
    <rect y="17.496" width="79" height="101" rx="2" transform="rotate(-12.796 0 17.496)" fill="#D4ECD8"/>
    <rect x="10.203" y="7.494" width="79" height="101" rx="2" fill="#EDFFEF"/>
    <rect x="16.203" y="50.494" width="10" height="10" rx="3.125" fill="#56B663"/>
    <path d="m19.328 55.494 1.25 1.25 2.5-2.5" stroke="#E0F6E3" stroke-width="1.25" stroke-linecap="round" stroke-linejoin="round"/>
    <rect x="16.203" y="70.494" width="10" height="10" rx="3.125" fill="#56B663"/>
    <path d="m19.328 75.494 1.25 1.25 2.5-2.5" stroke="#E0F6E3" stroke-width="1.25" stroke-linecap="round" stroke-linejoin="round"/>
    <path stroke="#B2D9B6" stroke-width="2" stroke-linecap="round" d="M31.203 51.494h15M31.203 71.494h15M18.203 27.494h42M18.203 35.494h29M66.203 27.494h17M31.203 58.494h26M31.203 78.494h26"/>
    <path d="m73.418 88.26-10.084-6.504-2.05 11.02c-.331 1.776 1.674 3.045 3.137 1.988l8.997-6.503z" fill="#56B663"/>
    <path d="M94.23 33.856a4 4 0 0 1 5.53-1.194l3.361 2.169a3.999 3.999 0 0 1 1.193 5.53L73.418 88.26l-10.085-6.505 30.897-47.9z" fill="#4A9453"/>
    <path d="M94.23 33.856a4 4 0 0 1 5.53-1.194l3.361 2.169a3.999 3.999 0 0 1 1.193 5.53l-5.42 8.403-10.084-6.505 5.42-8.403z" fill="#E0F6E3"/>
    <path fill="#56B663" d="m90.436 39.738 10.084 6.505-3.252 5.042-10.084-6.505z"/>
</svg>
