<svg width="70" height="70" viewBox="0 0 70 70" fill="none" xmlns="http://www.w3.org/2000/svg">
    <path d="M51.911 6.178 18.09 6l16.733 9.434L51.91 6.178z" fill="url(#qm8of9q6oa)"/>
    <path d="M51.911 6.178 18.09 6l16.733 9.434L51.91 6.178z" fill="url(#lzzh3pkiyb)"/>
    <path d="m68.82 34.66-17.266 9.79-16.733-29.016 17.09-9.256 16.91 28.481z" fill="url(#non8fyi3vc)"/>
    <path d="m68.82 34.66-17.266 9.79-16.733-29.016 17.09-9.256 16.91 28.481z" fill="url(#ga92zx3fud)"/>
    <path d="M1 34.837 18.089 6l17.089 9.434-17.09 28.838L1 34.837z" fill="url(#qccwx2jyae)"/>
    <path d="M1 34.837 18.089 6l17.089 9.434-17.09 28.838L1 34.837z" fill="url(#t01d3s3m4f)"/>
    <path d="M50.843 63.32V44.575L69 34.483 50.843 63.32z" fill="url(#wyvutsndug)"/>
    <path d="M50.843 63.32V44.575L69 34.483 50.843 63.32z" fill="url(#vdk7pi6zjh)"/>
    <path d="M51.376 44.272h-33.11v19.402l32.576-.356.534-19.046z" fill="url(#6od0kaj2pi)"/>
    <path d="M51.376 44.272h-33.11v19.402l32.576-.356.534-19.046z" fill="url(#djd13q19pj)"/>
    <path d="M18.268 63.675 1 34.838l17.267 9.434v19.403z" fill="url(#t31tszqnok)"/>
    <path d="M18.268 63.675 1 34.838l17.267 9.434v19.403z" fill="url(#65udnk9opl)"/>
    <path d="m18.088 44.27 16.91-28.836L51.91 44.27H18.087z" fill="url(#5iwv730h1m)"/>
    <path d="m18.088 44.27 16.91-28.836L51.91 44.27H18.087z" fill="url(#nlwqvct7pn)"/>
    <defs>
        <linearGradient id="qm8of9q6oa" x1="35.09" y1="6.178" x2="35.09" y2="15.434" gradientUnits="userSpaceOnUse">
            <stop stop-color="#D9D9D9"/>
            <stop offset="1" stop-color="#D9D9D9" stop-opacity="0"/>
        </linearGradient>
        <linearGradient id="lzzh3pkiyb" x1="35.09" y1="6.178" x2="35.09" y2="15.434" gradientUnits="userSpaceOnUse">
            <stop stop-color="#43E1CE"/>
            <stop offset="1" stop-color="#2899CA"/>
        </linearGradient>
        <linearGradient id="non8fyi3vc" x1="51.999" y1="6.356" x2="51.999" y2="44.45" gradientUnits="userSpaceOnUse">
            <stop stop-color="#D9D9D9"/>
            <stop offset="1" stop-color="#D9D9D9" stop-opacity="0"/>
        </linearGradient>
        <linearGradient id="ga92zx3fud" x1="51.999" y1="6.356" x2="51.999" y2="44.45" gradientUnits="userSpaceOnUse">
            <stop stop-color="#43E1CE"/>
            <stop offset="1" stop-color="#2899CA"/>
        </linearGradient>
        <linearGradient id="qccwx2jyae" x1="18.089" y1="6" x2="18.089" y2="44.272" gradientUnits="userSpaceOnUse">
            <stop stop-color="#D9D9D9"/>
            <stop offset="1" stop-color="#D9D9D9" stop-opacity="0"/>
        </linearGradient>
        <linearGradient id="t01d3s3m4f" x1="18.089" y1="6" x2="18.089" y2="44.272" gradientUnits="userSpaceOnUse">
            <stop stop-color="#43E1CE"/>
            <stop offset="1" stop-color="#2899CA"/>
        </linearGradient>
        <linearGradient id="wyvutsndug" x1="59.921" y1="34.482" x2="59.921" y2="63.32" gradientUnits="userSpaceOnUse">
            <stop stop-color="#D9D9D9"/>
            <stop offset="1" stop-color="#D9D9D9" stop-opacity="0"/>
        </linearGradient>
        <linearGradient id="vdk7pi6zjh" x1="59.921" y1="34.482" x2="59.921" y2="63.32" gradientUnits="userSpaceOnUse">
            <stop stop-color="#43E1CE"/>
            <stop offset="1" stop-color="#2899CA"/>
        </linearGradient>
        <linearGradient id="6od0kaj2pi" x1="34.821" y1="44.272" x2="34.821" y2="63.674" gradientUnits="userSpaceOnUse">
            <stop stop-color="#D9D9D9"/>
            <stop offset="1" stop-color="#D9D9D9" stop-opacity="0"/>
        </linearGradient>
        <linearGradient id="djd13q19pj" x1="34.821" y1="44.272" x2="34.821" y2="63.674" gradientUnits="userSpaceOnUse">
            <stop stop-color="#43E1CE"/>
            <stop offset="1" stop-color="#2899CA"/>
        </linearGradient>
        <linearGradient id="t31tszqnok" x1="9.812" y1="35.194" x2="9.812" y2="64.031" gradientUnits="userSpaceOnUse">
            <stop stop-color="#D9D9D9"/>
            <stop offset="1" stop-color="#D9D9D9" stop-opacity="0"/>
        </linearGradient>
        <linearGradient id="65udnk9opl" x1="9.812" y1="35.194" x2="9.812" y2="64.031" gradientUnits="userSpaceOnUse">
            <stop stop-color="#43E1CE"/>
            <stop offset="1" stop-color="#2899CA"/>
        </linearGradient>
        <linearGradient id="5iwv730h1m" x1="34.999" y1="15.434" x2="34.999" y2="44.271" gradientUnits="userSpaceOnUse">
            <stop stop-color="#D9D9D9"/>
            <stop offset="1" stop-color="#D9D9D9" stop-opacity="0"/>
        </linearGradient>
        <linearGradient id="nlwqvct7pn" x1="34.999" y1="15.434" x2="34.999" y2="44.271" gradientUnits="userSpaceOnUse">
            <stop stop-color="#43E1CE"/>
            <stop offset="1" stop-color="#2899CA"/>
        </linearGradient>
    </defs>
</svg>
