<svg width="469" height="295" viewBox="0 0 469 295" fill="none" xmlns="http://www.w3.org/2000/svg">
    <g filter="url(#y5njcqzwea)">
        <g filter="url(#y9xpxspd0b)">
            <rect x="68.216" y="18" width="365.784" height="187.528" rx="14" fill="#fff"/>
        </g>
        <path d="M87.418 50.289v-9.97h4.21c.097 0 .226.005.388.014.166.005.313.019.443.042.595.092 1.082.288 1.46.588.384.3.665.679.845 1.136.18.452.27.957.27 1.516a4.03 4.03 0 0 1-.277 1.523c-.18.452-.461.829-.844 1.129-.379.3-.864.496-1.454.588a7.485 7.485 0 0 1-.83.055H89.3v3.379h-1.884zm1.884-5.137h2.243c.097 0 .203-.005.318-.014.116-.01.222-.028.319-.055.254-.07.45-.185.588-.347.139-.166.233-.348.284-.546.055-.204.083-.395.083-.575 0-.18-.028-.37-.083-.568a1.323 1.323 0 0 0-.284-.547 1.125 1.125 0 0 0-.588-.353 1.632 1.632 0 0 0-.319-.055 4.034 4.034 0 0 0-.318-.014h-2.243v3.074zm7.122 5.137v-7.477h1.662v1.828l-.18-.236c.097-.258.226-.494.388-.706.161-.212.36-.388.595-.526.18-.111.376-.196.589-.256.212-.065.431-.104.657-.118.226-.019.452-.014.679.014v1.758a1.913 1.913 0 0 0-.727-.062c-.273.018-.52.08-.741.187a1.677 1.677 0 0 0-.907 1.004 2.335 2.335 0 0 0-.118.768v3.822h-1.897zm8.936.208c-.752 0-1.412-.169-1.98-.506a3.532 3.532 0 0 1-1.329-1.391c-.314-.596-.471-1.279-.471-2.05 0-.78.162-1.465.485-2.056a3.523 3.523 0 0 1 1.336-1.392c.568-.332 1.221-.498 1.959-.498.752 0 1.413.169 1.98.505a3.504 3.504 0 0 1 1.336 1.399c.319.59.478 1.271.478 2.042 0 .776-.161 1.461-.484 2.057a3.525 3.525 0 0 1-1.337 1.391c-.567.333-1.225.499-1.973.499zm0-1.759c.605 0 1.055-.203 1.35-.61.3-.41.45-.936.45-1.578 0-.664-.152-1.195-.457-1.592-.3-.397-.747-.595-1.343-.595-.411 0-.748.092-1.011.276a1.65 1.65 0 0 0-.588.769 3.196 3.196 0 0 0-.187 1.142c0 .67.15 1.203.45 1.6.305.392.75.588 1.336.588zm8.515 5.082c-.424 0-.828-.07-1.211-.208a3.456 3.456 0 0 1-1.032-.568c-.3-.24-.545-.521-.734-.844l1.745-.845c.12.222.291.39.512.506.226.115.471.173.734.173.282 0 .547-.049.796-.146.249-.092.448-.233.596-.422a.994.994 0 0 0 .214-.692V48.6h.236v-5.788h1.647v7.99c0 .184-.009.357-.027.519a3.03 3.03 0 0 1-.083.491c-.12.457-.344.833-.672 1.129-.323.295-.72.514-1.191.657a5.089 5.089 0 0 1-1.53.222zm-.166-3.323c-.688 0-1.29-.173-1.807-.52a3.52 3.52 0 0 1-1.212-1.412c-.286-.595-.429-1.267-.429-2.015 0-.761.146-1.437.436-2.028a3.467 3.467 0 0 1 1.24-1.406c.53-.341 1.154-.512 1.869-.512.711 0 1.308.173 1.793.52.485.345.852.816 1.101 1.412.249.595.374 1.267.374 2.014 0 .748-.127 1.42-.381 2.015a3.157 3.157 0 0 1-1.122 1.412c-.498.347-1.119.52-1.862.52zm.305-1.676c.42 0 .754-.094 1.004-.284.253-.189.436-.454.547-.796.11-.341.166-.738.166-1.19 0-.453-.056-.85-.166-1.192-.111-.341-.289-.606-.534-.796-.24-.189-.556-.284-.948-.284-.42 0-.766.104-1.039.312a1.795 1.795 0 0 0-.595.824c-.129.342-.194.72-.194 1.135 0 .42.062.803.187 1.15.125.341.316.613.575.817.258.203.591.304.997.304zm5.303 1.468v-7.477h1.662v1.828l-.18-.236c.097-.258.226-.494.388-.706.161-.212.36-.388.595-.526.18-.111.376-.196.588-.256.213-.065.432-.104.658-.118.226-.019.453-.014.679.014v1.758a1.913 1.913 0 0 0-.727-.062c-.273.018-.52.08-.741.187a1.67 1.67 0 0 0-.907 1.004 2.348 2.348 0 0 0-.118.768v3.822h-1.897zm9.047.208c-.766 0-1.442-.164-2.029-.492a3.635 3.635 0 0 1-1.37-1.364c-.328-.581-.492-1.246-.492-1.994 0-.817.162-1.527.485-2.132a3.5 3.5 0 0 1 1.336-1.406c.568-.337 1.221-.505 1.959-.505.785 0 1.452.185 2.001.554.549.37.955.888 1.219 1.558.263.669.355 1.456.276 2.36h-1.862v-.692c0-.761-.122-1.308-.367-1.64-.24-.338-.634-.506-1.184-.506-.641 0-1.114.196-1.419.588-.3.388-.45.963-.45 1.724 0 .697.15 1.237.45 1.62.305.379.75.568 1.336.568.369 0 .686-.08.949-.242.263-.162.464-.395.602-.7l1.883.54a3.305 3.305 0 0 1-1.336 1.593 3.673 3.673 0 0 1-1.987.568zm-2.479-3.42v-1.399h4.958v1.399h-4.958zm10.349 3.42c-.941 0-1.703-.213-2.284-.637-.577-.43-.928-1.034-1.053-1.814l1.925-.291c.078.35.252.625.519.824.273.198.616.298 1.032.298.341 0 .605-.065.789-.194a.646.646 0 0 0 .277-.554.53.53 0 0 0-.111-.353c-.074-.093-.24-.183-.498-.27a18.667 18.667 0 0 0-1.191-.346c-.609-.157-1.096-.333-1.461-.527-.364-.193-.628-.424-.789-.692-.162-.272-.242-.6-.242-.983 0-.48.122-.895.367-1.246.244-.356.588-.628 1.031-.817.448-.194.974-.291 1.579-.291.586 0 1.105.09 1.557.27.453.18.817.436 1.094.768.282.333.455.725.52 1.177l-1.925.347a.933.933 0 0 0-.36-.658c-.208-.162-.489-.256-.845-.284-.346-.023-.625.023-.838.139-.207.115-.311.281-.311.498 0 .13.044.238.131.325.093.088.28.178.561.27.286.093.72.213 1.302.36.568.148 1.022.321 1.364.52.346.194.597.429.754.706.157.272.236.602.236.99 0 .766-.277 1.368-.831 1.807-.554.438-1.32.658-2.299.658zm7.573 0c-.942 0-1.703-.213-2.285-.637-.577-.43-.928-1.034-1.052-1.814l1.924-.291c.079.35.252.625.52.824.272.198.616.298 1.031.298.342 0 .605-.065.79-.194a.647.647 0 0 0 .276-.554.53.53 0 0 0-.11-.353c-.074-.093-.24-.183-.499-.27a18.667 18.667 0 0 0-1.191-.346c-.609-.157-1.096-.333-1.46-.527-.365-.193-.628-.424-.79-.692-.161-.272-.242-.6-.242-.983 0-.48.122-.895.367-1.246a2.32 2.32 0 0 1 1.032-.817c.447-.194.973-.291 1.578-.291.586 0 1.105.09 1.558.27.452.18.817.436 1.094.768.281.333.454.725.519 1.177l-1.925.347a.933.933 0 0 0-.36-.658c-.207-.162-.489-.256-.844-.284-.347-.023-.626.023-.838.139-.208.115-.312.281-.312.498 0 .13.044.238.132.325.092.088.279.178.561.27.286.093.72.213 1.301.36.568.148 1.023.321 1.364.52.346.194.598.429.755.706.157.272.235.602.235.99 0 .766-.277 1.368-.831 1.807-.554.438-1.32.658-2.298.658zm6.315 3.115v-1.758h.332c.429 0 .723-.097.879-.291.162-.194.243-.471.243-.831v-7.92h1.883v8.834c0 .595-.187 1.07-.561 1.426-.369.36-.87.54-1.502.54h-1.274zm1.454-11.839v-1.661h1.883v1.661h-1.883zm7.183 8.724c-.752 0-1.412-.169-1.98-.506a3.532 3.532 0 0 1-1.329-1.391c-.314-.596-.471-1.279-.471-2.05 0-.78.162-1.465.485-2.056a3.523 3.523 0 0 1 1.336-1.392c.568-.332 1.221-.498 1.959-.498.753 0 1.413.169 1.98.505a3.504 3.504 0 0 1 1.336 1.399c.319.59.478 1.271.478 2.042 0 .776-.161 1.461-.484 2.057a3.525 3.525 0 0 1-1.337 1.391c-.567.333-1.225.499-1.973.499zm0-1.759c.605 0 1.055-.203 1.35-.61.3-.41.45-.936.45-1.578 0-.664-.152-1.195-.457-1.592-.3-.397-.747-.595-1.343-.595-.411 0-.748.092-1.011.276a1.65 1.65 0 0 0-.588.769 3.196 3.196 0 0 0-.187 1.142c0 .67.15 1.203.45 1.6.305.392.75.588 1.336.588zm8.1 1.773c-.586 0-1.064-.1-1.433-.298a2.39 2.39 0 0 1-.866-.755 3.203 3.203 0 0 1-.436-.948 4.818 4.818 0 0 1-.159-.907 9.495 9.495 0 0 1-.028-.596v-4.195h1.911v3.53c0 .171.009.39.028.658.018.263.076.529.173.797.097.267.254.491.471.671.221.18.533.27.934.27.162 0 .335-.025.52-.076.184-.05.357-.148.519-.29.161-.148.293-.363.394-.645.107-.286.16-.66.16-1.121l1.08.512c0 .59-.12 1.145-.36 1.662-.24.517-.603.934-1.087 1.253-.48.318-1.087.477-1.821.477zm2.423-.222V47.81h-.235v-4.998h1.897v7.477h-1.662zm3.597 0v-7.477h1.661v1.828l-.18-.236c.097-.258.226-.494.388-.706.161-.212.36-.388.595-.526.18-.111.376-.196.589-.256.212-.065.431-.104.658-.118.226-.019.452-.014.678.014v1.758a1.913 1.913 0 0 0-.727-.062c-.272.018-.519.08-.741.187a1.69 1.69 0 0 0-.907 1.004 2.349 2.349 0 0 0-.117.768v3.822h-1.897zm10.802 0v-3.531c0-.17-.01-.388-.028-.65a2.964 2.964 0 0 0-.173-.804 1.512 1.512 0 0 0-.478-.671c-.217-.18-.526-.27-.928-.27-.161 0-.334.025-.519.076a1.26 1.26 0 0 0-.519.297c-.162.144-.296.356-.402.637-.101.282-.152.656-.152 1.122l-1.08-.512c0-.591.12-1.145.36-1.662.24-.517.6-.935 1.08-1.253.485-.319 1.094-.478 1.828-.478.586 0 1.064.1 1.433.298.369.198.655.45.858.755.208.304.356.623.443.955.088.328.141.628.16.9.018.272.027.47.027.595v4.196h-1.91zm-5.11 0v-7.477h1.676v2.478h.235v4.999h-1.911zm12.157.208c-.766 0-1.442-.164-2.028-.492a3.63 3.63 0 0 1-1.371-1.364c-.328-.581-.492-1.246-.492-1.994 0-.817.162-1.527.485-2.132a3.5 3.5 0 0 1 1.336-1.406c.568-.337 1.221-.505 1.959-.505.785 0 1.452.185 2.001.554.55.37.956.888 1.219 1.558.263.669.355 1.456.277 2.36h-1.863v-.692c0-.761-.122-1.308-.367-1.64-.24-.338-.634-.506-1.183-.506-.642 0-1.115.196-1.42.588-.3.388-.45.963-.45 1.724 0 .697.15 1.237.45 1.62.305.379.75.568 1.336.568.37 0 .686-.08.949-.242.263-.162.464-.395.602-.7l1.883.54a3.305 3.305 0 0 1-1.336 1.593 3.67 3.67 0 0 1-1.987.568zm-2.478-3.42v-1.399h4.957v1.399h-4.957zm8.247 6.535 1.44-3.96.028 1.163-3.254-8.003h1.952l2.188 5.663h-.443l2.174-5.663h1.883l-4.223 10.8h-1.745z" fill="#1F1F1F"/>
        <g opacity=".2" clip-path="url(#1w1q2rurbc)" stroke="#000" stroke-width=".962" stroke-linecap="round" stroke-linejoin="round">
            <path d="M213.834 50.097a4.807 4.807 0 1 0 .001-9.615 4.807 4.807 0 0 0-.001 9.615zM213.834 47.212V45.29M213.834 43.366h.005"/>
        </g>
        <path d="M273.597 176.797v-5.816h1.114l2.528 3.877v-3.877h1.115v5.816h-1.115l-2.528-3.877v3.877h-1.114zm7.847.121c-.439 0-.824-.098-1.155-.295a2.063 2.063 0 0 1-.776-.812 2.522 2.522 0 0 1-.274-1.195c0-.455.094-.855.282-1.199a2.06 2.06 0 0 1 .78-.812 2.218 2.218 0 0 1 1.143-.291c.439 0 .824.098 1.155.295.334.196.594.468.779.816.186.344.279.741.279 1.191 0 .452-.094.852-.283 1.199a2.043 2.043 0 0 1-.779.812 2.235 2.235 0 0 1-1.151.291zm0-1.026c.353 0 .615-.118.787-.355.175-.24.263-.547.263-.921 0-.388-.089-.697-.267-.929-.175-.231-.436-.347-.783-.347-.24 0-.436.054-.59.161a.963.963 0 0 0-.343.449 1.86 1.86 0 0 0-.109.666c0 .39.087.701.262.933.178.229.438.343.78.343zm5.718.905a4.22 4.22 0 0 1-.888.073 2.149 2.149 0 0 1-.776-.15 1.054 1.054 0 0 1-.517-.464 1.342 1.342 0 0 1-.169-.606 24.829 24.829 0 0 1-.008-.703v-3.723h1.098v3.659c0 .169.001.323.004.46a.655.655 0 0 0 .085.323c.097.154.252.237.464.25.213.014.449.003.707-.032v.913zm-3.102-3.514v-.848h3.102v.848h-3.102zm5.865 3.635c-.447 0-.842-.096-1.183-.287a2.12 2.12 0 0 1-.8-.795 2.332 2.332 0 0 1-.287-1.163c0-.477.094-.892.283-1.244a2.04 2.04 0 0 1 .779-.82 2.192 2.192 0 0 1 1.143-.295c.458 0 .847.108 1.167.323.321.215.558.518.711.909.154.39.208.849.162 1.377h-1.087v-.404c0-.444-.071-.763-.214-.957-.14-.197-.37-.295-.69-.295-.375 0-.651.115-.828.343-.175.227-.263.562-.263 1.006 0 .407.088.722.263.945.177.221.437.331.779.331.216 0 .4-.047.554-.141a.903.903 0 0 0 .351-.408l1.098.315a1.933 1.933 0 0 1-.779.929 2.14 2.14 0 0 1-1.159.331zm-1.446-1.995v-.816h2.892v.816h-2.892zm4.656 1.268v-.791h.791v.791h-.791zm.004-2.358v-.792h.791v.792h-.791z" fill="#1F1F1F"/>
        <path d="M298.459 176.797v-5.133h-1.983v-.683h4.685v.683h-1.983v5.133h-.719zm4.556.121c-.434 0-.808-.098-1.123-.295a1.952 1.952 0 0 1-.723-.816 2.695 2.695 0 0 1-.254-1.195c0-.458.086-.859.258-1.204.173-.344.416-.612.731-.803.315-.194.685-.291 1.111-.291.436 0 .812.098 1.127.295.315.194.556.464.723.812.169.344.254.741.254 1.191 0 .455-.085.856-.254 1.203-.17.345-.412.616-.727.812-.315.194-.69.291-1.123.291zm0-.682c.452 0 .789-.151 1.01-.453.22-.301.331-.692.331-1.171 0-.493-.112-.884-.336-1.175-.223-.294-.558-.44-1.005-.44-.304 0-.555.068-.751.206a1.231 1.231 0 0 0-.441.569 2.267 2.267 0 0 0-.145.84c0 .49.113.883.339 1.179.226.296.559.445.998.445zm5.85.682c-.326 0-.599-.059-.82-.178a1.275 1.275 0 0 1-.497-.476 1.302 1.302 0 0 1-.165-.646c0-.229.043-.427.129-.594.089-.17.213-.31.372-.42.159-.113.348-.202.569-.267.207-.056.439-.105.695-.145.258-.043.519-.082.783-.117s.51-.069.739-.101l-.258.149c.008-.387-.07-.674-.234-.86-.162-.186-.442-.279-.84-.279-.264 0-.496.061-.695.182-.197.119-.335.312-.416.582l-.683-.206c.105-.383.309-.683.61-.901.302-.218.699-.327 1.192-.327.395 0 .735.071 1.017.214.286.14.49.353.614.638.062.135.101.282.117.44.017.157.025.321.025.493v2.698h-.638v-1.046l.149.097a1.785 1.785 0 0 1-.691.799c-.293.181-.651.271-1.074.271zm.109-.602c.259 0 .482-.045.671-.137.191-.094.344-.217.46-.368.116-.153.191-.32.226-.5.04-.135.062-.284.065-.449.005-.167.008-.294.008-.383l.25.109-.69.093a14.58 14.58 0 0 0-.643.097 4.683 4.683 0 0 0-.545.117c-.118.037-.23.086-.335.145a.757.757 0 0 0-.25.23.6.6 0 0 0-.093.344c0 .118.029.231.089.339a.684.684 0 0 0 .282.262c.13.068.298.101.505.101zm5.032.602c-.441 0-.817-.098-1.127-.295a1.914 1.914 0 0 1-.702-.82 2.87 2.87 0 0 1-.251-1.187c.006-.455.091-.855.255-1.199.167-.348.405-.618.715-.812.309-.194.682-.291 1.118-.291.461 0 .856.113 1.188.339.334.226.557.536.67.929l-.711.214a1.165 1.165 0 0 0-.448-.589c-.205-.14-.44-.21-.707-.21-.299 0-.545.07-.739.21a1.211 1.211 0 0 0-.432.573 2.34 2.34 0 0 0-.145.836c.005.485.117.876.335 1.175.221.296.548.445.981.445.286 0 .523-.065.711-.194.188-.132.331-.322.428-.57l.727.19c-.151.407-.386.718-.707.933-.32.215-.706.323-1.159.323zm5.796-.121v-2.185c0-.207-.019-.407-.057-.598a1.513 1.513 0 0 0-.189-.513.983.983 0 0 0-.364-.363 1.115 1.115 0 0 0-.573-.133c-.181 0-.345.031-.493.092a.975.975 0 0 0-.376.275c-.105.124-.187.28-.246.469a2.285 2.285 0 0 0-.085.658l-.472-.145c0-.423.075-.785.226-1.087a1.65 1.65 0 0 1 .642-.699c.277-.164.603-.246.977-.246.283 0 .524.045.723.133.2.089.365.208.497.356.132.145.236.309.311.492.075.181.128.365.158.554.032.186.048.362.048.529v2.411h-.727zm-3.11 0v-5.816h.646v3.211h.081v2.605h-.727zm4.968-5.133v-.743h.719v.743h-.719zm0 5.133v-4.362h.719v4.362h-.719zm3.82.121c-.428 0-.802-.094-1.122-.283a1.972 1.972 0 0 1-.743-.795c-.178-.342-.267-.741-.267-1.196 0-.476.088-.888.263-1.236.175-.35.418-.619.731-.807a2.09 2.09 0 0 1 1.106-.287c.439 0 .812.101 1.119.303.309.202.541.49.694.864.157.374.224.82.202 1.337h-.727v-.259c-.008-.535-.117-.935-.327-1.199-.21-.267-.522-.4-.937-.4-.444 0-.782.143-1.013.428-.232.286-.348.695-.348 1.228 0 .514.116.913.348 1.195.231.283.561.425.989.425.288 0 .539-.066.751-.198.213-.132.38-.322.501-.57l.691.238c-.17.385-.426.684-.768.897-.339.21-.72.315-1.143.315zm-1.611-2.1v-.578h3.223v.578h-3.223zm5.515 1.979-1.583-4.362h.727l1.224 3.445 1.219-3.445h.731l-1.583 4.362h-.735zm4.781.121c-.428 0-.802-.094-1.123-.283a1.986 1.986 0 0 1-.743-.795c-.177-.342-.266-.741-.266-1.196 0-.476.087-.888.262-1.236.175-.35.419-.619.731-.807a2.093 2.093 0 0 1 1.107-.287c.439 0 .812.101 1.118.303.31.202.542.49.695.864.156.374.224.82.202 1.337h-.727v-.259c-.008-.535-.117-.935-.327-1.199-.21-.267-.522-.4-.937-.4-.444 0-.782.143-1.014.428-.231.286-.347.695-.347 1.228 0 .514.116.913.347 1.195.232.283.562.425.99.425.288 0 .538-.066.751-.198.213-.132.38-.322.501-.57l.69.238a1.954 1.954 0 0 1-.767.897c-.339.21-.72.315-1.143.315zm-1.611-2.1v-.578h3.222v.578h-3.222zm8.546 1.979a3.236 3.236 0 0 1-.768.06 1.69 1.69 0 0 1-.67-.149.968.968 0 0 1-.449-.436 1.29 1.29 0 0 1-.141-.521 21.465 21.465 0 0 1-.008-.602v-3.925h.719v3.893c0 .178.001.33.004.456a.718.718 0 0 0 .085.327c.097.173.25.274.46.303.213.03.469.022.768-.024v.618zm-2.92-3.768v-.594h2.92v.594h-2.92zm6.911 3.768v-2.185c0-.207-.019-.407-.057-.598a1.493 1.493 0 0 0-.19-.513.98.98 0 0 0-.363-.363 1.116 1.116 0 0 0-.574-.133c-.18 0-.344.031-.492.092a.968.968 0 0 0-.376.275c-.105.124-.187.28-.246.469a2.251 2.251 0 0 0-.085.658l-.473-.145c0-.423.076-.785.227-1.087a1.65 1.65 0 0 1 .642-.699c.277-.164.603-.246.977-.246.283 0 .524.045.723.133.199.089.365.208.497.356.132.145.235.309.311.492.075.181.128.365.157.554.033.186.049.362.049.529v2.411h-.727zm-3.11 0v-5.816h.646v3.211h.081v2.605h-.727zm6.777.121c-.428 0-.803-.094-1.123-.283a1.979 1.979 0 0 1-.743-.795c-.178-.342-.267-.741-.267-1.196 0-.476.088-.888.263-1.236.175-.35.419-.619.731-.807a2.092 2.092 0 0 1 1.106-.287c.439 0 .812.101 1.119.303.31.202.541.49.695.864.156.374.223.82.202 1.337h-.727v-.259c-.008-.535-.117-.935-.327-1.199-.21-.267-.523-.4-.937-.4-.445 0-.782.143-1.014.428-.232.286-.347.695-.347 1.228 0 .514.115.913.347 1.195.232.283.561.425.989.425.289 0 .539-.066.752-.198.212-.132.379-.322.5-.57l.691.238a1.96 1.96 0 0 1-.767.897c-.34.21-.721.315-1.143.315zm-1.612-2.1v-.578h3.223v.578h-3.223zm6.192-3.154v-.743h.719v.743h-.719zm0 5.133v-4.362h.719v4.362h-.719zm3.643.121c-.407 0-.756-.101-1.046-.303a2.003 2.003 0 0 1-.675-.828 2.837 2.837 0 0 1-.234-1.175c0-.436.078-.828.234-1.175.159-.348.384-.621.675-.82.29-.202.638-.303 1.042-.303.412 0 .758.1 1.038.299.28.199.491.472.634.82.145.347.218.74.218 1.179 0 .433-.073.825-.218 1.175a1.882 1.882 0 0 1-.634.828c-.28.202-.625.303-1.034.303zm.089-.658c.293 0 .534-.07.722-.21.189-.143.328-.338.416-.586.092-.25.138-.534.138-.852 0-.323-.046-.607-.138-.852a1.195 1.195 0 0 0-.412-.578c-.185-.14-.421-.21-.706-.21-.296 0-.541.073-.735.218a1.305 1.305 0 0 0-.428.59 2.377 2.377 0 0 0-.138.832c0 .31.047.59.142.84.094.248.235.444.424.59.191.145.429.218.715.218zm1.276.537v-3.211h-.081v-2.605h.723v5.816h-.642zm3.663.121c-.428 0-.802-.094-1.122-.283a1.972 1.972 0 0 1-.743-.795c-.178-.342-.267-.741-.267-1.196 0-.476.088-.888.263-1.236.175-.35.418-.619.731-.807a2.09 2.09 0 0 1 1.106-.287c.439 0 .812.101 1.119.303.309.202.541.49.695.864.156.374.223.82.201 1.337h-.727v-.259c-.008-.535-.117-.935-.327-1.199-.21-.267-.522-.4-.937-.4-.444 0-.782.143-1.013.428-.232.286-.348.695-.348 1.228 0 .514.116.913.348 1.195.231.283.561.425.989.425.288 0 .539-.066.751-.198.213-.132.38-.322.501-.57l.691.238c-.17.385-.426.684-.768.897-.339.21-.72.315-1.143.315zm-1.611-2.1v-.578h3.223v.578h-3.223zm5.655 2.1c-.326 0-.599-.059-.82-.178a1.268 1.268 0 0 1-.497-.476 1.303 1.303 0 0 1-.166-.646c0-.229.043-.427.13-.594.088-.17.212-.31.371-.42.159-.113.349-.202.57-.267.207-.056.439-.105.694-.145.259-.043.52-.082.784-.117s.51-.069.739-.101l-.259.149c.008-.387-.07-.674-.234-.86-.161-.186-.441-.279-.84-.279-.264 0-.495.061-.695.182-.196.119-.335.312-.416.582l-.682-.206c.105-.383.308-.683.61-.901.301-.218.698-.327 1.191-.327.396 0 .735.071 1.018.214.285.14.49.353.614.638.062.135.101.282.117.44.016.157.024.321.024.493v2.698h-.638v-1.046l.149.097a1.783 1.783 0 0 1-.69.799c-.294.181-.652.271-1.074.271zm.109-.602c.258 0 .482-.045.67-.137.191-.094.345-.217.46-.368a1.2 1.2 0 0 0 .227-.5c.04-.135.062-.284.064-.449.006-.167.008-.294.008-.383l.251.109-.691.093c-.226.029-.44.062-.642.097a4.638 4.638 0 0 0-.545.117 1.73 1.73 0 0 0-.335.145.76.76 0 0 0-.251.23.6.6 0 0 0-.093.344c0 .118.03.231.089.339a.687.687 0 0 0 .283.262c.129.068.297.101.505.101zm3.275.481v-5.937h.719v5.937h-.719zm5.551.121c-.409 0-.754-.101-1.034-.303a1.905 1.905 0 0 1-.638-.828 3.082 3.082 0 0 1-.214-1.175c0-.439.071-.832.214-1.179.145-.348.358-.621.638-.82.283-.199.629-.299 1.038-.299.404 0 .751.101 1.042.303.293.199.518.472.674.82.156.347.234.739.234 1.175 0 .436-.078.828-.234 1.175a1.964 1.964 0 0 1-.674.828c-.291.202-.64.303-1.046.303zm-2.007 1.817v-6.3h.642v3.211h.08v3.089h-.722zm1.918-2.475c.288 0 .526-.073.715-.218a1.32 1.32 0 0 0 .424-.59c.094-.25.141-.53.141-.84a2.33 2.33 0 0 0-.141-.832 1.27 1.27 0 0 0-.428-.59c-.191-.145-.435-.218-.731-.218-.283 0-.517.07-.703.21-.186.138-.324.33-.416.578a2.417 2.417 0 0 0-.137.852c0 .318.044.602.133.852.092.248.232.443.42.586.188.14.429.21.723.21zm4.169.658c-.326 0-.599-.059-.82-.178a1.268 1.268 0 0 1-.497-.476 1.303 1.303 0 0 1-.166-.646c0-.229.044-.427.13-.594.089-.17.212-.31.371-.42.159-.113.349-.202.57-.267.207-.056.439-.105.694-.145.259-.043.52-.082.784-.117s.51-.069.739-.101l-.259.149c.009-.387-.07-.674-.234-.86-.161-.186-.441-.279-.84-.279-.264 0-.495.061-.694.182-.197.119-.336.312-.416.582l-.683-.206c.105-.383.308-.683.61-.901.301-.218.699-.327 1.191-.327.396 0 .735.071 1.018.214.285.14.49.353.614.638.062.135.101.282.117.44.016.157.024.321.024.493v2.698h-.638v-1.046l.15.097a1.79 1.79 0 0 1-.691.799c-.294.181-.652.271-1.074.271zm.109-.602c.258 0 .482-.045.67-.137a1.21 1.21 0 0 0 .687-.868c.04-.135.062-.284.064-.449.006-.167.008-.294.008-.383l.251.109-.691.093c-.226.029-.44.062-.642.097a4.638 4.638 0 0 0-.545.117 1.73 1.73 0 0 0-.335.145.76.76 0 0 0-.251.23.6.6 0 0 0-.093.344c0 .118.03.231.089.339a.687.687 0 0 0 .283.262c.129.068.297.101.505.101zm5.032.602c-.442 0-.817-.098-1.127-.295a1.917 1.917 0 0 1-.703-.82 2.87 2.87 0 0 1-.25-1.187c.005-.455.09-.855.254-1.199.167-.348.406-.618.715-.812.31-.194.683-.291 1.119-.291.46 0 .856.113 1.187.339.334.226.558.536.671.929l-.711.214a1.17 1.17 0 0 0-.448-.589 1.224 1.224 0 0 0-.707-.21c-.299 0-.545.07-.739.21a1.211 1.211 0 0 0-.432.573 2.34 2.34 0 0 0-.146.836c.006.485.117.876.335 1.175.221.296.548.445.982.445.285 0 .522-.065.711-.194.188-.132.331-.322.428-.57l.727.19c-.151.407-.387.718-.707.933-.32.215-.707.323-1.159.323zm4.462 0c-.428 0-.803-.094-1.123-.283a1.979 1.979 0 0 1-.743-.795c-.178-.342-.267-.741-.267-1.196 0-.476.088-.888.263-1.236.175-.35.418-.619.731-.807a2.092 2.092 0 0 1 1.106-.287c.439 0 .812.101 1.119.303.31.202.541.49.695.864.156.374.223.82.202 1.337h-.727v-.259c-.008-.535-.117-.935-.327-1.199-.21-.267-.523-.4-.937-.4-.445 0-.783.143-1.014.428-.232.286-.347.695-.347 1.228 0 .514.115.913.347 1.195.231.283.561.425.989.425a1.4 1.4 0 0 0 .752-.198c.212-.132.379-.322.5-.57l.691.238a1.96 1.96 0 0 1-.767.897c-.34.21-.721.315-1.143.315zm-1.612-2.1v-.578h3.223v.578h-3.223zm6.717 3.917.844-2.294.012.679-1.906-4.685h.755l1.494 3.768h-.258l1.401-3.768h.731l-2.375 6.3h-.698zm5.44-1.817c-.433 0-.808-.098-1.123-.295a1.952 1.952 0 0 1-.723-.816 2.695 2.695 0 0 1-.254-1.195c0-.458.086-.859.258-1.204.173-.344.416-.612.731-.803.315-.194.686-.291 1.111-.291.436 0 .812.098 1.127.295.315.194.556.464.723.812.169.344.254.741.254 1.191 0 .455-.085.856-.254 1.203-.17.345-.412.616-.727.812-.315.194-.689.291-1.123.291zm0-.682c.452 0 .789-.151 1.01-.453.221-.301.331-.692.331-1.171 0-.493-.112-.884-.335-1.175-.224-.294-.559-.44-1.006-.44-.304 0-.555.068-.751.206a1.23 1.23 0 0 0-.44.569 2.246 2.246 0 0 0-.146.84c0 .49.113.883.34 1.179.226.296.558.445.997.445zm4.649.674c-.28 0-.521-.044-.723-.133a1.444 1.444 0 0 1-.496-.356 1.742 1.742 0 0 1-.311-.492 2.505 2.505 0 0 1-.162-.554 3.366 3.366 0 0 1-.044-.529v-2.411h.727v2.185c0 .205.018.403.056.594.038.191.101.363.19.517.091.153.213.274.363.363.154.089.345.133.574.133.18 0 .345-.031.493-.092.148-.062.274-.154.379-.275.105-.124.186-.28.243-.469.056-.188.084-.407.084-.658l.473.146c0 .42-.077.782-.23 1.086a1.652 1.652 0 0 1-.642.703c-.275.161-.6.242-.974.242zm1.454-.113v-1.167h-.081v-3.195h.723v4.362h-.642zm-128.617 13v-2.185c0-.207-.018-.407-.056-.598a1.493 1.493 0 0 0-.19-.513.988.988 0 0 0-.363-.363 1.116 1.116 0 0 0-.574-.133c-.18 0-.345.031-.493.092a.972.972 0 0 0-.375.275c-.105.124-.187.28-.247.469a2.288 2.288 0 0 0-.084.658l-.473-.145c0-.423.075-.785.226-1.087.154-.304.368-.537.642-.699.278-.164.603-.246.978-.246.282 0 .523.045.723.133.199.089.364.208.496.356.132.145.236.309.311.492.076.181.128.365.158.554.032.186.048.362.048.529v2.411h-.727zm-3.109 0v-5.816h.646v3.211h.081v2.605h-.727zm6.126.121c-.326 0-.599-.059-.82-.178a1.265 1.265 0 0 1-.496-.476 1.292 1.292 0 0 1-.166-.646c0-.229.043-.427.129-.594.089-.17.213-.31.372-.42.159-.113.348-.202.569-.267.208-.056.439-.105.695-.145.258-.043.519-.082.783-.117s.511-.069.739-.101l-.258.149c.008-.387-.07-.674-.234-.86-.162-.186-.442-.279-.84-.279-.264 0-.496.061-.695.182-.197.119-.335.312-.416.582l-.682-.206c.105-.383.308-.683.609-.901.302-.218.699-.327 1.192-.327.396 0 .735.071 1.017.214.286.14.49.353.614.638.062.135.101.282.117.44.017.157.025.321.025.493v2.698h-.638v-1.046l.149.097a1.779 1.779 0 0 1-.691.799c-.293.181-.651.271-1.074.271zm.109-.602c.259 0 .482-.045.671-.137.191-.094.344-.217.46-.368.116-.153.191-.32.226-.5.041-.135.062-.284.065-.449.005-.167.008-.294.008-.383l.25.109-.69.093c-.227.029-.441.062-.642.097a4.702 4.702 0 0 0-.546.117c-.118.037-.23.086-.335.145a.757.757 0 0 0-.25.23.6.6 0 0 0-.093.344c0 .118.029.231.089.339a.69.69 0 0 0 .282.262c.13.068.298.101.505.101zm4.216.481-1.583-4.362h.727l1.224 3.445 1.219-3.445h.731l-1.583 4.362h-.735zm4.781.121c-.428 0-.802-.094-1.123-.283a1.986 1.986 0 0 1-.743-.795c-.177-.342-.266-.741-.266-1.196 0-.476.087-.888.262-1.236.175-.35.419-.619.731-.807a2.093 2.093 0 0 1 1.107-.287c.439 0 .812.101 1.119.303.309.202.541.49.694.864.156.374.224.82.202 1.337h-.727v-.259c-.008-.535-.117-.935-.327-1.199-.21-.267-.522-.4-.937-.4-.444 0-.782.143-1.014.428-.231.286-.347.695-.347 1.228 0 .514.116.913.347 1.195.232.283.562.425.99.425.288 0 .538-.066.751-.198.213-.132.38-.322.501-.57l.69.238a1.954 1.954 0 0 1-.767.897c-.339.21-.72.315-1.143.315zm-1.611-2.1v-.578h3.223v.578h-3.223zm8.546 1.979a3.236 3.236 0 0 1-.768.06 1.69 1.69 0 0 1-.67-.149.96.96 0 0 1-.448-.436 1.276 1.276 0 0 1-.142-.521 21.465 21.465 0 0 1-.008-.602v-3.925h.719v3.893c0 .178.001.33.004.456a.731.731 0 0 0 .085.327c.097.173.25.274.46.303.213.03.469.022.768-.024v.618zm-2.92-3.768v-.594h2.92v.594h-2.92zm5.482 3.889c-.434 0-.808-.098-1.123-.295a1.945 1.945 0 0 1-.723-.816 2.682 2.682 0 0 1-.255-1.195c0-.458.087-.859.259-1.204.172-.344.416-.612.731-.803.315-.194.685-.291 1.111-.291.436 0 .811.098 1.126.295.315.194.556.464.723.812.17.344.255.741.255 1.191 0 .455-.085.856-.255 1.203a1.941 1.941 0 0 1-.727.812c-.315.194-.689.291-1.122.291zm0-.682c.452 0 .788-.151 1.009-.453.221-.301.331-.692.331-1.171 0-.493-.111-.884-.335-1.175-.223-.294-.559-.44-1.005-.44-.305 0-.555.068-.752.206a1.236 1.236 0 0 0-.44.569 2.247 2.247 0 0 0-.145.84c0 .49.113.883.339 1.179.226.296.559.445.998.445zm6.447.682c-.441 0-.817-.098-1.126-.295a1.917 1.917 0 0 1-.703-.82 2.853 2.853 0 0 1-.25-1.187c.005-.455.09-.855.254-1.199.167-.348.405-.618.715-.812.309-.194.682-.291 1.119-.291.46 0 .856.113 1.187.339.334.226.557.536.67.929l-.71.214a1.167 1.167 0 0 0-.449-.589 1.22 1.22 0 0 0-.707-.21c-.298 0-.545.07-.739.21a1.218 1.218 0 0 0-.432.573 2.363 2.363 0 0 0-.145.836c.005.485.117.876.335 1.175.221.296.548.445.981.445.286 0 .523-.065.711-.194.189-.132.331-.322.428-.57l.727.19c-.15.407-.386.718-.706.933-.321.215-.707.323-1.16.323zm4.43 0c-.433 0-.808-.098-1.123-.295a1.952 1.952 0 0 1-.723-.816 2.695 2.695 0 0 1-.254-1.195c0-.458.086-.859.258-1.204.173-.344.416-.612.731-.803.315-.194.686-.291 1.111-.291.436 0 .812.098 1.127.295.315.194.556.464.723.812.169.344.254.741.254 1.191 0 .455-.085.856-.254 1.203-.17.345-.412.616-.727.812-.315.194-.69.291-1.123.291zm0-.682c.452 0 .789-.151 1.01-.453.22-.301.331-.692.331-1.171 0-.493-.112-.884-.335-1.175-.224-.294-.559-.44-1.006-.44-.304 0-.555.068-.751.206a1.23 1.23 0 0 0-.44.569 2.246 2.246 0 0 0-.146.84c0 .49.113.883.339 1.179.227.296.559.445.998.445zm8.207.561.004-2.791c0-.326-.087-.58-.262-.763a.878.878 0 0 0-.675-.279.99.99 0 0 0-.46.113.85.85 0 0 0-.356.348c-.091.156-.137.356-.137.601l-.379-.153a1.55 1.55 0 0 1 .189-.812c.135-.234.318-.416.55-.545.231-.129.492-.194.783-.194.455 0 .813.139 1.074.416.262.275.392.645.392 1.111l-.004 2.948h-.719zm-5.218 0v-4.362h.642v1.167h.081v3.195h-.723zm2.613 0 .004-2.763c0-.333-.086-.595-.258-.783-.172-.191-.401-.287-.687-.287a.88.88 0 0 0-.686.291c-.175.194-.263.451-.263.771l-.379-.226a1.424 1.424 0 0 1 .751-1.284c.231-.129.494-.194.787-.194.294 0 .55.062.768.186.218.124.386.301.504.533.119.229.178.502.178.82l-.004 2.936h-.715zm6.383.121c-.409 0-.754-.101-1.034-.303a1.912 1.912 0 0 1-.638-.828 3.082 3.082 0 0 1-.214-1.175c0-.439.071-.832.214-1.179a1.86 1.86 0 0 1 .638-.82c.283-.199.629-.299 1.038-.299.404 0 .751.101 1.042.303.294.199.518.472.675.82.156.347.234.739.234 1.175 0 .436-.078.828-.234 1.175a1.966 1.966 0 0 1-.675.828c-.291.202-.639.303-1.046.303zm-2.007 1.817v-6.3h.642v3.211h.081v3.089h-.723zm1.918-2.475c.288 0 .527-.073.715-.218.189-.146.33-.342.424-.59.094-.25.142-.53.142-.84a2.33 2.33 0 0 0-.142-.832 1.262 1.262 0 0 0-.428-.59c-.191-.145-.435-.218-.731-.218-.283 0-.517.07-.703.21-.185.138-.324.33-.416.578a2.44 2.44 0 0 0-.137.852c0 .318.045.602.133.852.092.248.232.443.42.586.189.14.43.21.723.21zm3.01.537v-5.937h.719v5.937h-.719zm3.821.121c-.428 0-.803-.094-1.123-.283a1.979 1.979 0 0 1-.743-.795c-.178-.342-.267-.741-.267-1.196 0-.476.088-.888.263-1.236.175-.35.419-.619.731-.807a2.092 2.092 0 0 1 1.106-.287c.439 0 .812.101 1.119.303.31.202.541.49.695.864.156.374.223.82.202 1.337h-.727v-.259c-.008-.535-.117-.935-.327-1.199-.21-.267-.523-.4-.937-.4-.445 0-.783.143-1.014.428-.232.286-.347.695-.347 1.228 0 .514.115.913.347 1.195.231.283.561.425.989.425a1.4 1.4 0 0 0 .752-.198c.212-.132.379-.322.5-.57l.691.238a1.96 1.96 0 0 1-.767.897c-.34.21-.721.315-1.143.315zm-1.612-2.1v-.578h3.223v.578h-3.223zm6.929 1.979a3.223 3.223 0 0 1-.767.06 1.696 1.696 0 0 1-.671-.149.965.965 0 0 1-.448-.436 1.29 1.29 0 0 1-.141-.521 18.218 18.218 0 0 1-.008-.602v-3.925h.719v3.893c0 .178.001.33.004.456a.718.718 0 0 0 .084.327.59.59 0 0 0 .461.303c.212.03.468.022.767-.024v.618zm-2.92-3.768v-.594h2.92v.594h-2.92zm5.514 3.889c-.428 0-.802-.094-1.122-.283a1.981 1.981 0 0 1-.744-.795c-.177-.342-.266-.741-.266-1.196 0-.476.087-.888.262-1.236.175-.35.419-.619.731-.807a2.093 2.093 0 0 1 1.107-.287c.439 0 .812.101 1.119.303.309.202.541.49.694.864.157.374.224.82.202 1.337h-.727v-.259c-.008-.535-.117-.935-.327-1.199-.21-.267-.522-.4-.937-.4-.444 0-.782.143-1.013.428-.232.286-.348.695-.348 1.228 0 .514.116.913.348 1.195.231.283.561.425.989.425.288 0 .538-.066.751-.198.213-.132.38-.322.501-.57l.691.238c-.17.385-.426.684-.768.897-.339.21-.72.315-1.143.315zm-1.611-2.1v-.578h3.223v.578h-3.223zm5.949 1.975.004-.646 2.581-2.323c.215-.193.359-.376.432-.549.075-.175.113-.354.113-.537 0-.223-.051-.425-.154-.606a1.143 1.143 0 0 0-1.017-.585 1.197 1.197 0 0 0-1.046.597 1.147 1.147 0 0 0-.15.59h-.735c0-.366.085-.689.255-.969.169-.283.399-.504.69-.663.294-.161.626-.242.998-.242.361 0 .684.084.969.25a1.854 1.854 0 0 1 .925 1.636c0 .253-.032.473-.097.658a1.584 1.584 0 0 1-.291.517 4.942 4.942 0 0 1-.497.501l-2.144 1.927-.093-.243h3.122v.687h-3.865zm8.286.125c-.442 0-.817-.098-1.127-.295a1.917 1.917 0 0 1-.703-.82 2.87 2.87 0 0 1-.25-1.187c.005-.455.09-.855.254-1.199.167-.348.405-.618.715-.812.31-.194.683-.291 1.119-.291.46 0 .856.113 1.187.339.334.226.557.536.671.929l-.711.214a1.167 1.167 0 0 0-.449-.589c-.204-.14-.44-.21-.706-.21-.299 0-.545.07-.739.21a1.211 1.211 0 0 0-.432.573 2.34 2.34 0 0 0-.146.836c.006.485.117.876.335 1.175.221.296.548.445.982.445.285 0 .522-.065.711-.194.188-.132.331-.322.428-.57l.727.19c-.151.407-.387.718-.707.933-.321.215-.707.323-1.159.323zm5.796-.121v-2.185c0-.207-.019-.407-.057-.598a1.493 1.493 0 0 0-.19-.513.988.988 0 0 0-.363-.363 1.116 1.116 0 0 0-.574-.133c-.18 0-.344.031-.493.092a.972.972 0 0 0-.375.275c-.105.124-.187.28-.246.469a2.251 2.251 0 0 0-.085.658l-.473-.145c0-.423.076-.785.226-1.087.154-.304.368-.537.643-.699.277-.164.603-.246.977-.246.283 0 .524.045.723.133.199.089.365.208.497.356.131.145.235.309.311.492.075.181.127.365.157.554.032.186.048.362.048.529v2.411h-.726zm-3.11 0v-5.816h.646v3.211h.081v2.605h-.727zm6.126.121c-.325 0-.599-.059-.82-.178a1.265 1.265 0 0 1-.496-.476 1.292 1.292 0 0 1-.166-.646c0-.229.043-.427.129-.594.089-.17.213-.31.372-.42.159-.113.349-.202.569-.267.208-.056.439-.105.695-.145.258-.043.52-.082.784-.117l.739-.101-.259.149c.008-.387-.07-.674-.234-.86-.162-.186-.442-.279-.84-.279-.264 0-.496.061-.695.182-.196.119-.335.312-.416.582l-.682-.206c.105-.383.308-.683.61-.901.301-.218.698-.327 1.191-.327.396 0 .735.071 1.018.214.285.14.49.353.614.638.061.135.1.282.117.44.016.157.024.321.024.493v2.698h-.638v-1.046l.149.097a1.783 1.783 0 0 1-.69.799c-.294.181-.652.271-1.075.271zm.109-.602c.259 0 .482-.045.671-.137.191-.094.344-.217.46-.368.116-.153.191-.32.226-.5.041-.135.062-.284.065-.449.005-.167.008-.294.008-.383l.25.109-.69.093c-.226.029-.44.062-.642.097a4.702 4.702 0 0 0-.546.117c-.118.037-.23.086-.335.145a.757.757 0 0 0-.25.23.6.6 0 0 0-.093.344c0 .118.03.231.089.339a.687.687 0 0 0 .283.262c.129.068.297.101.504.101zm5.198.602c-.409 0-.754-.101-1.034-.303a1.905 1.905 0 0 1-.638-.828 3.082 3.082 0 0 1-.214-1.175c0-.439.071-.832.214-1.179.145-.348.358-.621.638-.82.283-.199.629-.299 1.038-.299.404 0 .751.101 1.042.303.294.199.518.472.675.82.156.347.234.739.234 1.175 0 .436-.078.828-.234 1.175a1.966 1.966 0 0 1-.675.828c-.291.202-.639.303-1.046.303zm-2.007 1.817v-6.3h.642v3.211h.081v3.089h-.723zm1.918-2.475c.288 0 .527-.073.715-.218.189-.146.33-.342.424-.59.094-.25.141-.53.141-.84a2.33 2.33 0 0 0-.141-.832 1.262 1.262 0 0 0-.428-.59c-.191-.145-.435-.218-.731-.218-.283 0-.517.07-.703.21-.185.138-.324.33-.416.578a2.44 2.44 0 0 0-.137.852c0 .318.044.602.133.852.092.248.232.443.42.586.189.14.43.21.723.21zm5.364.537a3.223 3.223 0 0 1-.767.06 1.69 1.69 0 0 1-.67-.149.968.968 0 0 1-.449-.436 1.29 1.29 0 0 1-.141-.521 21.465 21.465 0 0 1-.008-.602v-3.925h.719v3.893c0 .178.001.33.004.456a.706.706 0 0 0 .085.327c.097.173.25.274.46.303.213.03.469.022.767-.024v.618zm-2.92-3.768v-.594h2.92v.594h-2.92zm5.515 3.889c-.429 0-.803-.094-1.123-.283a1.972 1.972 0 0 1-.743-.795c-.178-.342-.267-.741-.267-1.196 0-.476.088-.888.263-1.236.175-.35.418-.619.731-.807a2.092 2.092 0 0 1 1.106-.287c.439 0 .812.101 1.119.303.31.202.541.49.695.864.156.374.223.82.202 1.337h-.727v-.259c-.009-.535-.118-.935-.328-1.199-.21-.267-.522-.4-.937-.4-.444 0-.782.143-1.013.428-.232.286-.348.695-.348 1.228 0 .514.116.913.348 1.195.231.283.561.425.989.425.288 0 .539-.066.751-.198.213-.132.38-.322.501-.57l.691.238c-.17.385-.426.684-.768.897-.339.21-.72.315-1.142.315zm-1.612-2.1v-.578h3.223v.578h-3.223zm4.494 1.979v-4.362h.642v1.054l-.105-.137c.051-.135.117-.259.198-.372.083-.113.176-.206.278-.278.113-.092.241-.162.384-.21.143-.049.288-.077.436-.085.148-.011.287-.001.416.028v.675a1.347 1.347 0 0 0-.497-.033c-.18.019-.347.085-.5.198-.14.1-.249.221-.327.364a1.561 1.561 0 0 0-.158.464c-.03.164-.044.333-.044.505v2.189h-.723zm4.503.117c-.52 0-.947-.113-1.28-.339a1.428 1.428 0 0 1-.61-.957l.735-.118a.927.927 0 0 0 .408.566c.212.137.476.206.791.206.299 0 .533-.062.703-.186a.591.591 0 0 0 .254-.505.49.49 0 0 0-.084-.299c-.057-.078-.174-.15-.352-.218a8.435 8.435 0 0 0-.795-.242 4.943 4.943 0 0 1-.909-.319c-.221-.11-.378-.238-.473-.384a.951.951 0 0 1-.141-.529c0-.256.07-.479.21-.67.14-.194.335-.343.586-.448a2.28 2.28 0 0 1 .88-.158c.331 0 .627.053.889.158.261.105.471.254.63.448.161.191.257.414.286.67l-.735.133a.794.794 0 0 0-.339-.553c-.188-.134-.432-.206-.731-.214-.283-.011-.513.039-.69.15-.175.11-.263.259-.263.448 0 .105.032.195.097.27.067.076.19.147.367.214.181.068.442.145.784.231.385.097.688.203.909.319.223.113.382.247.476.404.094.153.142.343.142.569 0 .42-.155.751-.465.994-.31.239-.736.359-1.28.359zm6.688-.117a3.236 3.236 0 0 1-.768.06 1.69 1.69 0 0 1-.67-.149.96.96 0 0 1-.448-.436 1.276 1.276 0 0 1-.142-.521 21.465 21.465 0 0 1-.008-.602v-3.925h.719v3.893c0 .178.001.33.004.456a.718.718 0 0 0 .085.327c.097.173.25.274.46.303.213.03.469.022.768-.024v.618zm-2.92-3.768v-.594h2.92v.594h-2.92zm6.911 3.768v-2.185c0-.207-.019-.407-.057-.598a1.493 1.493 0 0 0-.19-.513.98.98 0 0 0-.363-.363 1.116 1.116 0 0 0-.574-.133c-.18 0-.344.031-.492.092a.968.968 0 0 0-.376.275c-.105.124-.187.28-.246.469a2.251 2.251 0 0 0-.085.658l-.472-.145c0-.423.075-.785.226-1.087a1.65 1.65 0 0 1 .642-.699c.277-.164.603-.246.977-.246.283 0 .524.045.723.133.199.089.365.208.497.356.132.145.235.309.311.492.075.181.128.365.157.554.033.186.049.362.049.529v2.411h-.727zm-3.11 0v-5.816h.646v3.211h.081v2.605h-.727zm4.968-5.133v-.743h.718v.743h-.718zm0 5.133v-4.362h.718v4.362h-.718zm3.578.117c-.52 0-.946-.113-1.28-.339a1.432 1.432 0 0 1-.61-.957l.735-.118a.927.927 0 0 0 .408.566c.212.137.476.206.791.206.299 0 .533-.062.703-.186a.591.591 0 0 0 .254-.505.49.49 0 0 0-.084-.299c-.057-.078-.174-.15-.352-.218a8.435 8.435 0 0 0-.795-.242 4.943 4.943 0 0 1-.909-.319c-.221-.11-.378-.238-.472-.384a.943.943 0 0 1-.142-.529c0-.256.07-.479.21-.67.14-.194.335-.343.586-.448a2.28 2.28 0 0 1 .88-.158c.331 0 .628.053.889.158.261.105.471.254.63.448.161.191.257.414.286.67l-.735.133a.794.794 0 0 0-.339-.553c-.188-.134-.432-.206-.731-.214-.283-.011-.513.039-.69.15-.175.11-.263.259-.263.448 0 .105.032.195.097.27.067.076.19.147.368.214.18.068.441.145.783.231.385.097.688.203.909.319.223.113.382.247.476.404.094.153.142.343.142.569 0 .42-.155.751-.465.994-.309.239-.736.359-1.28.359zm5.181-.117-1.333-4.366.715.004.974 3.191.981-3.191h.634l.977 3.191.978-3.191h.711l-1.333 4.362h-.598l-1.054-3.316-1.054 3.316h-.598zm7.098.121c-.428 0-.802-.094-1.123-.283a1.986 1.986 0 0 1-.743-.795c-.177-.342-.266-.741-.266-1.196 0-.476.087-.888.262-1.236.175-.35.419-.619.731-.807a2.093 2.093 0 0 1 1.107-.287c.439 0 .812.101 1.119.303.309.202.541.49.694.864.156.374.224.82.202 1.337h-.727v-.259c-.008-.535-.117-.935-.327-1.199-.21-.267-.522-.4-.937-.4-.444 0-.782.143-1.014.428-.231.286-.347.695-.347 1.228 0 .514.116.913.347 1.195.232.283.562.425.99.425.288 0 .538-.066.751-.198.213-.132.38-.322.501-.57l.69.238a1.954 1.954 0 0 1-.767.897c-.339.21-.72.315-1.143.315zm-1.611-2.1v-.578h3.223v.578h-3.223zm6.383 2.1c-.428 0-.802-.094-1.122-.283a1.972 1.972 0 0 1-.743-.795c-.178-.342-.267-.741-.267-1.196 0-.476.088-.888.263-1.236.175-.35.418-.619.731-.807a2.09 2.09 0 0 1 1.106-.287c.439 0 .812.101 1.119.303.309.202.541.49.694.864.157.374.224.82.202 1.337h-.727v-.259c-.008-.535-.117-.935-.327-1.199-.21-.267-.522-.4-.937-.4-.444 0-.782.143-1.013.428-.232.286-.348.695-.348 1.228 0 .514.116.913.348 1.195.231.283.561.425.989.425.288 0 .539-.066.751-.198.213-.132.38-.322.501-.57l.691.238c-.17.385-.426.684-.768.897-.339.21-.72.315-1.143.315zm-1.611-2.1v-.578h3.223v.578h-3.223zm4.49 1.979.004-5.816h.727v3.554l1.829-2.1h.933l-1.927 2.181 2.153 2.181h-1.006l-1.982-2.1v2.1h-.731z" fill="#797979"/>
        <path d="M273.677 77.982v-5.816h.719v5.816h-.719zm3.643.121c-.406 0-.755-.1-1.046-.303a2.017 2.017 0 0 1-.674-.828 2.838 2.838 0 0 1-.234-1.175c0-.436.078-.828.234-1.175.159-.347.384-.62.674-.82.291-.202.639-.303 1.042-.303.412 0 .758.1 1.038.299.28.2.492.472.634.82.146.347.218.74.218 1.179 0 .434-.072.825-.218 1.175a1.882 1.882 0 0 1-.634.828c-.28.202-.624.303-1.034.303zm.089-.658c.294 0 .535-.07.723-.21.189-.143.327-.338.416-.586a2.46 2.46 0 0 0 .138-.852c0-.323-.046-.607-.138-.852a1.198 1.198 0 0 0-.412-.578c-.186-.14-.421-.21-.707-.21-.296 0-.541.073-.735.218a1.31 1.31 0 0 0-.428.59 2.399 2.399 0 0 0-.137.832c0 .31.047.59.141.84.095.248.236.444.424.59.192.145.43.218.715.218zm1.277.537v-3.21h-.081v-2.606h.723v5.816h-.642zm3.663.121c-.428 0-.802-.094-1.123-.283a1.987 1.987 0 0 1-.743-.795c-.177-.342-.266-.74-.266-1.196 0-.476.087-.888.262-1.235.175-.35.419-.62.731-.808a2.091 2.091 0 0 1 1.107-.287c.439 0 .812.101 1.119.303.309.202.541.49.694.864.156.374.224.82.202 1.337h-.727v-.258c-.008-.536-.117-.936-.327-1.2-.21-.267-.522-.4-.937-.4-.444 0-.782.143-1.014.428-.231.286-.347.695-.347 1.228 0 .514.116.913.347 1.195.232.283.562.425.99.425.288 0 .538-.066.751-.198.213-.132.38-.322.501-.57l.691.238a1.96 1.96 0 0 1-.768.897c-.339.21-.72.315-1.143.315zm-1.611-2.1v-.578h3.223v.578h-3.223zm5.654 2.1c-.325 0-.599-.06-.82-.178a1.264 1.264 0 0 1-.496-.476 1.29 1.29 0 0 1-.166-.646c0-.23.043-.427.129-.594.089-.17.213-.31.372-.42.159-.113.349-.202.569-.267.208-.056.439-.105.695-.145.259-.043.52-.082.784-.117l.739-.101-.259.15c.008-.388-.07-.675-.234-.86-.162-.187-.442-.28-.84-.28-.264 0-.496.061-.695.182-.196.119-.335.313-.416.582l-.682-.206c.105-.383.308-.683.61-.9.301-.219.698-.328 1.191-.328.396 0 .735.071 1.018.214.285.14.49.353.614.638a1.4 1.4 0 0 1 .117.44c.016.157.024.32.024.493v2.698h-.638v-1.046l.149.097c-.164.353-.394.62-.69.8-.294.18-.652.27-1.075.27zm.109-.602c.259 0 .482-.045.671-.137.191-.094.344-.217.46-.368.116-.153.191-.32.226-.5.041-.135.062-.284.065-.449.005-.166.008-.294.008-.383l.25.109-.69.093c-.226.03-.44.062-.642.097a4.83 4.83 0 0 0-.546.117 1.79 1.79 0 0 0-.335.145.768.768 0 0 0-.25.23.599.599 0 0 0-.093.344c0 .118.03.231.089.339a.686.686 0 0 0 .283.262c.129.068.297.101.504.101zm3.276.48v-5.936h.719v5.937h-.719zm3.547 0v-5.815h2.298c.057 0 .124.003.202.008.078.003.154.011.226.025.315.048.579.156.792.323.215.167.377.378.485.634.107.253.161.534.161.844 0 .307-.055.588-.165.844a1.59 1.59 0 0 1-.485.634 1.664 1.664 0 0 1-.788.323 2.915 2.915 0 0 1-.428.032h-1.579v2.149h-.719zm.719-2.83h1.555c.051 0 .109-.003.174-.008.067-.006.13-.015.19-.028a.936.936 0 0 0 .452-.235c.118-.115.205-.25.258-.404a1.449 1.449 0 0 0 0-.949 1.03 1.03 0 0 0-.258-.408.893.893 0 0 0-.452-.234.858.858 0 0 0-.19-.028 2.125 2.125 0 0 0-.174-.008h-1.555v2.302zm5.325 2.952c-.326 0-.599-.06-.82-.178a1.267 1.267 0 0 1-.497-.476 1.3 1.3 0 0 1-.165-.646c0-.23.043-.427.129-.594.089-.17.213-.31.372-.42.158-.113.348-.202.569-.267.207-.056.439-.105.695-.145.258-.043.519-.082.783-.117s.51-.069.739-.101l-.258.15c.008-.388-.07-.675-.234-.86-.162-.187-.442-.28-.84-.28-.264 0-.496.061-.695.182-.197.119-.335.313-.416.582l-.683-.206c.105-.383.309-.683.61-.9.302-.219.699-.328 1.192-.328.395 0 .735.071 1.017.214.286.14.49.353.614.638.062.135.101.282.117.44.016.157.025.32.025.493v2.698h-.639v-1.046l.15.097a1.79 1.79 0 0 1-.691.8c-.293.18-.651.27-1.074.27zm.109-.602c.259 0 .482-.045.67-.137a1.28 1.28 0 0 0 .461-.368c.116-.153.191-.32.226-.5.04-.135.062-.284.065-.449.005-.166.008-.294.008-.383l.25.109-.691.093c-.226.03-.44.062-.642.097a4.81 4.81 0 0 0-.545.117 1.79 1.79 0 0 0-.335.145.758.758 0 0 0-.25.23.599.599 0 0 0-.093.344c0 .118.029.231.088.339a.692.692 0 0 0 .283.262c.129.068.298.101.505.101zm5.032.602c-.441 0-.817-.098-1.127-.295a1.913 1.913 0 0 1-.702-.82 2.871 2.871 0 0 1-.251-1.187c.006-.455.09-.855.255-1.2.167-.347.405-.617.715-.811.309-.194.682-.29 1.118-.29.461 0 .856.112 1.188.338.333.227.557.536.67.93l-.711.213a1.167 1.167 0 0 0-.448-.59c-.205-.14-.44-.21-.707-.21-.299 0-.545.07-.739.21a1.214 1.214 0 0 0-.432.574 2.342 2.342 0 0 0-.145.836c.005.485.117.876.335 1.175.221.296.548.445.981.445.286 0 .522-.065.711-.194.188-.132.331-.322.428-.57l.727.19c-.151.407-.386.718-.707.933-.32.215-.707.323-1.159.323zm4.462 0c-.428 0-.802-.094-1.123-.283a1.987 1.987 0 0 1-.743-.795c-.178-.342-.266-.74-.266-1.196 0-.476.087-.888.262-1.235.175-.35.419-.62.731-.808a2.091 2.091 0 0 1 1.107-.287c.439 0 .811.101 1.118.303.31.202.542.49.695.864.156.374.224.82.202 1.337h-.727v-.258c-.008-.536-.117-.936-.327-1.2-.21-.267-.522-.4-.937-.4-.444 0-.782.143-1.014.428-.231.286-.347.695-.347 1.228 0 .514.116.913.347 1.195.232.283.562.425.99.425.288 0 .538-.066.751-.198.213-.132.38-.322.501-.57l.69.238a1.951 1.951 0 0 1-.767.897c-.339.21-.72.315-1.143.315zm-1.611-2.1v-.578h3.222v.578h-3.222z" fill="#1F1F1F"/>
        <path opacity=".6" d="M301.974 97.636c-.441 0-.817-.098-1.127-.294a1.92 1.92 0 0 1-.702-.82 2.871 2.871 0 0 1-.251-1.188c.006-.455.091-.855.255-1.2.167-.347.405-.617.715-.811.309-.194.682-.29 1.118-.29.461 0 .857.112 1.188.338.334.227.557.536.67.93l-.711.213a1.167 1.167 0 0 0-.448-.59c-.205-.14-.44-.21-.707-.21-.299 0-.545.07-.739.21a1.214 1.214 0 0 0-.432.574 2.342 2.342 0 0 0-.145.836c.005.485.117.877.335 1.175.221.297.548.445.981.445.286 0 .523-.065.711-.194.189-.132.331-.322.428-.57l.727.19c-.151.407-.386.718-.707.933-.32.216-.706.323-1.159.323zm5.796-.12V95.33a3.14 3.14 0 0 0-.056-.597 1.51 1.51 0 0 0-.19-.513.98.98 0 0 0-.364-.364 1.117 1.117 0 0 0-.573-.133c-.181 0-.345.03-.493.093a.967.967 0 0 0-.376.274c-.105.124-.187.28-.246.469a2.29 2.29 0 0 0-.085.658l-.472-.145c0-.423.075-.785.226-1.087.153-.304.367-.537.642-.698.277-.165.603-.247.977-.247.283 0 .524.045.723.134.2.088.365.207.497.355.132.145.236.31.311.493.075.18.128.365.158.553.032.186.048.362.048.53v2.41h-.727zm-3.11 0v-5.817h.647v3.211h.08v2.605h-.727zm6.127.12c-.326 0-.599-.059-.82-.177a1.267 1.267 0 0 1-.497-.477 1.3 1.3 0 0 1-.165-.646c0-.229.043-.427.129-.594.089-.17.213-.31.371-.42a1.89 1.89 0 0 1 .57-.266c.207-.057.439-.105.695-.146.258-.043.519-.082.783-.117l.739-.1-.258.149c.008-.388-.07-.675-.235-.86-.161-.186-.441-.28-.84-.28-.263 0-.495.061-.694.182-.197.119-.335.313-.416.582l-.683-.206c.105-.382.309-.683.61-.9.302-.219.699-.328 1.191-.328.396 0 .735.072 1.018.214.286.14.49.353.614.638.062.135.101.282.117.44.016.157.024.321.024.493v2.698h-.638V96.47l.15.097c-.165.353-.395.62-.691.8-.293.18-.651.27-1.074.27zm.109-.602c.258 0 .482-.045.67-.137.191-.094.345-.217.461-.367.115-.154.191-.32.226-.501a1.64 1.64 0 0 0 .064-.448c.006-.167.009-.295.009-.384l.25.109-.691.093c-.226.03-.44.062-.642.097a4.81 4.81 0 0 0-.545.117 1.79 1.79 0 0 0-.335.145.762.762 0 0 0-.251.23.599.599 0 0 0-.092.344c0 .118.029.231.088.34a.692.692 0 0 0 .283.262c.129.067.298.1.505.1zm5.198.602c-.41 0-.754-.1-1.034-.303a1.912 1.912 0 0 1-.638-.828 3.082 3.082 0 0 1-.214-1.175c0-.439.071-.832.214-1.179.145-.347.358-.62.638-.82.282-.2.628-.299 1.038-.299.404 0 .751.101 1.042.303.293.2.518.473.674.82.156.347.234.74.234 1.175 0 .436-.078.828-.234 1.175a1.971 1.971 0 0 1-.674.828c-.291.202-.64.303-1.046.303zm-2.008 1.818v-6.3h.643v3.21h.08v3.09h-.723zm1.919-2.476c.288 0 .526-.073.715-.218.188-.145.329-.342.424-.59.094-.25.141-.53.141-.84a2.33 2.33 0 0 0-.141-.832 1.274 1.274 0 0 0-.428-.59c-.192-.145-.435-.217-.731-.217-.283 0-.517.07-.703.21-.186.137-.325.33-.416.577-.092.245-.137.53-.137.852 0 .318.044.602.133.852.091.248.231.443.42.586.188.14.429.21.723.21zm5.364.537a3.228 3.228 0 0 1-.767.06 1.706 1.706 0 0 1-.671-.149.964.964 0 0 1-.448-.436 1.291 1.291 0 0 1-.141-.52 18.005 18.005 0 0 1-.009-.603v-3.925h.719v3.893c0 .178.002.33.004.456a.736.736 0 0 0 .085.328.593.593 0 0 0 .461.302c.212.03.468.022.767-.024v.618zm-2.92-3.768v-.594h2.92v.594h-2.92zm5.514 3.89c-.428 0-.802-.095-1.123-.283a1.987 1.987 0 0 1-.743-.796c-.177-.342-.266-.74-.266-1.195 0-.477.087-.889.262-1.236.175-.35.419-.62.731-.808a2.091 2.091 0 0 1 1.107-.287c.439 0 .812.101 1.119.303.309.202.541.49.694.864.156.375.224.82.202 1.337h-.727v-.258c-.008-.536-.117-.936-.327-1.2-.21-.266-.522-.4-.937-.4-.444 0-.782.143-1.014.428-.231.286-.347.695-.347 1.228 0 .514.116.913.347 1.196.232.282.562.424.99.424.288 0 .538-.066.751-.198.213-.132.38-.322.501-.57l.69.239a1.951 1.951 0 0 1-.767.896c-.339.21-.72.315-1.143.315zm-1.611-2.1v-.578h3.223v.577h-3.223zm4.493 1.978v-4.362h.642v1.054l-.105-.137c.052-.134.117-.258.198-.371.084-.113.177-.206.279-.279a1.23 1.23 0 0 1 .384-.21c.142-.048.288-.077.436-.085a1.4 1.4 0 0 1 .416.028v.675a1.364 1.364 0 0 0-.497-.032c-.18.018-.347.084-.501.197-.14.1-.249.221-.327.364a1.57 1.57 0 0 0-.157.464c-.03.165-.045.333-.045.505v2.19h-.723zm4.503.117c-.519 0-.946-.113-1.28-.339a1.435 1.435 0 0 1-.61-.957l.735-.117c.06.237.196.425.408.565.213.137.477.206.792.206.299 0 .533-.062.703-.186a.593.593 0 0 0 .254-.505.483.483 0 0 0-.085-.298c-.056-.078-.173-.151-.351-.218a8.333 8.333 0 0 0-.796-.243 4.901 4.901 0 0 1-.908-.319c-.221-.11-.379-.238-.473-.383a.954.954 0 0 1-.141-.53c0-.255.07-.479.21-.67.14-.194.335-.343.585-.448.253-.105.547-.158.881-.158.331 0 .627.053.888.158.261.105.471.254.63.448.162.191.257.415.287.67l-.735.134a.793.793 0 0 0-.339-.553c-.189-.135-.432-.206-.731-.215-.283-.01-.513.04-.691.15a.507.507 0 0 0-.262.448.4.4 0 0 0 .097.27c.067.076.189.147.367.215.18.067.442.144.784.23.385.097.687.203.908.319.224.113.383.248.477.404.094.153.141.343.141.57 0 .42-.155.75-.464.993-.31.24-.737.36-1.281.36zm6.256.004c-.409 0-.754-.1-1.034-.303a1.912 1.912 0 0 1-.638-.828 3.082 3.082 0 0 1-.214-1.175c0-.439.071-.832.214-1.179.145-.347.358-.62.638-.82.283-.2.629-.299 1.038-.299.404 0 .751.101 1.042.303.293.2.518.473.674.82.157.347.235.74.235 1.175 0 .436-.078.828-.235 1.175a1.971 1.971 0 0 1-.674.828c-.291.202-.639.303-1.046.303zm-2.007 1.818v-6.3h.642v3.21h.081v3.09h-.723zm1.918-2.476c.288 0 .527-.073.715-.218.188-.145.33-.342.424-.59.094-.25.141-.53.141-.84a2.33 2.33 0 0 0-.141-.832 1.26 1.26 0 0 0-.428-.59c-.191-.145-.435-.217-.731-.217-.283 0-.517.07-.703.21-.186.137-.324.33-.416.577a2.44 2.44 0 0 0-.137.852c0 .318.044.602.133.852.092.248.232.443.42.586.189.14.43.21.723.21zm4.819.658c-.428 0-.802-.094-1.123-.282a1.987 1.987 0 0 1-.743-.796c-.177-.342-.266-.74-.266-1.195 0-.477.087-.889.262-1.236.175-.35.419-.62.731-.808a2.091 2.091 0 0 1 1.107-.287c.439 0 .812.101 1.118.303.31.202.542.49.695.864.156.375.224.82.202 1.337h-.727v-.258c-.008-.536-.117-.936-.327-1.2-.21-.266-.522-.4-.937-.4-.444 0-.782.143-1.014.428-.231.286-.347.695-.347 1.228 0 .514.116.913.347 1.196.232.282.562.424.99.424.288 0 .538-.066.751-.198.213-.132.38-.322.501-.57l.69.239a1.951 1.951 0 0 1-.767.896c-.339.21-.72.315-1.143.315zm-1.611-2.1v-.577h3.223v.577h-3.223zm4.493 1.98v-4.363h.642v1.054l-.105-.137c.052-.134.117-.258.198-.371.084-.113.177-.206.279-.279a1.23 1.23 0 0 1 .384-.21c.142-.048.288-.077.436-.085a1.4 1.4 0 0 1 .416.028v.675a1.364 1.364 0 0 0-.497-.032c-.18.018-.347.084-.501.197-.14.1-.249.221-.327.364a1.57 1.57 0 0 0-.157.464c-.03.165-.045.333-.045.505v2.19h-.723zm5.559 0-1.332-4.367.714.004.974 3.19.981-3.19h.634l.978 3.19.977-3.19h.711l-1.333 4.362h-.598l-1.054-3.316-1.054 3.316h-.598zm7.098.12a2.17 2.17 0 0 1-1.122-.282 1.983 1.983 0 0 1-.744-.796c-.177-.342-.266-.74-.266-1.195 0-.477.087-.889.262-1.236.175-.35.419-.62.731-.808a2.091 2.091 0 0 1 1.107-.287c.439 0 .812.101 1.119.303.309.202.541.49.694.864.157.375.224.82.202 1.337h-.727v-.258c-.008-.536-.117-.936-.327-1.2-.21-.266-.522-.4-.937-.4-.444 0-.782.143-1.013.428-.232.286-.348.695-.348 1.228 0 .514.116.913.348 1.196.231.282.561.424.989.424.288 0 .539-.066.751-.198.213-.132.38-.322.501-.57l.691.239a1.96 1.96 0 0 1-.768.896c-.339.21-.72.315-1.143.315zm-1.611-2.1v-.577h3.223v.577h-3.223zm6.384 2.1c-.429 0-.803-.094-1.123-.282a1.974 1.974 0 0 1-.743-.796c-.178-.342-.267-.74-.267-1.195 0-.477.088-.889.263-1.236.175-.35.418-.62.731-.808a2.09 2.09 0 0 1 1.106-.287c.439 0 .812.101 1.119.303.31.202.541.49.695.864.156.375.223.82.202 1.337h-.727v-.258c-.009-.536-.118-.936-.328-1.2-.21-.266-.522-.4-.937-.4-.444 0-.782.143-1.013.428-.232.286-.348.695-.348 1.228 0 .514.116.913.348 1.196.231.282.561.424.989.424.288 0 .539-.066.751-.198.213-.132.38-.322.501-.57l.691.239a1.96 1.96 0 0 1-.768.896c-.339.21-.72.315-1.142.315zm-1.612-2.1v-.577h3.223v.577h-3.223zm4.49 1.98.004-5.817h.727v3.555l1.829-2.1h.933l-1.926 2.18 2.152 2.181h-1.005l-1.983-2.1v2.1h-.731z" fill="#1F1F1F"/>
        <path d="M282.655 96.621v-7.92l-1.869 1.149v-2.077l1.869-1.122h1.925v9.97h-1.925zm4.28-.014v-1.634l4.182-3.71c.314-.278.535-.538.665-.783a1.48 1.48 0 0 0 .193-.686 1.7 1.7 0 0 0-.187-.81c-.124-.24-.3-.426-.526-.56a1.493 1.493 0 0 0-.796-.208c-.318 0-.6.074-.845.222-.24.143-.426.334-.56.574a1.43 1.43 0 0 0-.187.769h-1.939c0-.683.15-1.274.45-1.773.3-.498.718-.884 1.253-1.156.536-.272 1.159-.408 1.87-.408.65 0 1.232.143 1.744.429.517.281.923.676 1.219 1.184.295.507.443 1.096.443 1.765 0 .494-.069.905-.208 1.233a2.925 2.925 0 0 1-.616.9c-.272.272-.607.581-1.004.927l-2.7 2.368-.152-.415h4.68v1.772h-6.979z" fill="#1F1F1F"/>
        <rect x="273.031" y="85.217" width="2.308" height="12.639" rx="1.154" fill="#05D6A1"/>
        <path d="M276.144 129.113v-2.419l-1.958-3.397h.836l1.486 2.573 1.482-2.573h.836l-1.955 3.397v2.419h-.727zm4.456.121c-.433 0-.808-.098-1.123-.295a1.952 1.952 0 0 1-.723-.816 2.695 2.695 0 0 1-.254-1.195c0-.458.086-.859.258-1.203.173-.345.416-.613.731-.804.315-.194.686-.291 1.111-.291.436 0 .812.098 1.127.295.315.194.556.464.723.812.169.344.254.741.254 1.191 0 .455-.085.856-.254 1.204-.17.344-.412.615-.727.811-.315.194-.69.291-1.123.291zm0-.682c.452 0 .789-.151 1.01-.453.22-.301.331-.692.331-1.171 0-.493-.112-.884-.335-1.175-.224-.294-.559-.44-1.006-.44-.304 0-.555.068-.751.206a1.23 1.23 0 0 0-.44.569 2.246 2.246 0 0 0-.146.84c0 .49.113.883.339 1.179.227.296.559.445.998.445zm4.649.674c-.28 0-.521-.044-.723-.133a1.448 1.448 0 0 1-.497-.356 1.761 1.761 0 0 1-.31-.492 2.505 2.505 0 0 1-.162-.554 3.366 3.366 0 0 1-.044-.529v-2.411h.727v2.185c0 .205.018.403.056.594.038.191.101.363.19.517.091.153.213.274.363.363.154.089.345.133.574.133.18 0 .344-.03.493-.092.148-.062.274-.154.379-.275.105-.124.186-.28.242-.469.057-.188.085-.407.085-.658l.473.146c0 .42-.077.782-.23 1.086a1.648 1.648 0 0 1-.643.703 1.888 1.888 0 0 1-.973.242zm1.454-.113v-1.167h-.081v-3.195h.723v4.362h-.642zm1.773 0v-4.362h.642v1.054l-.105-.137c.051-.135.117-.259.198-.372.083-.113.176-.206.279-.278a1.22 1.22 0 0 1 .383-.21c.143-.049.288-.077.436-.085.149-.011.287-.001.416.028v.675a1.341 1.341 0 0 0-.496-.033 1.008 1.008 0 0 0-.501.198c-.14.1-.249.221-.327.364a1.561 1.561 0 0 0-.158.464 2.9 2.9 0 0 0-.044.505v2.189h-.723zm4.63 0v-5.816h2.298a3.251 3.251 0 0 1 .428.033c.315.048.579.156.792.323.215.167.377.378.484.634.108.253.162.534.162.844 0 .307-.055.588-.166.844a1.582 1.582 0 0 1-.484.634 1.658 1.658 0 0 1-.788.323 2.61 2.61 0 0 1-.226.024 2.622 2.622 0 0 1-.202.008h-1.579v2.149h-.719zm.719-2.831h1.555c.051 0 .109-.003.174-.008.067-.006.13-.015.189-.029a.935.935 0 0 0 .453-.234c.118-.116.204-.25.258-.404a1.447 1.447 0 0 0 0-.949 1.043 1.043 0 0 0-.258-.408.902.902 0 0 0-.453-.234.87.87 0 0 0-.189-.028 2.316 2.316 0 0 0-.174-.008h-1.555v2.302zm5.325 2.952c-.326 0-.599-.059-.82-.178a1.268 1.268 0 0 1-.497-.476 1.302 1.302 0 0 1-.165-.646c0-.229.043-.427.129-.594.089-.17.213-.31.371-.42.159-.113.349-.202.57-.267.207-.056.439-.105.694-.145.259-.043.52-.082.784-.117s.51-.069.739-.101l-.258.149c.008-.387-.07-.674-.235-.86-.161-.186-.441-.279-.84-.279-.264 0-.495.061-.694.182-.197.119-.336.313-.416.582l-.683-.206c.105-.383.308-.683.61-.901.302-.218.699-.327 1.191-.327.396 0 .735.071 1.018.214.286.14.49.353.614.638.062.135.101.282.117.44.016.157.024.321.024.493v2.698h-.638v-1.046l.15.097a1.79 1.79 0 0 1-.691.799c-.293.181-.652.271-1.074.271zm.109-.602c.258 0 .482-.045.67-.137a1.21 1.21 0 0 0 .687-.868c.04-.135.062-.284.064-.449.006-.167.008-.294.008-.383l.251.109-.691.093c-.226.029-.44.062-.642.097a4.638 4.638 0 0 0-.545.117 1.73 1.73 0 0 0-.335.145.76.76 0 0 0-.251.23.6.6 0 0 0-.093.344c0 .118.03.231.089.339a.68.68 0 0 0 .283.262c.129.068.298.101.505.101zm5.032.602c-.442 0-.817-.098-1.127-.295a1.917 1.917 0 0 1-.703-.82 2.87 2.87 0 0 1-.25-1.187c.005-.455.09-.855.254-1.199.167-.348.406-.618.715-.812.31-.194.683-.291 1.119-.291.46 0 .856.113 1.187.339.334.226.558.536.671.929l-.711.214a1.17 1.17 0 0 0-.448-.589 1.224 1.224 0 0 0-.707-.21c-.299 0-.545.07-.739.21a1.211 1.211 0 0 0-.432.573 2.362 2.362 0 0 0-.146.836c.006.485.117.876.336 1.175.22.296.547.445.981.445.285 0 .522-.065.711-.194.188-.132.331-.322.428-.57l.727.19c-.151.407-.387.718-.707.933-.32.215-.707.323-1.159.323zm4.462 0c-.428 0-.803-.094-1.123-.283a1.979 1.979 0 0 1-.743-.795c-.178-.342-.267-.741-.267-1.196 0-.476.088-.888.263-1.235.175-.351.419-.62.731-.808a2.092 2.092 0 0 1 1.106-.287c.439 0 .812.101 1.119.303.31.202.541.49.695.864.156.374.223.82.202 1.337h-.727v-.258c-.008-.536-.117-.936-.327-1.2-.21-.267-.523-.4-.937-.4-.445 0-.782.143-1.014.428-.232.286-.347.695-.347 1.228 0 .514.115.913.347 1.195.232.283.561.425.989.425.289 0 .539-.066.752-.198.212-.132.379-.322.5-.57l.691.238c-.17.386-.425.684-.767.897-.34.21-.72.315-1.143.315zm-1.612-2.1v-.578h3.223v.578h-3.223z" fill="#1F1F1F"/>
        <path opacity=".6" d="M296.782 147.044c-.442 0-.817-.099-1.127-.295a1.922 1.922 0 0 1-.703-.82 2.87 2.87 0 0 1-.25-1.187 2.84 2.84 0 0 1 .254-1.2c.167-.347.406-.618.715-.811.31-.194.683-.291 1.119-.291.46 0 .856.113 1.187.339.334.226.558.536.671.929l-.711.214a1.173 1.173 0 0 0-.448-.59 1.224 1.224 0 0 0-.707-.21c-.299 0-.545.07-.739.21a1.219 1.219 0 0 0-.432.574 2.34 2.34 0 0 0-.146.836c.006.484.117.876.336 1.175.22.296.547.444.981.444.285 0 .522-.064.711-.194.188-.132.331-.321.428-.569l.727.19c-.151.406-.387.717-.707.933-.32.215-.707.323-1.159.323zm5.796-.121v-2.185c0-.208-.019-.407-.057-.598a1.493 1.493 0 0 0-.19-.513.98.98 0 0 0-.363-.363 1.116 1.116 0 0 0-.574-.134c-.18 0-.344.031-.492.093a.958.958 0 0 0-.376.275c-.105.124-.187.28-.246.468a2.263 2.263 0 0 0-.085.659l-.473-.146c0-.422.076-.785.227-1.086a1.65 1.65 0 0 1 .642-.699c.277-.164.603-.246.977-.246.283 0 .524.044.723.133.199.089.365.207.497.355a1.7 1.7 0 0 1 .311.493c.075.181.128.365.157.553.032.186.049.363.049.53v2.411h-.727zm-3.11 0v-5.816h.646v3.211h.081v2.605h-.727zm6.126.121c-.325 0-.599-.059-.819-.178a1.268 1.268 0 0 1-.497-.476 1.293 1.293 0 0 1-.166-.647c0-.229.043-.426.13-.593.088-.17.212-.31.371-.42.159-.113.349-.202.57-.267.207-.056.438-.105.694-.145.259-.043.52-.082.784-.117s.51-.069.739-.101l-.259.149c.008-.388-.07-.674-.234-.86-.162-.186-.442-.279-.84-.279-.264 0-.495.061-.695.182-.196.118-.335.312-.416.581l-.682-.206c.105-.382.308-.682.61-.9.301-.218.698-.327 1.191-.327.396 0 .735.071 1.018.214.285.14.49.352.614.638.062.135.101.281.117.44.016.156.024.32.024.493v2.698h-.638v-1.046l.149.097a1.788 1.788 0 0 1-.69.799c-.294.181-.652.271-1.075.271zm.11-.602c.258 0 .481-.046.67-.137.191-.095.345-.217.46-.368.116-.153.191-.32.226-.501.041-.134.062-.284.065-.448.005-.167.008-.295.008-.384l.251.109c-.235.033-.465.064-.691.093-.226.03-.44.062-.642.097a5.083 5.083 0 0 0-.545.117 1.806 1.806 0 0 0-.336.146.767.767 0 0 0-.25.23.6.6 0 0 0-.093.343c0 .119.03.232.089.34a.687.687 0 0 0 .283.262c.129.067.297.101.505.101zm5.197.602c-.409 0-.754-.101-1.034-.303a1.924 1.924 0 0 1-.638-.828 3.101 3.101 0 0 1-.214-1.175c0-.439.072-.832.214-1.18.146-.347.358-.62.638-.819.283-.2.629-.299 1.038-.299.404 0 .751.101 1.042.303.294.199.519.472.675.819.156.348.234.74.234 1.176 0 .436-.078.828-.234 1.175a1.97 1.97 0 0 1-.675.828c-.291.202-.639.303-1.046.303zm-2.007 1.817v-6.3h.642v3.211h.081v3.089h-.723zm1.918-2.476c.288 0 .527-.072.715-.218.189-.145.33-.342.424-.589.095-.251.142-.531.142-.84 0-.307-.047-.585-.142-.832a1.262 1.262 0 0 0-.428-.59c-.191-.145-.435-.218-.731-.218-.283 0-.517.07-.703.21a1.23 1.23 0 0 0-.416.578 2.44 2.44 0 0 0-.137.852c0 .317.045.601.133.852.092.248.232.443.42.585.189.14.43.21.723.21zm5.365.538a3.236 3.236 0 0 1-.768.06 1.708 1.708 0 0 1-.67-.149.96.96 0 0 1-.448-.436 1.28 1.28 0 0 1-.142-.521 21.519 21.519 0 0 1-.008-.602v-3.926h.719v3.894c0 .177.001.329.004.456a.725.725 0 0 0 .085.327c.097.172.25.273.46.303.213.03.469.021.768-.024v.618zm-2.92-3.768v-.594h2.92v.594h-2.92zm5.514 3.889c-.428 0-.803-.094-1.123-.283a1.975 1.975 0 0 1-.743-.796c-.178-.341-.267-.74-.267-1.195 0-.477.088-.888.263-1.236.175-.35.419-.619.731-.808a2.092 2.092 0 0 1 1.106-.286c.439 0 .812.101 1.119.303.31.202.541.49.695.864.156.374.223.82.202 1.337h-.727v-.259c-.008-.536-.117-.935-.327-1.199-.21-.267-.523-.4-.937-.4-.445 0-.782.143-1.014.428-.232.285-.347.695-.347 1.228 0 .514.115.912.347 1.195.232.283.561.424.989.424.289 0 .539-.066.752-.198.212-.132.379-.321.5-.569l.691.238a1.96 1.96 0 0 1-.767.897c-.34.21-.721.315-1.143.315zm-1.612-2.1v-.578h3.223v.578h-3.223zm4.494 1.979v-4.362h.642v1.054l-.105-.137c.051-.135.117-.259.198-.372a1.23 1.23 0 0 1 .279-.279c.113-.091.241-.161.383-.21.143-.048.288-.076.436-.084a1.38 1.38 0 0 1 .416.028v.674a1.364 1.364 0 0 0-.496-.032 1.008 1.008 0 0 0-.501.198c-.14.1-.249.221-.327.363a1.577 1.577 0 0 0-.158.465 2.892 2.892 0 0 0-.044.505v2.189h-.723zm4.503.117c-.52 0-.946-.113-1.28-.34a1.427 1.427 0 0 1-.61-.957l.735-.117a.927.927 0 0 0 .408.566c.213.137.476.206.791.206.299 0 .534-.062.703-.186a.592.592 0 0 0 .255-.505.49.49 0 0 0-.085-.299c-.057-.078-.174-.151-.352-.218a8.435 8.435 0 0 0-.795-.242 5.019 5.019 0 0 1-.909-.319c-.221-.111-.378-.239-.472-.384a.946.946 0 0 1-.142-.529c0-.256.07-.479.21-.67a1.34 1.34 0 0 1 .586-.449c.253-.105.546-.157.88-.157.331 0 .628.052.889.157.261.105.471.255.63.449.161.191.257.414.287.67l-.735.133a.795.795 0 0 0-.34-.553c-.188-.135-.432-.206-.731-.214-.282-.011-.513.039-.69.149-.175.111-.263.26-.263.449 0 .105.033.195.097.27.067.076.19.147.368.214.18.068.441.144.783.23.385.097.688.204.909.319.223.114.382.248.476.404.095.154.142.344.142.57 0 .42-.155.751-.465.993-.309.24-.736.36-1.28.36zm6.256.004c-.41 0-.754-.101-1.034-.303a1.917 1.917 0 0 1-.638-.828 3.082 3.082 0 0 1-.214-1.175c0-.439.071-.832.214-1.18.145-.347.358-.62.638-.819.282-.2.628-.299 1.038-.299.404 0 .751.101 1.042.303.293.199.518.472.674.819.156.348.234.74.234 1.176 0 .436-.078.828-.234 1.175a1.976 1.976 0 0 1-.674.828c-.291.202-.64.303-1.046.303zm-2.008 1.817v-6.3h.643v3.211h.08v3.089h-.723zm1.919-2.476c.288 0 .526-.072.715-.218.188-.145.329-.342.424-.589a2.38 2.38 0 0 0 .141-.84c0-.307-.047-.585-.141-.832a1.276 1.276 0 0 0-.428-.59c-.192-.145-.435-.218-.731-.218-.283 0-.517.07-.703.21-.186.137-.325.33-.416.578a2.417 2.417 0 0 0-.137.852c0 .317.044.601.133.852.091.248.231.443.42.585.188.14.429.21.723.21zm4.819.659c-.428 0-.803-.094-1.123-.283a1.975 1.975 0 0 1-.743-.796c-.178-.341-.267-.74-.267-1.195 0-.477.088-.888.263-1.236.175-.35.419-.619.731-.808a2.092 2.092 0 0 1 1.106-.286c.439 0 .812.101 1.119.303.31.202.541.49.695.864.156.374.223.82.202 1.337h-.727v-.259c-.008-.536-.117-.935-.327-1.199-.21-.267-.523-.4-.937-.4-.445 0-.782.143-1.014.428-.232.285-.347.695-.347 1.228 0 .514.115.912.347 1.195.232.283.561.424.989.424.289 0 .539-.066.752-.198.212-.132.379-.321.5-.569l.691.238a1.96 1.96 0 0 1-.767.897c-.34.21-.721.315-1.143.315zm-1.612-2.1v-.578h3.223v.578h-3.223zm4.494 1.979v-4.362h.642v1.054l-.105-.137c.051-.135.117-.259.198-.372a1.23 1.23 0 0 1 .279-.279c.113-.091.241-.161.383-.21.143-.048.288-.076.436-.084a1.38 1.38 0 0 1 .416.028v.674a1.364 1.364 0 0 0-.496-.032 1.008 1.008 0 0 0-.501.198c-.14.1-.249.221-.327.363a1.577 1.577 0 0 0-.158.465 2.892 2.892 0 0 0-.044.505v2.189h-.723zm5.559 0-1.333-4.366.715.004.973 3.19.982-3.19h.634l.977 3.19.977-3.19h.711l-1.332 4.362h-.598l-1.054-3.316-1.054 3.316h-.598zm7.098.121c-.428 0-.802-.094-1.123-.283a1.982 1.982 0 0 1-.743-.796c-.178-.341-.266-.74-.266-1.195 0-.477.087-.888.262-1.236.175-.35.419-.619.731-.808.315-.191.684-.286 1.107-.286.439 0 .811.101 1.118.303.31.202.542.49.695.864.156.374.223.82.202 1.337h-.727v-.259c-.008-.536-.117-.935-.327-1.199-.21-.267-.522-.4-.937-.4-.444 0-.782.143-1.014.428-.231.285-.347.695-.347 1.228 0 .514.116.912.347 1.195.232.283.562.424.99.424.288 0 .538-.066.751-.198.213-.132.379-.321.501-.569l.69.238a1.954 1.954 0 0 1-.767.897c-.339.21-.72.315-1.143.315zm-1.611-2.1v-.578h3.222v.578h-3.222zm6.383 2.1c-.428 0-.802-.094-1.123-.283a1.982 1.982 0 0 1-.743-.796c-.177-.341-.266-.74-.266-1.195 0-.477.087-.888.262-1.236.175-.35.419-.619.731-.808.315-.191.684-.286 1.107-.286.439 0 .812.101 1.119.303.309.202.541.49.694.864.156.374.224.82.202 1.337h-.727v-.259c-.008-.536-.117-.935-.327-1.199-.21-.267-.522-.4-.937-.4-.444 0-.782.143-1.014.428-.231.285-.347.695-.347 1.228 0 .514.116.912.347 1.195.232.283.562.424.99.424.288 0 .538-.066.751-.198.213-.132.38-.321.501-.569l.69.238a1.954 1.954 0 0 1-.767.897c-.339.21-.72.315-1.143.315zm-1.611-2.1v-.578h3.223v.578h-3.223zm4.489 1.979.004-5.816h.727v3.554l1.83-2.1h.933l-1.927 2.181 2.153 2.181h-1.006l-1.983-2.1v2.1h-.731z" fill="#1F1F1F"/>
        <path d="M285.415 147.385c-.674 0-1.274-.136-1.8-.408a3.182 3.182 0 0 1-1.233-1.136 3.116 3.116 0 0 1-.443-1.654c0-.527.118-1.023.353-1.489.24-.466.584-.847 1.032-1.142l-.042.581a4.215 4.215 0 0 1-.796-1.038 2.642 2.642 0 0 1-.284-1.233c0-.577.136-1.08.409-1.509a2.779 2.779 0 0 1 1.135-.997c.485-.24 1.041-.36 1.669-.36.627 0 1.181.12 1.661.36.485.236.863.568 1.136.997.277.429.415.932.415 1.509 0 .457-.09.868-.27 1.233-.18.36-.454.711-.824 1.052v-.581c.439.277.776.65 1.011 1.121.24.471.36.969.36 1.496 0 .618-.15 1.17-.45 1.654-.3.48-.713.859-1.239 1.136-.526.272-1.126.408-1.8.408zm0-1.772c.443 0 .803-.12 1.08-.36s.415-.596.415-1.066c0-.467-.138-.822-.415-1.067-.277-.249-.637-.373-1.08-.373-.443 0-.801.124-1.073.373-.273.245-.409.6-.409 1.067 0 .47.136.826.409 1.066.272.24.63.36 1.073.36zm0-4.653c.36 0 .653-.087.879-.263.226-.18.339-.457.339-.831 0-.373-.113-.65-.339-.83-.226-.185-.519-.277-.879-.277s-.653.092-.88.277c-.226.18-.339.457-.339.83 0 .374.113.651.339.831.227.176.52.263.88.263z" fill="#1F1F1F"/>
        <rect x="274.186" y="135.774" width="2.308" height="12.639" rx="1.154" fill="#F7758F"/>
    </g>
    <rect x="86.324" y="82.012" width="158.446" height="106.386" rx="7.243" fill="#F5FAF6"/>
    <g filter="url(#yma0brovpd)">
        <rect x="32" y="126.189" width="164.375" height="120.811" rx="6" fill="#fff"/>
        <path stroke="#E0E0E0" stroke-width=".499" d="M57.104 137.439v91.276M57.353 228.466h128.686M57.852 206.021H185.54M57.852 183.077H185.54M57.852 160.133H185.54M57.852 137.189H185.54"/>
        <path opacity=".6" d="M54.6 239.656c-.403 0-.744-.109-1.024-.328a1.65 1.65 0 0 1-.576-.88l.708-.168c.043.195.145.36.308.496a.869.869 0 0 0 .568.204 1 1 0 0 0 .424-.1.71.71 0 0 0 .332-.336.902.902 0 0 0 .092-.352c.008-.13.012-.284.012-.46v-3.952h.72v3.952c0 .166-.001.314-.004.444 0 .131-.013.256-.04.376a1.17 1.17 0 0 1-.144.36 1.365 1.365 0 0 1-.58.564c-.24.12-.505.18-.796.18zm3.993.004c-.323 0-.594-.058-.812-.176a1.251 1.251 0 0 1-.492-.472 1.283 1.283 0 0 1-.164-.64c0-.226.042-.422.128-.588.088-.168.21-.306.368-.416.157-.112.345-.2.564-.264a6.45 6.45 0 0 1 .688-.144c.256-.042.514-.081.776-.116.261-.034.505-.068.732-.1l-.256.148c.008-.384-.07-.668-.232-.852-.16-.184-.438-.276-.832-.276-.262 0-.491.06-.688.18-.195.118-.332.31-.412.576l-.676-.204c.104-.378.305-.676.604-.892.298-.216.692-.324 1.18-.324.392 0 .728.071 1.008.212.282.139.485.35.608.632.061.134.1.279.116.436.016.155.024.318.024.488v2.672h-.632v-1.036l.148.096c-.163.35-.391.614-.684.792-.291.179-.646.268-1.064.268zm.108-.596a1.5 1.5 0 0 0 .664-.136c.189-.093.341-.214.456-.364a1.19 1.19 0 0 0 .224-.496c.04-.133.061-.281.064-.444.005-.165.008-.292.008-.38l.248.108c-.232.032-.46.063-.684.092-.224.03-.436.062-.636.096-.2.032-.38.071-.54.116a1.85 1.85 0 0 0-.332.144.762.762 0 0 0-.248.228.594.594 0 0 0-.092.34c0 .118.029.23.088.336a.674.674 0 0 0 .28.26c.128.067.294.1.5.1zm6.24.476v-2.164c0-.205-.019-.402-.056-.592a1.492 1.492 0 0 0-.188-.508.972.972 0 0 0-.36-.36 1.105 1.105 0 0 0-.568-.132 1.26 1.26 0 0 0-.488.092.965.965 0 0 0-.372.272 1.33 1.33 0 0 0-.244.464 2.254 2.254 0 0 0-.084.652l-.468-.144c0-.418.074-.777.224-1.076.152-.301.364-.532.636-.692a1.87 1.87 0 0 1 .968-.244c.28 0 .518.044.716.132.197.088.361.206.492.352.13.144.233.307.308.488.074.179.126.362.156.548.032.184.048.359.048.524v2.388h-.72zm-3.08 0v-4.32h.64v1.156h.08v3.164h-.72zM42.654 227.239l.004-.64 2.556-2.3c.213-.192.356-.373.428-.544.075-.173.112-.351.112-.532 0-.221-.05-.421-.152-.6a1.131 1.131 0 0 0-1.008-.58 1.186 1.186 0 0 0-1.036.592c-.101.179-.15.373-.148.584h-.728c0-.363.084-.683.252-.96.168-.28.396-.499.684-.656.29-.16.62-.24.988-.24.357 0 .677.083.96.248a1.836 1.836 0 0 1 .916 1.62c0 .251-.032.468-.096.652a1.574 1.574 0 0 1-.288.512 4.99 4.99 0 0 1-.492.496l-2.124 1.908-.092-.24h3.092v.68h-3.828zm6.729.124c-.373 0-.707-.084-1-.252a1.913 1.913 0 0 1-.692-.692 1.976 1.976 0 0 1-.252-1v-2.112c0-.373.084-.707.252-1 .17-.293.401-.524.692-.692a1.976 1.976 0 0 1 1-.252c.373 0 .707.084 1 .252.293.168.524.399.692.692.168.293.252.627.252 1v2.112c0 .373-.084.707-.252 1a1.873 1.873 0 0 1-.692.692 1.976 1.976 0 0 1-1 .252zm0-.684c.227 0 .432-.055.616-.164a1.24 1.24 0 0 0 .44-.44c.11-.187.164-.392.164-.616v-2.196c0-.227-.055-.432-.164-.616a1.24 1.24 0 0 0-.44-.44 1.186 1.186 0 0 0-.616-.164 1.2 1.2 0 0 0-.616.164 1.24 1.24 0 0 0-.44.44c-.11.184-.164.389-.164.616v2.196c0 .224.055.429.164.616.11.184.256.331.44.44a1.2 1.2 0 0 0 .616.164zM44.434 186.967a1.925 1.925 0 0 1-1.704-.984 2.068 2.068 0 0 1-.26-1.036v-1.916c0-.403.087-.759.26-1.068.176-.312.416-.555.72-.728a2.067 2.067 0 0 1 1.048-.264c.318 0 .612.065.884.196.275.128.506.313.692.556l-.532.472a1.25 1.25 0 0 0-.448-.4 1.238 1.238 0 0 0-.596-.148 1.25 1.25 0 0 0-.676.184c-.195.12-.348.28-.46.48a1.275 1.275 0 0 0-.168.64v1.156l-.156-.176c.168-.24.382-.432.64-.576.259-.144.539-.216.84-.216a1.843 1.843 0 0 1 1.632.936c.166.285.248.607.248.964s-.09.681-.268.972a2.008 2.008 0 0 1-.716.696c-.296.173-.623.26-.98.26zm0-.688c.23 0 .439-.055.628-.164a1.242 1.242 0 0 0 .616-1.076 1.21 1.21 0 0 0-.168-.628 1.205 1.205 0 0 0-.448-.448 1.19 1.19 0 0 0-.624-.168 1.244 1.244 0 0 0-1.244 1.244 1.223 1.223 0 0 0 .612 1.072c.19.112.399.168.628.168zm4.949.688c-.373 0-.707-.084-1-.252a1.913 1.913 0 0 1-.692-.692 1.976 1.976 0 0 1-.252-1v-2.112c0-.373.084-.707.252-1 .17-.293.401-.524.692-.692a1.976 1.976 0 0 1 1-.252c.373 0 .707.084 1 .252.293.168.524.399.692.692.168.293.252.627.252 1v2.112c0 .373-.084.707-.252 1a1.873 1.873 0 0 1-.692.692 1.976 1.976 0 0 1-1 .252zm0-.684c.227 0 .432-.055.616-.164a1.24 1.24 0 0 0 .44-.44c.11-.187.164-.392.164-.616v-2.196c0-.227-.055-.432-.164-.616a1.24 1.24 0 0 0-.44-.44 1.186 1.186 0 0 0-.616-.164 1.2 1.2 0 0 0-.616.164 1.24 1.24 0 0 0-.44.44c-.11.184-.164.389-.164.616v2.196c0 .224.055.429.164.616.11.184.256.331.44.44a1.2 1.2 0 0 0 .616.164zM39.691 143.451v-4.972l-1.084.656v-.796l1.084-.648h.724v5.76h-.724zm4.19.12c-.373 0-.707-.084-1-.252a1.92 1.92 0 0 1-.692-.692 1.978 1.978 0 0 1-.252-1v-2.112c0-.374.084-.707.252-1 .17-.294.401-.524.692-.692a1.976 1.976 0 0 1 1-.252c.373 0 .707.084 1 .252.293.168.524.398.692.692.168.293.252.626.252 1v2.112c0 .373-.084.706-.252 1a1.88 1.88 0 0 1-.692.692 1.976 1.976 0 0 1-1 .252zm0-.684c.227 0 .432-.055.616-.164.184-.11.33-.256.44-.44.11-.187.164-.392.164-.616v-2.196c0-.227-.055-.432-.164-.616a1.24 1.24 0 0 0-.44-.44 1.177 1.177 0 0 0-.616-.164c-.224 0-.43.054-.616.164a1.24 1.24 0 0 0-.44.44c-.11.184-.164.389-.164.616v2.196c0 .224.055.429.164.616.11.184.256.33.44.44a1.2 1.2 0 0 0 .616.164zm5.008.684c-.374 0-.707-.084-1-.252a1.92 1.92 0 0 1-.692-.692 1.978 1.978 0 0 1-.252-1v-2.112c0-.374.084-.707.252-1 .17-.294.401-.524.692-.692a1.976 1.976 0 0 1 1-.252c.373 0 .706.084 1 .252.293.168.524.398.692.692.168.293.252.626.252 1v2.112c0 .373-.084.706-.252 1a1.88 1.88 0 0 1-.692.692 1.976 1.976 0 0 1-1 .252zm0-.684c.226 0 .432-.055.616-.164.184-.11.33-.256.44-.44.11-.187.164-.392.164-.616v-2.196c0-.227-.055-.432-.164-.616a1.24 1.24 0 0 0-.44-.44 1.177 1.177 0 0 0-.616-.164c-.224 0-.43.054-.616.164a1.24 1.24 0 0 0-.44.44c-.11.184-.164.389-.164.616v2.196c0 .224.054.429.164.616.11.184.256.33.44.44a1.2 1.2 0 0 0 .616.164zM92.464 239.54v-5.76h3.36v.712h-2.648v1.812h2.168v.712h-2.168v2.524h-.712zm5.833.12a2.15 2.15 0 0 1-1.112-.28 1.96 1.96 0 0 1-.736-.788c-.176-.338-.264-.733-.264-1.184 0-.472.087-.88.26-1.224.174-.346.415-.613.724-.8a2.074 2.074 0 0 1 1.096-.284c.435 0 .804.1 1.108.3.307.2.536.486.688.856.155.371.222.812.2 1.324h-.72v-.256c-.008-.53-.116-.926-.324-1.188-.208-.264-.517-.396-.928-.396-.44 0-.774.142-1.004.424-.23.283-.344.688-.344 1.216 0 .51.115.904.344 1.184.23.28.556.42.98.42.286 0 .534-.065.744-.196.21-.13.376-.318.496-.564l.684.236a1.93 1.93 0 0 1-.76.888 2.107 2.107 0 0 1-1.132.312zm-1.596-2.08v-.572h3.192v.572h-3.192zm6.435 2.08c-.406 0-.747-.1-1.024-.3a1.888 1.888 0 0 1-.632-.82 3.04 3.04 0 0 1-.212-1.164c0-.434.07-.824.212-1.168.144-.344.354-.614.632-.812.28-.197.622-.296 1.028-.296.4 0 .744.1 1.032.3.29.198.513.468.668.812.154.344.232.732.232 1.164 0 .432-.078.82-.232 1.164a1.954 1.954 0 0 1-.668.82c-.288.2-.634.3-1.036.3zm-1.988-.12v-5.76h.716v2.58h-.08v3.18h-.636zm1.9-.532c.285 0 .521-.072.708-.216.186-.144.326-.338.42-.584.093-.248.14-.525.14-.832 0-.304-.047-.578-.14-.824a1.256 1.256 0 0 0-.424-.584c-.19-.144-.431-.216-.724-.216-.28 0-.512.07-.696.208a1.208 1.208 0 0 0-.412.572 2.399 2.399 0 0 0-.136.844c0 .315.044.596.132.844.09.246.229.439.416.58.186.139.425.208.716.208zM131.869 239.54v-5.76h.648l2.176 4.588 2.164-4.588h.656v5.756h-.676v-4.192l-1.956 4.196h-.38l-1.956-4.196v4.196h-.676zm7.993.12c-.322 0-.593-.058-.812-.176a1.251 1.251 0 0 1-.492-.472 1.286 1.286 0 0 1-.164-.64c0-.226.043-.422.128-.588.088-.168.211-.306.368-.416.158-.112.346-.2.564-.264.206-.056.435-.104.688-.144.256-.042.515-.081.776-.116.262-.034.506-.068.732-.1l-.256.148c.008-.384-.069-.668-.232-.852-.16-.184-.437-.276-.832-.276a1.3 1.3 0 0 0-.688.18c-.194.118-.332.31-.412.576l-.676-.204c.104-.378.306-.676.604-.892.299-.216.692-.324 1.18-.324.392 0 .728.071 1.008.212.283.139.486.35.608.632.062.134.1.279.116.436.016.155.024.318.024.488v2.672h-.632v-1.036l.148.096c-.162.35-.39.614-.684.792-.29.179-.645.268-1.064.268zm.108-.596c.256 0 .478-.045.664-.136a1.25 1.25 0 0 0 .456-.364c.115-.152.19-.317.224-.496.04-.133.062-.281.064-.444.006-.165.008-.292.008-.38l.248.108c-.232.032-.46.063-.684.092-.224.03-.436.062-.636.096-.2.032-.38.071-.54.116a1.86 1.86 0 0 0-.332.144.765.765 0 0 0-.248.228.597.597 0 0 0-.092.34c0 .118.03.23.088.336a.68.68 0 0 0 .28.26c.128.067.295.1.5.1zm3.164.476v-4.32h.636v1.044l-.104-.136a1.64 1.64 0 0 1 .196-.368c.083-.112.175-.204.276-.276.112-.09.239-.16.38-.208a1.62 1.62 0 0 1 .432-.084 1.42 1.42 0 0 1 .412.028v.668a1.364 1.364 0 0 0-.492-.032 1.005 1.005 0 0 0-.496.196 1.09 1.09 0 0 0-.324.36 1.612 1.612 0 0 0-.156.46c-.029.163-.044.33-.044.5v2.168h-.716zM171.371 239.54l1.928-5.76h.992l1.928 5.76h-.74l-1.804-5.344h.224l-1.788 5.344h-.74zm.928-1.348v-.668h2.992v.668h-2.992zm6.62 1.468c-.405 0-.747-.1-1.024-.3a1.896 1.896 0 0 1-.632-.82 3.06 3.06 0 0 1-.212-1.164c0-.434.071-.824.212-1.168.144-.344.355-.614.632-.812.28-.197.623-.296 1.028-.296.4 0 .744.1 1.032.3a1.9 1.9 0 0 1 .668.812c.155.344.232.732.232 1.164 0 .432-.077.82-.232 1.164a1.947 1.947 0 0 1-.668.82c-.288.2-.633.3-1.036.3zm-1.988 1.8v-6.24h.636v3.18h.08v3.06h-.716zm1.9-2.452c.285 0 .521-.072.708-.216.187-.144.327-.338.42-.584.093-.248.14-.525.14-.832 0-.304-.047-.578-.14-.824a1.256 1.256 0 0 0-.424-.584c-.189-.144-.431-.216-.724-.216-.28 0-.512.07-.696.208a1.215 1.215 0 0 0-.412.572 2.399 2.399 0 0 0-.136.844c0 .315.044.596.132.844.091.246.229.439.416.58.187.139.425.208.716.208zm2.901.532v-4.32h.636v1.044l-.104-.136a1.64 1.64 0 0 1 .196-.368c.083-.112.175-.204.276-.276.112-.09.239-.16.38-.208.141-.048.285-.076.432-.084a1.42 1.42 0 0 1 .412.028v.668a1.364 1.364 0 0 0-.492-.032 1.001 1.001 0 0 0-.496.196 1.068 1.068 0 0 0-.324.36 1.553 1.553 0 0 0-.156.46c-.029.163-.044.33-.044.5v2.168h-.716z" fill="#000"/>
        <path transform="matrix(.81923 -.57346 .30416 .95262 56.855 228.715)" stroke="#05D6A1" stroke-width=".998" stroke-linecap="round" d="M.499-.499h163.388"/>
        <path d="m57.353 228.216 12.735-18.905a15.462 15.462 0 0 1 12.824-6.824h6.741c5.143 0 9.95-2.557 12.824-6.823l5.662-8.406a15.464 15.464 0 0 1 12.824-6.824h11.06c3.139 0 6.204-.956 8.787-2.74l46.725-32.275" stroke="#F7758F" stroke-width=".998" stroke-linecap="round"/>
    </g>
    <defs>
        <filter id="y5njcqzwea" x="33.725" y=".754" width="434.767" height="256.51" filterUnits="userSpaceOnUse" color-interpolation-filters="sRGB">
            <feFlood flood-opacity="0" result="BackgroundImageFix"/>
            <feColorMatrix in="SourceAlpha" values="0 0 0 0 0 0 0 0 0 0 0 0 0 0 0 0 0 0 127 0" result="hardAlpha"/>
            <feOffset dy="17.246"/>
            <feGaussianBlur stdDeviation="17.246"/>
            <feColorMatrix values="0 0 0 0 0.645913 0 0 0 0 0.80854 0 0 0 0 0.665626 0 0 0 1 0"/>
            <feBlend in2="BackgroundImageFix" result="effect1_dropShadow_1123_33332"/>
            <feBlend in="SourceGraphic" in2="effect1_dropShadow_1123_33332" result="shape"/>
        </filter>
        <filter id="y9xpxspd0b" x="63.6" y="15.692" width="375.015" height="196.759" filterUnits="userSpaceOnUse" color-interpolation-filters="sRGB">
            <feFlood flood-opacity="0" result="BackgroundImageFix"/>
            <feColorMatrix in="SourceAlpha" values="0 0 0 0 0 0 0 0 0 0 0 0 0 0 0 0 0 0 127 0" result="hardAlpha"/>
            <feOffset dy="2.308"/>
            <feGaussianBlur stdDeviation="2.308"/>
            <feColorMatrix values="0 0 0 0 0.641667 0 0 0 0 0.67375 0 0 0 0 0.7 0 0 0 0.1 0"/>
            <feBlend in2="BackgroundImageFix" result="effect1_dropShadow_1123_33332"/>
            <feBlend in="SourceGraphic" in2="effect1_dropShadow_1123_33332" result="shape"/>
        </filter>
        <filter id="yma0brovpd" x=".301" y="110.339" width="227.774" height="184.21" filterUnits="userSpaceOnUse" color-interpolation-filters="sRGB">
            <feFlood flood-opacity="0" result="BackgroundImageFix"/>
            <feColorMatrix in="SourceAlpha" values="0 0 0 0 0 0 0 0 0 0 0 0 0 0 0 0 0 0 127 0" result="hardAlpha"/>
            <feOffset dy="15.85"/>
            <feGaussianBlur stdDeviation="15.85"/>
            <feColorMatrix values="0 0 0 0 0.15834 0 0 0 0 0.161998 0 0 0 0 0.166874 0 0 0 0.24 0"/>
            <feBlend in2="BackgroundImageFix" result="effect1_dropShadow_1123_33332"/>
            <feBlend in="SourceGraphic" in2="effect1_dropShadow_1123_33332" result="shape"/>
        </filter>
        <clipPath id="1w1q2rurbc">
            <path fill="#fff" transform="translate(208.064 39.52)" d="M0 0h11.539v11.539H0z"/>
        </clipPath>
    </defs>
</svg>
