<svg width="127" height="128" viewBox="0 0 127 128" fill="none" xmlns="http://www.w3.org/2000/svg">
    <path d="M20.865 106.585c-1.171 1.172-3.077 1.176-4.191-.049a63.23 63.23 0 0 1 11.651-95.107 63.226 63.226 0 0 1 81.904 95.107c-1.115 1.225-3.02 1.221-4.192.049l-1.783-1.783c-1.172-1.172-1.165-3.066-.059-4.3a54.697 54.697 0 0 0 9.796-57.437 54.701 54.701 0 0 0-80.931-24.55 54.703 54.703 0 0 0-10.352 81.987c1.106 1.234 1.112 3.128-.06 4.3l-1.783 1.783z" fill="url(#a9d4ia96ea)"/>
    <defs>
        <linearGradient id="a9d4ia96ea" x1="63.451" y1="76" x2="63.451" y2="127.225" gradientUnits="userSpaceOnUse">
            <stop stop-color="#EFF7EC"/>
            <stop offset="1" stop-color="#E0E9E1"/>
        </linearGradient>
    </defs>
</svg>
