<svg width="127" height="128" viewBox="0 0 127 128" fill="none" xmlns="http://www.w3.org/2000/svg">
    <path d="M20.64 106.585c-1.172 1.172-3.077 1.176-4.192-.049a63.23 63.23 0 0 1 11.651-95.107 63.226 63.226 0 0 1 81.905 95.107c-1.115 1.225-3.021 1.221-4.192.049l-1.784-1.783c-1.171-1.172-1.164-3.066-.059-4.3a54.697 54.697 0 0 0 9.796-57.437 54.697 54.697 0 0 0-50.54-33.77 54.703 54.703 0 0 0-40.743 91.207c1.106 1.234 1.113 3.128-.059 4.3l-1.783 1.783z" fill="#A1D58F" fill-opacity=".16"/>
    <circle cx="63.226" cy="64" r="54.194" fill="#fff"/>
</svg>
