<svg width="433" height="435" viewBox="0 0 433 435" fill="none" xmlns="http://www.w3.org/2000/svg">
    <g filter="url(#rn8y53jhha)">
        <rect x="68.958" y="80" width="271.653" height="276.172" rx="14" fill="#fff"/>
    </g>
    <rect x="211.314" y="151.099" width="108.4" height="85.528" rx="6.538" fill="#F5FAF6"/>
    <rect x="211.314" y="249.54" width="108.4" height="85.528" rx="6.538" fill="#F5FAF6"/>
    <rect x="88.933" y="151.099" width="108.4" height="85.528" rx="6.538" fill="#F5FAF6"/>
    <rect x="88.933" y="249.54" width="108.4" height="85.528" rx="6.538" fill="#F5FAF6"/>
    <path d="M95.162 117.248c-.837 0-1.593-.147-2.268-.44a4.304 4.304 0 0 1-1.655-1.271c-.43-.554-.701-1.213-.816-1.977l2.228-.33c.157.649.481 1.149.973 1.499a2.818 2.818 0 0 0 1.679.526 3.2 3.2 0 0 0 1.02-.165c.33-.11.599-.272.808-.486.215-.215.322-.479.322-.793a.983.983 0 0 0-.055-.329.83.83 0 0 0-.165-.306 1.198 1.198 0 0 0-.337-.267 2.535 2.535 0 0 0-.542-.228l-2.934-.863a8.755 8.755 0 0 1-.77-.267 3.374 3.374 0 0 1-.839-.494 2.577 2.577 0 0 1-.682-.847c-.178-.356-.267-.803-.267-1.342 0-.758.19-1.389.573-1.891.382-.502.892-.876 1.53-1.122.638-.246 1.344-.366 2.118-.361.78.011 1.475.144 2.087.4a4.003 4.003 0 0 1 1.538 1.122c.413.487.712 1.083.895 1.789l-2.307.393a2.036 2.036 0 0 0-.463-.926 2.219 2.219 0 0 0-.808-.573 2.69 2.69 0 0 0-.973-.212 2.62 2.62 0 0 0-.95.141c-.293.1-.533.246-.721.44a.968.968 0 0 0-.275.69c0 .246.076.447.228.604.151.152.342.275.572.369.23.094.466.173.706.235l1.962.534c.293.078.617.183.973.314.356.125.696.303 1.02.533.33.225.599.523.808.895.215.371.322.842.322 1.412 0 .607-.128 1.138-.385 1.593-.25.45-.59.824-1.02 1.122a4.745 4.745 0 0 1-1.46.659 6.361 6.361 0 0 1-1.67.22zm9.413.015c-.664 0-1.205-.112-1.624-.337a2.712 2.712 0 0 1-.98-.855 3.618 3.618 0 0 1-.495-1.075 5.57 5.57 0 0 1-.18-1.028 11.282 11.282 0 0 1-.032-.675v-4.755h2.166v4.002c0 .194.01.442.031.745.021.299.087.599.196.903.11.303.288.557.534.761.251.204.604.306 1.059.306.183 0 .379-.029.589-.087.209-.057.405-.167.588-.329.183-.167.332-.411.447-.73.121-.324.181-.748.181-1.271l1.224.581c0 .669-.136 1.297-.408 1.883a3.37 3.37 0 0 1-1.232 1.42c-.544.361-1.232.541-2.064.541zm2.747-.251v-2.809h-.267v-5.665h2.15v8.474h-1.883zm8.234.236c-.842 0-1.546-.196-2.111-.589a3.634 3.634 0 0 1-1.278-1.6c-.283-.675-.424-1.436-.424-2.284 0-.847.141-1.608.424-2.283.282-.675.698-1.208 1.247-1.6.549-.393 1.227-.589 2.032-.589.811 0 1.517.194 2.119.581a3.869 3.869 0 0 1 1.396 1.592c.335.67.502 1.436.502 2.299 0 .848-.164 1.609-.494 2.284a3.927 3.927 0 0 1-1.365 1.6c-.586.393-1.269.589-2.048.589zm-4.174-.236v-11.298h2.15v5.492h-.267v5.806h-1.883zm3.829-1.663c.46 0 .837-.115 1.13-.345.293-.23.51-.539.651-.926a3.83 3.83 0 0 0 .212-1.303c0-.47-.073-.899-.22-1.286a2 2 0 0 0-.683-.934c-.303-.235-.693-.353-1.169-.353-.444 0-.805.107-1.082.322-.272.214-.471.515-.597.902a4.395 4.395 0 0 0-.188 1.349c0 .513.063.963.188 1.35.126.387.33.688.612.902.288.215.67.322 1.146.322zm4.724 5.429v-1.992h.376c.487 0 .819-.11.997-.33.183-.22.274-.534.274-.942v-8.976h2.134v10.012c0 .675-.211 1.214-.635 1.616-.419.408-.986.612-1.703.612h-1.443zm1.647-13.416v-1.884h2.134v1.884h-2.134zm8.267 9.886c-.869 0-1.635-.186-2.299-.557a4.126 4.126 0 0 1-1.554-1.546c-.371-.659-.557-1.412-.557-2.26 0-.926.183-1.731.549-2.416a3.965 3.965 0 0 1 1.515-1.593c.643-.382 1.383-.573 2.22-.573.889 0 1.645.209 2.268.628.622.418 1.082 1.007 1.381 1.765.298.759.402 1.65.313 2.676h-2.11v-.785c0-.863-.139-1.483-.416-1.859-.272-.382-.719-.573-1.342-.573-.727 0-1.263.222-1.608.667-.34.439-.51 1.09-.51 1.953 0 .79.17 1.402.51 1.836.345.429.85.644 1.514.644.419 0 .777-.092 1.075-.275.298-.183.526-.447.683-.792l2.134.612a3.749 3.749 0 0 1-1.514 1.804 4.164 4.164 0 0 1-2.252.644zm-2.809-3.876v-1.585h5.618v1.585h-5.618zm12.152 3.876c-.879 0-1.632-.196-2.26-.589a3.886 3.886 0 0 1-1.444-1.6c-.334-.675-.502-1.436-.502-2.284 0-.857.173-1.624.518-2.299a3.982 3.982 0 0 1 1.475-1.592c.633-.387 1.381-.581 2.244-.581.999 0 1.836.254 2.511.761.68.502 1.114 1.19 1.302 2.064l-2.134.565c-.125-.44-.345-.782-.659-1.028a1.64 1.64 0 0 0-1.051-.369c-.45 0-.819.11-1.106.33-.288.214-.5.51-.636.886a3.661 3.661 0 0 0-.204 1.263c0 .738.162 1.337.486 1.797.33.455.816.683 1.46.683.481 0 .847-.11 1.098-.33.251-.219.44-.533.565-.941l2.181.455c-.24.899-.695 1.593-1.365 2.079-.669.486-1.496.73-2.479.73zm10.498-.236a8.159 8.159 0 0 1-1.726.142 4.138 4.138 0 0 1-1.506-.291 2.033 2.033 0 0 1-1.005-.902 2.593 2.593 0 0 1-.329-1.177 50.676 50.676 0 0 1-.016-1.365v-7.234h2.134v7.108c0 .33.003.628.008.895.01.261.065.47.165.627.188.299.489.461.902.487a7.01 7.01 0 0 0 1.373-.063v1.773zm-6.026-6.826v-1.648h6.026v1.648h-6.026zm11.056 6.826v-11.298h4.77c.11 0 .257.005.44.016.188.005.356.02.502.047.675.104 1.227.327 1.656.667a3 3 0 0 1 .957 1.286c.204.513.306 1.086.306 1.719s-.105 1.208-.314 1.726a3.015 3.015 0 0 1-.957 1.279c-.429.34-.978.562-1.648.667a6.089 6.089 0 0 1-.502.047c-.188.01-.335.015-.44.015h-2.636v3.829h-2.134zm2.134-5.822h2.542c.11 0 .23-.005.361-.015.131-.011.251-.032.361-.063.288-.078.51-.209.667-.392.157-.189.264-.395.322-.62.063-.23.094-.447.094-.651 0-.204-.031-.419-.094-.644a1.506 1.506 0 0 0-.322-.62c-.157-.188-.379-.321-.667-.4a1.922 1.922 0 0 0-.361-.063 4.764 4.764 0 0 0-.361-.015h-2.542v3.483zm11.858 6.058c-.869 0-1.635-.186-2.299-.557a4.126 4.126 0 0 1-1.554-1.546c-.371-.659-.557-1.412-.557-2.26 0-.926.183-1.731.549-2.416a3.965 3.965 0 0 1 1.515-1.593c.643-.382 1.383-.573 2.22-.573.889 0 1.645.209 2.268.628.622.418 1.082 1.007 1.381 1.765.298.759.402 1.65.313 2.676h-2.11v-.785c0-.863-.139-1.483-.416-1.859-.272-.382-.719-.573-1.342-.573-.727 0-1.263.222-1.608.667-.34.439-.51 1.09-.51 1.953 0 .79.17 1.402.51 1.836.345.429.85.644 1.514.644.419 0 .777-.092 1.075-.275.298-.183.526-.447.683-.792l2.134.612a3.749 3.749 0 0 1-1.514 1.804 4.164 4.164 0 0 1-2.252.644zm-2.809-3.876v-1.585h5.618v1.585h-5.618zm8.417 3.64v-8.474h1.883v2.072l-.204-.267c.11-.293.256-.56.44-.8.183-.241.408-.44.674-.597.204-.125.427-.222.667-.29.241-.073.489-.118.746-.133.256-.021.512-.016.769.015v1.993a2.177 2.177 0 0 0-.824-.07 2.27 2.27 0 0 0-.84.212 1.885 1.885 0 0 0-.635.463 1.876 1.876 0 0 0-.393.674 2.651 2.651 0 0 0-.133.871v4.331h-2.15zm7.173 0v-8.442c0-.215.005-.458.016-.73.01-.272.052-.546.125-.824.079-.277.22-.528.424-.753.262-.293.544-.492.847-.596a2.81 2.81 0 0 1 .895-.173c.288-.01.533-.016.737-.016h1.052v1.727h-.973c-.335 0-.583.086-.745.259a.832.832 0 0 0-.244.604v8.944h-2.134zm-1.334-6.826v-1.648h5.43v1.648h-5.43zm10.188 7.062c-.853 0-1.601-.191-2.244-.573a4.019 4.019 0 0 1-1.507-1.577c-.355-.675-.533-1.449-.533-2.323 0-.884.183-1.66.549-2.33.366-.675.871-1.2 1.514-1.577.644-.377 1.384-.565 2.221-.565.853 0 1.601.191 2.244.573.649.382 1.153.91 1.514 1.585.361.669.542 1.441.542 2.314 0 .879-.183 1.656-.55 2.331a3.995 3.995 0 0 1-1.514 1.577c-.643.376-1.389.565-2.236.565zm0-1.993c.685 0 1.195-.23 1.53-.691.34-.465.51-1.062.51-1.789 0-.753-.173-1.354-.518-1.804-.34-.45-.847-.675-1.522-.675-.466 0-.847.105-1.146.314-.298.209-.52.499-.667.871-.141.371-.211.803-.211 1.294 0 .759.17 1.363.51 1.813.345.444.85.667 1.514.667zm6.025 1.757v-8.474h1.883v2.072l-.204-.267c.11-.293.256-.56.44-.8.183-.241.408-.44.674-.597.204-.125.427-.222.667-.29.241-.073.489-.118.746-.133.256-.021.512-.016.769.015v1.993a2.177 2.177 0 0 0-.824-.07 2.27 2.27 0 0 0-.84.212 1.885 1.885 0 0 0-.635.463 1.876 1.876 0 0 0-.393.674 2.651 2.651 0 0 0-.133.871v4.331h-2.15zm16.667 0v-5.006c0-.559-.133-.993-.4-1.302-.262-.314-.625-.471-1.091-.471-.298 0-.557.071-.777.212-.219.136-.392.33-.517.581a1.914 1.914 0 0 0-.181.855l-.894-.596c0-.581.136-1.094.408-1.538.277-.445.646-.79 1.106-1.036a3.207 3.207 0 0 1 1.546-.377c.967 0 1.697.288 2.189.864.497.57.745 1.318.745 2.244v5.57h-2.134zm-10.216 0v-8.474h1.883v2.809h.267v5.665h-2.15zm5.116 0v-5.006c0-.559-.133-.993-.4-1.302-.262-.314-.625-.471-1.091-.471-.444 0-.803.155-1.075.463-.266.304-.4.698-.4 1.185l-.894-.628c0-.554.138-1.051.416-1.491a3.003 3.003 0 0 1 1.114-1.043c.47-.256.996-.385 1.577-.385.664 0 1.208.142 1.632.424.429.283.745.659.949 1.13.204.471.306.989.306 1.554v5.57h-2.134zm11.628.236c-.607 0-1.122-.115-1.545-.346a2.452 2.452 0 0 1-.958-.933 2.662 2.662 0 0 1-.321-1.295c0-.392.06-.75.18-1.075.12-.324.314-.609.581-.855.272-.251.635-.46 1.09-.628a7.929 7.929 0 0 1 1.122-.306c.434-.089.926-.172 1.475-.251l1.813-.274-.769.423c0-.502-.12-.871-.361-1.106-.241-.235-.643-.353-1.208-.353-.314 0-.641.076-.981.227-.34.152-.578.422-.714.809l-1.93-.612a3.275 3.275 0 0 1 1.208-1.711c.591-.439 1.397-.659 2.417-.659.748 0 1.412.115 1.993.345.58.23 1.02.628 1.318 1.193.167.314.267.628.298.941.031.314.047.665.047 1.052v5.178h-1.867v-1.742l.266.361c-.413.571-.86.984-1.341 1.24-.476.251-1.08.377-1.813.377zm.455-1.679c.393 0 .722-.068.989-.204.272-.142.486-.301.643-.479.162-.178.272-.327.33-.447.11-.23.172-.497.188-.801.021-.308.032-.564.032-.768l.627.156a84.15 84.15 0 0 0-1.538.267c-.392.068-.708.131-.949.189-.241.057-.452.12-.636.188a2.224 2.224 0 0 0-.51.274 1.007 1.007 0 0 0-.282.314.844.844 0 0 0-.086.385c0 .193.047.361.141.502a.942.942 0 0 0 .416.314c.178.073.389.11.635.11zm12.115 1.443v-4.001c0-.194-.011-.44-.031-.738a3.338 3.338 0 0 0-.197-.91 1.711 1.711 0 0 0-.541-.761c-.246-.204-.596-.306-1.051-.306-.183 0-.38.029-.589.086-.209.058-.405.17-.588.338-.183.162-.335.402-.455.722-.115.319-.173.742-.173 1.271l-1.224-.581c0-.67.136-1.297.408-1.883a3.386 3.386 0 0 1 1.224-1.42c.549-.361 1.24-.542 2.071-.542.665 0 1.206.113 1.625.338.418.225.742.51.972.855.236.345.403.706.503 1.083.099.371.159.711.18 1.02.021.308.031.533.031.675v4.754h-2.165zm-5.791 0v-8.474h1.899v2.809h.267v5.665h-2.166zm13.574.236c-.879 0-1.632-.196-2.26-.589a3.883 3.883 0 0 1-1.443-1.6c-.335-.675-.503-1.436-.503-2.284 0-.857.173-1.624.518-2.299a3.982 3.982 0 0 1 1.475-1.592c.633-.387 1.381-.581 2.244-.581.999 0 1.836.254 2.511.761.68.502 1.114 1.19 1.303 2.064l-2.135.565c-.125-.44-.345-.782-.659-1.028a1.64 1.64 0 0 0-1.051-.369c-.45 0-.819.11-1.106.33-.288.214-.5.51-.636.886a3.661 3.661 0 0 0-.204 1.263c0 .738.162 1.337.487 1.797.329.455.816.683 1.459.683.481 0 .847-.11 1.098-.33.251-.219.44-.533.565-.941l2.182.455c-.241.899-.696 1.593-1.366 2.079-.669.486-1.496.73-2.479.73zm9.123 0c-.869 0-1.635-.186-2.299-.557a4.126 4.126 0 0 1-1.554-1.546c-.371-.659-.557-1.412-.557-2.26 0-.926.183-1.731.549-2.416a3.965 3.965 0 0 1 1.515-1.593c.643-.382 1.383-.573 2.22-.573.889 0 1.645.209 2.268.628.622.418 1.083 1.007 1.381 1.765.298.759.402 1.65.314 2.676h-2.111v-.785c0-.863-.139-1.483-.416-1.859-.272-.382-.719-.573-1.342-.573-.727 0-1.263.222-1.608.667-.34.439-.51 1.09-.51 1.953 0 .79.17 1.402.51 1.836.345.429.85.644 1.514.644.419 0 .777-.092 1.075-.275.298-.183.526-.447.683-.792l2.134.612a3.749 3.749 0 0 1-1.514 1.804 4.164 4.164 0 0 1-2.252.644zm-2.809-3.876v-1.585h5.618v1.585h-5.618z" fill="#1F1F1F"/>
    <g opacity=".2" clip-path="url(#fwhznvewib)" stroke="#000" stroke-width="1.035" stroke-linecap="round" stroke-linejoin="round">
        <path d="M265.564 116.461a5.449 5.449 0 1 0 0-10.898 5.449 5.449 0 0 0 0 10.898zM265.564 113.192v-2.18M265.564 108.833h.006"/>
    </g>
    <rect x="210.776" y="249.54" width="108.4" height="85.528" rx="6.538" fill="#E0F6E3"/>
    <path d="M221.748 273.053v-.167l3.98-6.481h-3.823v-.884h5.393v.178l-3.96 6.47h3.907v.884h-5.497zm9.215.157c-.562 0-1.046-.127-1.454-.382a2.533 2.533 0 0 1-.937-1.057c-.219-.449-.329-.966-.329-1.548 0-.593.111-1.112.335-1.559.223-.446.538-.793.946-1.041.408-.251.888-.376 1.439-.376.565 0 1.051.127 1.459.382.408.251.72.601.937 1.051.219.446.329.961.329 1.543 0 .589-.11 1.109-.329 1.559-.22.446-.534.797-.942 1.051-.408.251-.893.377-1.454.377zm0-.884c.586 0 1.022-.195 1.308-.586.285-.391.428-.896.428-1.517 0-.638-.144-1.145-.434-1.522-.289-.38-.723-.57-1.302-.57-.394 0-.719.089-.973.267a1.584 1.584 0 0 0-.57.737 2.907 2.907 0 0 0-.189 1.088c0 .635.147 1.144.44 1.528.293.383.723.575 1.292.575zm6.283.884c-.562 0-1.046-.127-1.454-.382a2.533 2.533 0 0 1-.937-1.057c-.219-.449-.329-.966-.329-1.548 0-.593.111-1.112.335-1.559.223-.446.538-.793.946-1.041.408-.251.888-.376 1.439-.376.565 0 1.051.127 1.459.382.408.251.72.601.937 1.051.219.446.329.961.329 1.543 0 .589-.11 1.109-.329 1.559-.22.446-.534.797-.942 1.051-.408.251-.893.377-1.454.377zm0-.884c.586 0 1.022-.195 1.308-.586.286-.391.428-.896.428-1.517 0-.638-.144-1.145-.434-1.522-.289-.38-.723-.57-1.302-.57-.394 0-.718.089-.973.267a1.584 1.584 0 0 0-.57.737 2.907 2.907 0 0 0-.189 1.088c0 .635.147 1.144.44 1.528.293.383.723.575 1.292.575zm3.981.727v-7.689h.931v7.689h-.931zm4.907.157c-.561 0-1.046-.127-1.454-.382a2.524 2.524 0 0 1-.936-1.057c-.22-.449-.33-.966-.33-1.548 0-.593.112-1.112.335-1.559.223-.446.539-.793.947-1.041.408-.251.887-.376 1.438-.376.565 0 1.051.127 1.459.382.408.251.721.601.937 1.051.219.446.329.961.329 1.543 0 .589-.11 1.109-.329 1.559-.22.446-.534.797-.942 1.051-.408.251-.892.377-1.454.377zm0-.884c.586 0 1.022-.195 1.308-.586.286-.391.429-.896.429-1.517 0-.638-.145-1.145-.434-1.522-.29-.38-.724-.57-1.303-.57-.394 0-.718.089-.973.267a1.597 1.597 0 0 0-.57.737 2.908 2.908 0 0 0-.188 1.088c0 .635.146 1.144.439 1.528.293.383.724.575 1.292.575zm6.163 3.395c-.297 0-.586-.046-.868-.136a2.505 2.505 0 0 1-.78-.414 2.273 2.273 0 0 1-.586-.69l.853-.45c.139.276.336.476.591.602.258.125.523.188.795.188.359 0 .657-.066.895-.199.237-.129.411-.322.523-.58.115-.258.17-.579.167-.963v-1.543h.11v-4.132h.826v5.686c0 .153-.005.301-.015.444a2.873 2.873 0 0 1-.053.424c-.073.401-.218.73-.434.989a1.917 1.917 0 0 1-.837.58 3.35 3.35 0 0 1-1.187.194zm-.068-2.511c-.527 0-.978-.131-1.355-.392a2.596 2.596 0 0 1-.873-1.073 3.66 3.66 0 0 1-.304-1.522c0-.565.101-1.072.304-1.522a2.52 2.52 0 0 1 .873-1.062c.377-.261.827-.392 1.35-.392.533 0 .981.129 1.344.387.363.258.636.612.821 1.062.188.45.283.959.283 1.527 0 .562-.095 1.069-.283 1.522-.185.45-.458.808-.821 1.073-.363.261-.809.392-1.339.392zm.115-.853c.38 0 .692-.09.936-.272a1.6 1.6 0 0 0 .539-.758c.119-.324.178-.692.178-1.104a3.14 3.14 0 0 0-.178-1.104 1.554 1.554 0 0 0-.534-.748c-.24-.181-.545-.272-.915-.272-.384 0-.701.095-.952.283a1.681 1.681 0 0 0-.554.764c-.119.32-.178.68-.178 1.077 0 .401.061.764.183 1.088.122.321.305.576.549.764.248.188.556.282.926.282zm4.724 3.207 1.094-2.971.015.878-2.469-6.067h.979l1.935 4.88h-.335l1.815-4.88h.947l-3.076 8.16h-.905z" fill="#363C4F"/>
    <path d="M308.728 306.408c0 10.096-8.186 18.281-18.285 18.281-10.098 0-18.284-8.185-18.284-18.281 0-10.096 8.186-18.281 18.284-18.281 10.099 0 18.285 8.185 18.285 18.281zm-33.014 0c0 8.133 6.594 14.727 14.729 14.727 8.136 0 14.73-6.594 14.73-14.727 0-8.134-6.594-14.727-14.73-14.727-8.135 0-14.729 6.593-14.729 14.727z" fill="#CBEBCF"/>
    <g filter="url(#27162hxo5c)">
        <path d="M290.443 289.89c0-.974.792-1.772 1.761-1.678a18.291 18.291 0 0 1 13.078 7.514 18.289 18.289 0 0 1 2.502 16.48 18.284 18.284 0 0 1-26.882 9.796c-.831-.508-.983-1.622-.397-2.399.586-.778 1.687-.923 2.529-.435a14.762 14.762 0 0 0 17.732-2.215 14.763 14.763 0 0 0 4.268-12.76 14.759 14.759 0 0 0-12.832-12.435c-.966-.116-1.759-.895-1.759-1.868z" fill="#F7C86D"/>
    </g>
    <path d="M227.015 294.987v-1.868h-5.006v-1.765l3.617-7.666h2.158l-3.617 7.666h2.848v-2.943h1.915v2.943h1.059v1.765h-1.059v1.868h-1.915zm4.541-.016v-1.648l4.834-4.307c.376-.335.638-.652.784-.95.147-.298.22-.586.22-.863 0-.376-.081-.711-.243-1.004a1.84 1.84 0 0 0-1.656-.965c-.392 0-.74.091-1.043.274a1.908 1.908 0 0 0-.699.714c-.167.299-.246.62-.235.965h-1.946c0-.753.167-1.409.502-1.969.34-.56.806-.994 1.397-1.302.596-.309 1.284-.463 2.063-.463.722 0 1.371.162 1.946.486a3.503 3.503 0 0 1 1.358 1.334c.329.565.494 1.216.494 1.954 0 .538-.073.991-.22 1.357a3.168 3.168 0 0 1-.659 1.012 15.19 15.19 0 0 1-1.075 1.028l-3.429 3.037-.172-.471h5.555v1.781h-7.776zm11.231.016-1.255-1.256 10.051-10.043 1.255 1.263-10.051 10.036zm7.698.235c-.518 0-.992-.126-1.421-.377a2.981 2.981 0 0 1-1.02-1.02 2.734 2.734 0 0 1-.384-1.428c0-.512.131-.983.392-1.412a2.998 2.998 0 0 1 1.036-1.028 2.676 2.676 0 0 1 1.397-.384c.517 0 .991.128 1.42.384.429.251.769.591 1.02 1.02.256.424.384.897.384 1.42 0 .523-.128.999-.384 1.428a2.88 2.88 0 0 1-1.02 1.02 2.763 2.763 0 0 1-1.42.377zm0-1.616c.214 0 .413-.055.596-.165a1.24 1.24 0 0 0 .447-.44 1.15 1.15 0 0 0 .165-.604c0-.219-.055-.421-.165-.604a1.246 1.246 0 0 0-.447-.439 1.137 1.137 0 0 0-.596-.165c-.22 0-.422.055-.605.165a1.33 1.33 0 0 0-.447.439c-.11.183-.165.385-.165.604 0 .22.055.421.165.604.115.184.264.33.447.44.183.11.385.165.605.165zm-6.599-4.504a2.76 2.76 0 0 1-1.42-.377 2.945 2.945 0 0 1-1.028-1.02 2.776 2.776 0 0 1-.377-1.428c0-.512.131-.983.393-1.412a2.987 2.987 0 0 1 1.035-1.028 2.678 2.678 0 0 1 1.397-.384c.518 0 .989.128 1.412.384.429.251.772.591 1.028 1.02.256.424.385.897.385 1.42 0 .523-.129.999-.385 1.428a2.945 2.945 0 0 1-1.028 1.02 2.716 2.716 0 0 1-1.412.377zm0-1.616c.22 0 .421-.055.604-.165.183-.11.33-.256.439-.44a1.15 1.15 0 0 0 .165-.604c0-.219-.055-.421-.165-.604a1.256 1.256 0 0 0-.439-.439 1.15 1.15 0 0 0-.604-.165c-.22 0-.421.055-.604.165-.183.11-.33.256-.44.439a1.16 1.16 0 0 0-.164.604c0 .22.055.421.164.604.11.184.257.33.44.44.183.11.384.165.604.165z" fill="#363C4F"/>
    <g filter="url(#v2mh1v4s2d)">
        <rect x="36" y="266.515" width="146.367" height="115.485" rx="6.538" fill="#E0F6E3"/>
        <path d="M50.84 293.621v-7.533h2.935c.45 0 .834.093 1.15.278.322.184.566.428.733.732.171.3.257.624.257.973 0 .408-.105.765-.314 1.072a1.59 1.59 0 0 1-.848.633l-.01-.256c.485.129.861.366 1.13.711.268.345.403.757.403 1.235 0 .439-.091.819-.273 1.14-.177.321-.435.57-.774.748-.334.178-.732.267-1.192.267H50.84zm.942-.89h2.077c.279 0 .528-.05.748-.151.22-.105.392-.251.518-.44.129-.188.193-.415.193-.68a1.36 1.36 0 0 0-.172-.685 1.235 1.235 0 0 0-.476-.481 1.34 1.34 0 0 0-.706-.183h-2.182v2.62zm0-3.499h1.983c.223 0 .423-.047.601-.141.182-.098.325-.234.43-.408a1.14 1.14 0 0 0 .161-.612c0-.325-.11-.59-.33-.795-.219-.206-.507-.309-.862-.309h-1.983v2.265zm7.942 4.546c-.561 0-1.046-.128-1.454-.382a2.533 2.533 0 0 1-.936-1.057c-.22-.45-.33-.966-.33-1.548 0-.593.112-1.113.335-1.559.223-.446.539-.793.947-1.041.408-.251.887-.377 1.438-.377.565 0 1.051.128 1.46.382.407.251.72.602.936 1.052.22.446.33.96.33 1.543 0 .589-.11 1.109-.33 1.559a2.53 2.53 0 0 1-.942 1.051c-.408.251-.892.377-1.454.377zm0-.884c.586 0 1.022-.196 1.308-.586.286-.391.429-.897.429-1.517 0-.638-.145-1.146-.434-1.522-.29-.38-.724-.571-1.303-.571-.394 0-.718.089-.973.267a1.6 1.6 0 0 0-.57.738 2.914 2.914 0 0 0-.188 1.088c0 .634.146 1.144.439 1.527.293.384.724.576 1.292.576zm7.031.727a4.197 4.197 0 0 1-.994.078 2.207 2.207 0 0 1-.868-.193 1.256 1.256 0 0 1-.58-.565 1.675 1.675 0 0 1-.184-.675c-.007-.23-.01-.49-.01-.78v-5.084h.93v5.043c0 .23.003.427.006.591a.935.935 0 0 0 .11.423.767.767 0 0 0 .596.393c.276.038.607.028.994-.032v.801zm-3.782-4.881v-.769h3.782v.769h-3.782zm6.535 5.038c-.422 0-.776-.077-1.062-.231a1.637 1.637 0 0 1-.643-.617 1.677 1.677 0 0 1-.215-.837c0-.296.056-.552.168-.769.115-.219.275-.401.48-.544.206-.146.452-.261.738-.345.269-.073.569-.136.9-.188.335-.056.673-.107 1.015-.152.342-.045.66-.089.957-.131l-.335.194c.01-.502-.09-.874-.303-1.114-.21-.241-.572-.361-1.088-.361-.342 0-.642.078-.9.235-.254.154-.434.405-.539.753l-.884-.266c.136-.496.4-.884.79-1.167.39-.282.905-.424 1.543-.424.513 0 .952.093 1.319.278.37.181.634.457.794.826.08.175.131.365.152.57.021.203.032.415.032.638v3.495H71.6v-1.355l.194.125c-.213.457-.511.802-.895 1.036-.38.234-.844.351-1.391.351zm.141-.78c.335 0 .624-.059.868-.178.248-.122.447-.28.597-.476.15-.198.247-.415.293-.648.052-.175.08-.368.083-.581.007-.216.01-.382.01-.497l.325.141-.894.121c-.293.038-.57.08-.832.125a6.285 6.285 0 0 0-.706.152 2.358 2.358 0 0 0-.434.188.99.99 0 0 0-.325.298.778.778 0 0 0-.12.445c0 .153.038.3.115.439.08.14.202.253.366.34.168.088.386.131.654.131zm8.16.623v-2.83c0-.269-.024-.527-.073-.774a1.948 1.948 0 0 0-.246-.665 1.274 1.274 0 0 0-.47-.47c-.196-.116-.444-.173-.743-.173-.234 0-.447.04-.639.12-.188.077-.35.196-.486.356-.136.16-.243.363-.32.607-.072.24-.11.525-.11.852l-.611-.188c0-.547.098-1.017.293-1.407.199-.394.476-.696.832-.905.359-.213.78-.319 1.265-.319.367 0 .679.057.937.173.258.115.472.268.643.46.171.188.305.401.403.638.098.234.166.473.204.717.042.24.063.469.063.685v3.123h-.942zm-4.028 0v-5.65h.837v1.512h.105v4.138h-.942zm6.91 2.51 1.093-2.971.016.879-2.47-6.068h.979l1.935 4.881h-.334l1.815-4.881h.946l-3.075 8.16h-.905zM54.902 322.421c-.748 0-1.412-.152-1.992-.455a3.433 3.433 0 0 1-1.366-1.263c-.33-.539-.494-1.156-.494-1.852 0-.623.144-1.201.431-1.734.288-.534.71-.96 1.264-1.279l-.04.604a3.7 3.7 0 0 1-1.012-1.138 3.009 3.009 0 0 1-.353-1.459c0-.649.152-1.211.455-1.687a3.09 3.09 0 0 1 1.264-1.106c.533-.267 1.148-.4 1.843-.4.696 0 1.31.133 1.844.4.539.261.96.63 1.264 1.106.308.476.462 1.038.462 1.687 0 .539-.115 1.023-.345 1.452-.225.429-.567.816-1.028 1.161l-.007-.612c.544.308.96.732 1.247 1.271.293.533.44 1.111.44 1.734 0 .696-.168 1.313-.503 1.852a3.42 3.42 0 0 1-1.373 1.263c-.58.303-1.247.455-2 .455zm0-1.781c.555 0 1.005-.152 1.35-.455.35-.304.526-.748.526-1.334 0-.586-.173-1.031-.518-1.334-.345-.309-.798-.463-1.358-.463-.554 0-1.001.154-1.341.463-.34.303-.51.748-.51 1.334 0 .586.17 1.03.51 1.334.34.303.787.455 1.341.455zm0-5.383c.466 0 .843-.115 1.13-.345.293-.235.44-.591.44-1.067s-.147-.829-.44-1.059c-.287-.236-.664-.353-1.13-.353-.46 0-.837.117-1.13.353-.287.23-.431.583-.431 1.059s.144.832.432 1.067c.292.23.67.345 1.13.345zm5.6 6.913v-1.648l4.833-4.307c.376-.335.638-.652.784-.95.147-.298.22-.586.22-.863a2.04 2.04 0 0 0-.243-1.004 1.84 1.84 0 0 0-1.656-.965c-.392 0-.74.091-1.043.274-.298.178-.531.416-.699.714-.167.299-.245.62-.235.965h-1.946c0-.753.168-1.409.502-1.969.34-.56.806-.994 1.397-1.302.596-.309 1.284-.463 2.064-.463.721 0 1.37.162 1.945.486a3.502 3.502 0 0 1 1.358 1.334c.33.565.494 1.216.494 1.954 0 .538-.073.991-.22 1.357a3.176 3.176 0 0 1-.659 1.012c-.287.309-.646.651-1.075 1.028l-3.428 3.037-.173-.471h5.555v1.781h-7.776zm11.23.016-1.255-1.256 10.051-10.043 1.255 1.263-10.05 10.036zm7.698.235c-.518 0-.992-.126-1.42-.377a2.97 2.97 0 0 1-1.02-1.02 2.731 2.731 0 0 1-.385-1.428c0-.512.13-.983.392-1.412a2.994 2.994 0 0 1 1.036-1.028 2.676 2.676 0 0 1 1.397-.384c.517 0 .99.128 1.42.384.429.251.769.591 1.02 1.02.256.424.384.897.384 1.42 0 .523-.128.999-.384 1.428a2.882 2.882 0 0 1-1.02 1.02 2.761 2.761 0 0 1-1.42.377zm0-1.616c.214 0 .413-.055.596-.165.188-.11.337-.256.447-.44a1.15 1.15 0 0 0 .165-.604c0-.219-.055-.421-.165-.604a1.242 1.242 0 0 0-.447-.439 1.137 1.137 0 0 0-.596-.165c-.22 0-.422.055-.605.165-.183.11-.332.256-.447.439-.11.183-.165.385-.165.604 0 .22.055.421.165.604.115.184.264.33.447.44.183.11.385.165.605.165zm-6.599-4.504c-.518 0-.991-.126-1.42-.377a2.947 2.947 0 0 1-1.028-1.02 2.775 2.775 0 0 1-.377-1.428c0-.512.131-.983.393-1.412a2.993 2.993 0 0 1 1.035-1.028 2.676 2.676 0 0 1 1.397-.384c.518 0 .989.128 1.412.384.43.251.772.591 1.028 1.02.256.424.385.897.385 1.42 0 .523-.129.999-.385 1.428a2.947 2.947 0 0 1-1.028 1.02 2.72 2.72 0 0 1-1.412.377zm0-1.616c.22 0 .421-.055.604-.165.183-.11.33-.256.44-.44a1.15 1.15 0 0 0 .164-.604c0-.219-.055-.421-.165-.604a1.262 1.262 0 0 0-.439-.439 1.15 1.15 0 0 0-.604-.165c-.22 0-.421.055-.604.165-.183.11-.33.256-.44.439-.11.183-.164.385-.164.604 0 .22.055.421.164.604.11.184.257.33.44.44.183.11.384.165.604.165z" fill="#363C4F"/>
        <path d="M168.259 343.212c0 13.632-11.054 24.684-24.689 24.684s-24.688-11.052-24.688-24.684c0-13.633 11.053-24.684 24.688-24.684 13.635 0 24.689 11.051 24.689 24.684zm-44.578 0c0 10.982 8.905 19.885 19.889 19.885 10.985 0 19.889-8.903 19.889-19.885 0-10.983-8.904-19.886-19.889-19.886-10.984 0-19.889 8.903-19.889 19.886z" fill="#CBEBCF"/>
        <g filter="url(#au3m57enhe)">
            <path d="M143.57 320.908c0-1.314 1.068-2.392 2.377-2.265a24.688 24.688 0 0 1 21.437 18.059 24.678 24.678 0 0 1-11.252 27.76 24.699 24.699 0 0 1-29.75-3.531 24.688 24.688 0 0 1-5.486-27.486c.521-1.207 1.98-1.623 3.132-.989 1.152.634 1.557 2.078 1.064 3.297a19.921 19.921 0 0 0 4.605 21.76 19.922 19.922 0 0 0 24.012 2.85 19.92 19.92 0 0 0-7.764-36.932c-1.305-.157-2.375-1.208-2.375-2.523z" fill="#04C894"/>
        </g>
    </g>
    <g filter="url(#6jsjm4pdtf)">
        <rect x="259.714" y="120.729" width="137.286" height="108.32" rx="6.538" fill="#E0F6E3"/>
        <path d="M276.775 147.116c-.75 0-1.386-.166-1.909-.497a3.199 3.199 0 0 1-1.198-1.381c-.272-.589-.408-1.271-.408-2.045s.136-1.456.408-2.045c.276-.59.675-1.05 1.198-1.381.523-.332 1.159-.497 1.909-.497.872 0 1.589.221 2.15.664.565.443.954 1.039 1.167 1.789l-.947.251c-.154-.561-.427-1.004-.821-1.329-.395-.324-.911-.486-1.549-.486-.561 0-1.029.127-1.402.382-.373.254-.653.61-.842 1.067-.188.453-.284.982-.287 1.585-.004.6.088 1.128.277 1.585.188.453.471.809.847 1.067.377.254.846.382 1.407.382.638 0 1.154-.162 1.549-.487.394-.328.667-.77.821-1.328l.947.251c-.213.746-.602 1.342-1.167 1.789-.561.442-1.278.664-2.15.664zm8.486-.157v-2.83c0-.268-.024-.526-.073-.774a1.919 1.919 0 0 0-.246-.664 1.267 1.267 0 0 0-.471-.471c-.195-.115-.443-.173-.742-.173-.234 0-.447.04-.639.121-.188.076-.35.195-.486.355a1.738 1.738 0 0 0-.319.607c-.073.241-.11.525-.11.853l-.612-.189c0-.547.098-1.016.293-1.407.199-.394.476-.695.832-.905.359-.212.781-.319 1.265-.319.367 0 .679.058.937.173.258.115.472.268.643.46.171.189.305.401.403.638.098.234.166.473.204.717.042.241.063.469.063.685v3.123h-.942zm-4.028 0v-7.532h.837v4.158h.105v3.374h-.942zm8.778.157c-.555 0-1.04-.122-1.455-.366a2.566 2.566 0 0 1-.962-1.031c-.23-.443-.345-.959-.345-1.548 0-.617.113-1.151.34-1.601.226-.453.542-.802.947-1.046.408-.247.885-.371 1.433-.371.568 0 1.051.131 1.449.392.401.262.701.635.899 1.12.203.484.29 1.061.262 1.731h-.942v-.335c-.01-.694-.151-1.212-.423-1.553-.272-.346-.677-.518-1.214-.518-.575 0-1.013.185-1.313.554-.3.37-.45.9-.45 1.59 0 .666.15 1.183.45 1.549.3.366.727.549 1.282.549.373 0 .697-.086.973-.256.275-.171.491-.417.648-.738l.895.309a2.54 2.54 0 0 1-.994 1.161 2.754 2.754 0 0 1-1.48.408zm-2.087-2.72v-.748h4.174v.748h-4.174zm12.419 2.563.005-3.614c0-.422-.113-.752-.34-.989-.223-.241-.514-.361-.873-.361-.209 0-.408.049-.596.146a1.107 1.107 0 0 0-.461.45c-.118.203-.178.462-.178.78l-.491-.199c-.007-.401.075-.752.246-1.051.174-.304.411-.539.711-.707a2.05 2.05 0 0 1 1.015-.251c.589 0 1.053.18 1.391.539.338.356.507.835.507 1.439l-.005 3.818h-.931zm-6.758 0v-5.649h.832v1.511h.104v4.138h-.936zm3.384 0 .006-3.578c0-.432-.112-.771-.335-1.015-.223-.247-.52-.371-.889-.371-.367 0-.663.126-.89.377-.226.251-.34.584-.34.999l-.491-.293c0-.366.087-.694.261-.984.175-.289.412-.516.712-.68a2.056 2.056 0 0 1 1.02-.251c.38 0 .711.08.993.241.283.16.501.39.654.69.154.297.23.651.23 1.062l-.005 3.803h-.926zm5.778-6.648v-.963h.931v.963h-.931zm0 6.648v-5.649h.931v5.649h-.931zm4.634.152c-.673 0-1.225-.147-1.658-.44a1.853 1.853 0 0 1-.79-1.239l.952-.152a1.2 1.2 0 0 0 .529.732c.275.178.617.267 1.025.267.387 0 .69-.08.91-.241a.765.765 0 0 0 .329-.653.633.633 0 0 0-.109-.388c-.074-.101-.225-.195-.455-.282a10.965 10.965 0 0 0-1.031-.314c-.499-.132-.891-.27-1.177-.413-.286-.143-.49-.309-.612-.497a1.233 1.233 0 0 1-.183-.685c0-.332.091-.621.272-.869.181-.251.434-.444.759-.58a2.952 2.952 0 0 1 1.14-.204c.429 0 .812.068 1.151.204.338.136.61.329.816.58a1.6 1.6 0 0 1 .371.869l-.952.172a1.026 1.026 0 0 0-.439-.716c-.244-.175-.56-.267-.947-.277-.366-.014-.664.05-.895.193-.226.143-.34.337-.34.581 0 .136.042.252.126.35.087.098.246.19.476.277.234.088.572.187 1.015.299.498.125.891.263 1.177.413.289.146.495.321.617.523.122.199.183.444.183.737 0 .544-.201.973-.602 1.287-.401.31-.953.466-1.658.466zm6.568-.152a4.198 4.198 0 0 1-.994.078 2.205 2.205 0 0 1-.868-.193 1.243 1.243 0 0 1-.581-.565 1.656 1.656 0 0 1-.183-.675 25.75 25.75 0 0 1-.011-.779v-5.084h.932v5.042c0 .23.001.427.005.591a.933.933 0 0 0 .11.424.765.765 0 0 0 .596.392c.275.038.607.028.994-.031v.8zm-3.782-4.88v-.769h3.782v.769h-3.782zm4.929 4.88v-5.649h.831v1.365l-.136-.178a2.13 2.13 0 0 1 .257-.481c.108-.147.228-.267.361-.361a1.59 1.59 0 0 1 .497-.272c.184-.063.373-.099.564-.11.192-.014.372-.002.539.037v.873a1.78 1.78 0 0 0-.643-.042 1.31 1.31 0 0 0-.649.257 1.396 1.396 0 0 0-.423.471 2.013 2.013 0 0 0-.204.601 3.624 3.624 0 0 0-.058.654v2.835h-.936zm4.585 2.511 1.093-2.971.016.878-2.469-6.067h.978l1.935 4.88h-.334l1.815-4.88h.946l-3.075 8.16h-.905zM277.952 174.173c-.737 0-1.402-.172-1.993-.517a3.844 3.844 0 0 1-1.396-1.452c-.346-.617-.518-1.326-.518-2.126v-3.437c0-.858.17-1.603.51-2.236a3.64 3.64 0 0 1 1.443-1.467c.623-.346 1.345-.518 2.166-.518.57 0 1.112.097 1.624.29.513.188.968.492 1.365.91l-1.365 1.326a2.143 2.143 0 0 0-.73-.557 2.032 2.032 0 0 0-.894-.204c-.439 0-.824.105-1.153.314-.33.204-.586.473-.769.808a2.256 2.256 0 0 0-.267 1.075v1.875l-.345-.376c.324-.377.714-.67 1.169-.879a3.317 3.317 0 0 1 1.428-.322c.711 0 1.339.162 1.883.487a3.46 3.46 0 0 1 1.287 1.318c.313.554.47 1.187.47 1.899 0 .706-.18 1.347-.541 1.922a3.996 3.996 0 0 1-1.42 1.365 3.892 3.892 0 0 1-1.954.502zm0-1.812a1.99 1.99 0 0 0 1.004-.259c.304-.178.544-.416.722-.714.183-.303.275-.638.275-1.004s-.089-.701-.267-1.005a1.981 1.981 0 0 0-.722-.721 1.857 1.857 0 0 0-.996-.275c-.366 0-.701.091-1.004.275a1.981 1.981 0 0 0-.989 1.726c0 .355.086.685.259.988a2.1 2.1 0 0 0 .714.722c.303.178.638.267 1.004.267zm10.531 1.577v-1.867h-5.006v-1.766l3.617-7.665h2.158l-3.617 7.665h2.848v-2.942h1.915v2.942h1.059v1.766h-1.059v1.867h-1.915zm6.425 0-1.256-1.255 10.051-10.043 1.255 1.263-10.05 10.035zm7.697.235c-.518 0-.992-.125-1.421-.376a2.999 2.999 0 0 1-1.02-1.02 2.734 2.734 0 0 1-.384-1.428c0-.513.131-.984.392-1.413a3.004 3.004 0 0 1 1.036-1.027 2.667 2.667 0 0 1 1.397-.385c.517 0 .991.128 1.42.385.429.251.769.591 1.02 1.02.256.423.384.897.384 1.42 0 .523-.128.999-.384 1.428a2.897 2.897 0 0 1-1.02 1.02 2.762 2.762 0 0 1-1.42.376zm0-1.616c.214 0 .413-.055.596-.165.188-.11.337-.256.447-.439.11-.183.165-.385.165-.604 0-.22-.055-.421-.165-.604a1.249 1.249 0 0 0-.447-.44 1.137 1.137 0 0 0-.596-.165c-.22 0-.421.055-.605.165-.183.11-.332.257-.447.44a1.15 1.15 0 0 0-.165.604c0 .219.055.421.165.604.115.183.264.329.447.439.184.11.385.165.605.165zm-6.599-4.504a2.76 2.76 0 0 1-1.42-.376 2.961 2.961 0 0 1-1.028-1.02 2.776 2.776 0 0 1-.377-1.428c0-.513.131-.984.393-1.413a2.993 2.993 0 0 1 1.035-1.027 2.67 2.67 0 0 1 1.397-.385c.518 0 .989.128 1.412.385.429.251.772.591 1.028 1.02.256.423.385.897.385 1.42 0 .523-.129.999-.385 1.428a2.961 2.961 0 0 1-1.028 1.02 2.715 2.715 0 0 1-1.412.376zm0-1.616c.22 0 .421-.055.604-.165.183-.11.33-.256.44-.439a1.16 1.16 0 0 0 .164-.604c0-.22-.055-.421-.164-.604a1.27 1.27 0 0 0-.44-.44 1.15 1.15 0 0 0-.604-.165c-.22 0-.421.055-.604.165a1.27 1.27 0 0 0-.44.44 1.158 1.158 0 0 0-.164.604c0 .219.055.421.164.604.11.183.257.329.44.439.183.11.384.165.604.165z" fill="#363C4F"/>
        <path d="M383.767 192.667c0 12.787-10.367 23.152-23.156 23.152-12.789 0-23.157-10.365-23.157-23.152s10.368-23.152 23.157-23.152 23.156 10.365 23.156 23.152zm-41.811 0c0 10.301 8.352 18.652 18.655 18.652s18.655-8.351 18.655-18.652-8.352-18.652-18.655-18.652-18.655 8.351-18.655 18.652z" fill="#CBEBCF"/>
        <g filter="url(#4ji591xvyg)">
            <path d="M360.611 171.747c0-1.233 1.002-2.244 2.229-2.125a23.159 23.159 0 0 1 20.476 18.498 23.146 23.146 0 0 1-11.771 24.956c-1.087.582-2.4.035-2.875-1.103-.475-1.138.071-2.434 1.144-3.041a18.693 18.693 0 0 0 7.298-7.489 18.685 18.685 0 0 0-14.274-27.33c-1.224-.147-2.227-1.133-2.227-2.366z" fill="#F6C86D"/>
        </g>
    </g>
    <rect x="88.933" y="150.685" width="108.4" height="85.528" rx="6.538" fill="#E0F6E3"/>
    <path d="M100.114 174.131v-7.532h2.976c.074 0 .161.004.262.011.101.003.199.013.293.031.408.063.75.202 1.025.418.279.217.488.49.628.822.139.327.209.692.209 1.093 0 .397-.071.762-.214 1.093a2.05 2.05 0 0 1-.628.821 2.164 2.164 0 0 1-1.02.419 3.888 3.888 0 0 1-.555.042h-2.045v2.782h-.931zm.931-3.666h2.014c.066 0 .141-.004.225-.011.087-.007.169-.019.246-.036a1.21 1.21 0 0 0 .586-.304 1.34 1.34 0 0 0 .334-.523 1.832 1.832 0 0 0 0-1.229 1.329 1.329 0 0 0-.334-.528 1.153 1.153 0 0 0-.586-.304 1.073 1.073 0 0 0-.246-.036 2.758 2.758 0 0 0-.225-.011h-2.014v2.982zm9.528 3.666v-2.829c0-.269-.025-.527-.073-.775a1.968 1.968 0 0 0-.246-.664 1.267 1.267 0 0 0-.471-.471c-.195-.115-.443-.172-.743-.172-.233 0-.446.04-.638.12-.188.077-.35.195-.486.356-.136.16-.243.362-.319.606a2.92 2.92 0 0 0-.11.853l-.612-.188c0-.548.097-1.017.293-1.407.198-.394.476-.696.831-.905.36-.213.781-.319 1.266-.319.366 0 .678.057.937.172.258.115.472.269.643.461.171.188.305.401.403.638.097.233.165.472.204.716.042.241.062.469.062.686v3.122h-.941zm-4.028 0v-7.532h.837v4.159h.105v3.373h-.942zm7.114 2.511 1.093-2.971.016.879-2.469-6.068h.978l1.936 4.88h-.335l1.815-4.88h.947l-3.076 8.16h-.905zm6.979-2.359c-.673 0-1.226-.146-1.658-.439a1.854 1.854 0 0 1-.79-1.24l.952-.152c.076.307.253.551.528.733.276.177.617.266 1.025.266.387 0 .691-.08.91-.24a.768.768 0 0 0 .33-.654.628.628 0 0 0-.11-.387c-.073-.101-.225-.195-.455-.283-.227-.087-.57-.191-1.03-.313-.499-.133-.891-.271-1.177-.414-.286-.143-.49-.308-.612-.497a1.23 1.23 0 0 1-.183-.685c0-.331.09-.621.272-.868.181-.251.434-.445.758-.581a2.959 2.959 0 0 1 1.14-.204c.429 0 .813.068 1.151.204.338.136.61.33.816.581.209.247.333.537.371.868l-.952.173a1.023 1.023 0 0 0-.439-.717c-.244-.174-.56-.267-.947-.277-.366-.014-.664.05-.894.193-.227.143-.34.337-.34.581 0 .136.042.253.125.351.088.097.246.19.476.277.234.087.572.186 1.015.298.499.125.891.263 1.177.413.29.147.495.321.617.523.122.199.183.445.183.738 0 .544-.2.973-.601 1.287-.401.31-.954.465-1.658.465zm3.518-6.8v-.962h.931v.962h-.931zm0 6.648v-5.649h.931v5.649h-.931zm4.88.157c-.572 0-1.058-.127-1.459-.382a2.482 2.482 0 0 1-.91-1.061c-.21-.45-.318-.963-.325-1.538.007-.59.117-1.107.33-1.554.216-.45.525-.8.926-1.051.401-.251.884-.377 1.449-.377.596 0 1.109.147 1.538.44.432.293.721.694.868 1.203l-.921.277a1.515 1.515 0 0 0-.58-.764 1.587 1.587 0 0 0-.916-.272c-.387 0-.706.091-.957.272a1.58 1.58 0 0 0-.56.743 3.039 3.039 0 0 0-.188 1.083c.007.627.152 1.135.434 1.522.286.383.71.575 1.271.575.37 0 .677-.083.921-.251.244-.171.429-.417.554-.737l.942.246c-.195.526-.501.929-.916 1.208-.415.279-.915.418-1.501.418zm5.619-.005c-.673 0-1.226-.146-1.659-.439a1.853 1.853 0 0 1-.789-1.24l.952-.152a1.2 1.2 0 0 0 .528.733c.275.177.617.266 1.025.266.387 0 .691-.08.91-.24a.768.768 0 0 0 .33-.654.628.628 0 0 0-.11-.387c-.073-.101-.225-.195-.455-.283a10.93 10.93 0 0 0-1.031-.313c-.498-.133-.891-.271-1.177-.414-.285-.143-.489-.308-.612-.497a1.23 1.23 0 0 1-.183-.685c0-.331.091-.621.272-.868.182-.251.435-.445.759-.581a2.959 2.959 0 0 1 1.14-.204c.429 0 .813.068 1.151.204.338.136.61.33.816.581.209.247.333.537.371.868l-.952.173a1.023 1.023 0 0 0-.439-.717c-.244-.174-.56-.267-.947-.277-.366-.014-.664.05-.894.193-.227.143-.34.337-.34.581 0 .136.042.253.125.351.087.097.246.19.476.277.234.087.572.186 1.015.298.499.125.891.263 1.177.413.289.147.495.321.617.523.122.199.183.445.183.738 0 .544-.2.973-.601 1.287-.401.31-.954.465-1.658.465z" fill="#363C4F"/>
    <path d="M186.885 207.486c0 10.097-8.186 18.281-18.284 18.281-10.098 0-18.285-8.184-18.285-18.281 0-10.096 8.187-18.28 18.285-18.28s18.284 8.184 18.284 18.28zm-33.014 0c0 8.134 6.595 14.728 14.73 14.728 8.135 0 14.73-6.594 14.73-14.728 0-8.133-6.595-14.727-14.73-14.727-8.135 0-14.73 6.594-14.73 14.727z" fill="#CBEBCF"/>
    <g filter="url(#1dzuhhog5h)">
        <path d="M168.601 190.968c0-.973.791-1.771 1.76-1.678a18.283 18.283 0 0 1 15.206 25.012c-.363.903-1.436 1.238-2.3.79-.865-.448-1.191-1.51-.849-2.422a14.748 14.748 0 0 0-1.206-12.848 14.76 14.76 0 0 0-10.853-6.986c-.966-.116-1.758-.894-1.758-1.868z" fill="#F76C6C"/>
    </g>
    <path d="M103.713 196.277c-.565 0-1.099-.11-1.601-.33a3.86 3.86 0 0 1-1.31-.933 3.613 3.613 0 0 1-.792-1.428l1.828-.495c.13.45.368.798.714 1.044.35.241.735.358 1.153.353.371 0 .704-.086.997-.259.292-.172.523-.405.69-.698.167-.298.251-.63.251-.997 0-.559-.18-1.027-.541-1.404-.361-.377-.827-.565-1.397-.565-.173 0-.343.024-.51.071a2.29 2.29 0 0 0-.471.196l-.863-1.491 3.798-3.248.165.455h-5.375v-1.781h6.928v1.789l-3.052 2.934-.016-.557c.685.047 1.269.238 1.75.573.486.335.858.766 1.114 1.294.262.529.392 1.107.392 1.734 0 .712-.175 1.35-.525 1.915a3.789 3.789 0 0 1-1.397 1.342 3.894 3.894 0 0 1-1.93.486zm9.581.024c-.748 0-1.412-.152-1.993-.456a3.412 3.412 0 0 1-1.365-1.263c-.33-.539-.495-1.156-.495-1.851 0-.623.144-1.201.432-1.734.288-.534.709-.96 1.263-1.279l-.039.604a3.705 3.705 0 0 1-1.012-1.138 3.005 3.005 0 0 1-.353-1.459c0-.649.151-1.211.455-1.687.308-.476.73-.845 1.263-1.107.534-.266 1.148-.4 1.844-.4.696 0 1.31.134 1.844.4.539.262.96.631 1.263 1.107.309.476.463 1.038.463 1.687 0 .538-.115 1.022-.345 1.451-.225.429-.568.816-1.028 1.161l-.008-.612c.544.309.96.733 1.248 1.272.292.533.439 1.111.439 1.734 0 .695-.167 1.312-.502 1.851-.33.539-.787.96-1.373 1.263-.581.304-1.248.456-2.001.456zm0-1.782c.554 0 1.004-.151 1.349-.455.351-.303.526-.748.526-1.333 0-.586-.172-1.031-.518-1.334-.345-.309-.797-.463-1.357-.463-.555 0-1.002.154-1.342.463-.34.303-.51.748-.51 1.334 0 .585.17 1.03.51 1.333.34.304.787.455 1.342.455zm0-5.382c.465 0 .842-.115 1.13-.345.293-.236.439-.591.439-1.067s-.146-.829-.439-1.06c-.288-.235-.665-.353-1.13-.353-.46 0-.837.118-1.13.353-.288.231-.431.584-.431 1.06 0 .476.143.831.431 1.067.293.23.67.345 1.13.345zm7.482 6.928-1.255-1.255 10.051-10.043 1.255 1.263-10.051 10.035zm7.697.236a2.76 2.76 0 0 1-1.42-.377 2.964 2.964 0 0 1-1.02-1.02 2.734 2.734 0 0 1-.384-1.428c0-.513.13-.983.392-1.412a2.99 2.99 0 0 1 1.036-1.028 2.664 2.664 0 0 1 1.396-.385c.518 0 .991.128 1.42.385.429.251.769.591 1.02 1.02.257.423.385.897.385 1.42 0 .523-.128.999-.385 1.428a2.88 2.88 0 0 1-1.02 1.02 2.76 2.76 0 0 1-1.42.377zm0-1.617c.215 0 .413-.055.596-.165.189-.109.338-.256.448-.439.11-.183.164-.384.164-.604 0-.22-.054-.421-.164-.604a1.243 1.243 0 0 0-.448-.44 1.143 1.143 0 0 0-.596-.164c-.22 0-.421.055-.604.164-.183.11-.332.257-.447.44a1.15 1.15 0 0 0-.165.604c0 .22.055.421.165.604.115.183.264.33.447.439.183.11.384.165.604.165zm-6.598-4.503c-.518 0-.992-.126-1.421-.377a2.942 2.942 0 0 1-1.027-1.02 2.766 2.766 0 0 1-.377-1.428c0-.513.131-.983.392-1.412a2.998 2.998 0 0 1 1.036-1.028 2.667 2.667 0 0 1 1.397-.385c.517 0 .988.128 1.412.385a2.87 2.87 0 0 1 1.028 1.02c.256.423.384.897.384 1.42 0 .523-.128.999-.384 1.428a2.953 2.953 0 0 1-1.028 1.02 2.721 2.721 0 0 1-1.412.377zm0-1.617c.219 0 .421-.055.604-.165.183-.109.329-.256.439-.439a1.15 1.15 0 0 0 .165-.604c0-.22-.055-.421-.165-.604a1.267 1.267 0 0 0-.439-.44 1.16 1.16 0 0 0-.604-.164c-.22 0-.422.055-.605.164-.183.11-.329.257-.439.44a1.15 1.15 0 0 0-.165.604c0 .22.055.421.165.604.11.183.256.33.439.439.183.11.385.165.605.165z" fill="#363C4F"/>
    <g filter="url(#lf953p8l4i)">
        <rect x="283" y="18" width="108.4" height="85.528" rx="6.538" fill="#E0F6E3"/>
        <path d="M294.181 41.513V33.98h.847l2.845 6 2.83-6h.858v7.528h-.884v-5.482l-2.558 5.487h-.497l-2.557-5.487v5.487h-.884zm10.453.157c-.422 0-.776-.077-1.062-.23a1.632 1.632 0 0 1-.643-.618 1.68 1.68 0 0 1-.215-.837c0-.296.056-.552.167-.769.116-.22.276-.4.482-.544a2.43 2.43 0 0 1 .737-.345c.269-.073.569-.136.9-.188.335-.056.673-.107 1.015-.152.341-.045.66-.089.957-.13l-.335.193c.011-.502-.091-.874-.303-1.114-.209-.24-.572-.361-1.088-.361-.342 0-.642.078-.9.235-.255.154-.434.405-.539.753l-.884-.266c.136-.495.4-.884.79-1.167.391-.282.905-.424 1.543-.424.513 0 .952.093 1.318.278.37.181.635.457.795.826.081.175.131.365.152.57.021.203.032.415.032.639v3.494h-.827v-1.355l.194.125c-.213.457-.511.803-.895 1.036-.38.234-.844.35-1.391.35zm.141-.78c.335 0 .624-.059.868-.178a1.568 1.568 0 0 0 .89-1.125c.052-.174.08-.367.083-.58.007-.216.011-.382.011-.497l.324.142-.894.12c-.293.038-.571.08-.832.125a6.165 6.165 0 0 0-.706.152 2.283 2.283 0 0 0-.434.188.986.986 0 0 0-.325.298.777.777 0 0 0-.12.445c0 .154.038.3.115.44.08.139.202.252.366.34.168.087.385.13.654.13zm7.292.623a4.188 4.188 0 0 1-.994.078 2.203 2.203 0 0 1-.868-.193 1.244 1.244 0 0 1-.581-.565 1.658 1.658 0 0 1-.183-.675c-.007-.23-.011-.49-.011-.78v-5.084h.931v5.043c0 .23.002.427.006.59a.93.93 0 0 0 .11.425.766.766 0 0 0 .596.392c.275.038.607.028.994-.032v.8zm-3.782-4.88v-.77h3.782v.77h-3.782zm8.951 4.88v-2.83a3.98 3.98 0 0 0-.073-.774 1.946 1.946 0 0 0-.246-.665 1.269 1.269 0 0 0-.471-.47c-.195-.116-.443-.173-.743-.173-.233 0-.446.04-.638.12-.188.077-.35.196-.486.356-.136.16-.243.363-.319.607a2.95 2.95 0 0 0-.11.852l-.612-.188c0-.547.098-1.016.293-1.407.199-.394.476-.696.832-.905.359-.213.781-.319 1.265-.319.367 0 .679.058.937.173.258.115.472.268.643.46.171.188.305.401.403.638.097.234.165.473.204.717.042.24.063.469.063.685v3.123h-.942zm-4.028 0V33.98h.837v4.159h.105v3.374h-.942zm8.778.157c-.555 0-1.04-.122-1.455-.367a2.566 2.566 0 0 1-.962-1.03c-.23-.443-.345-.959-.345-1.548 0-.617.113-1.151.34-1.6.226-.454.542-.803.946-1.047.408-.248.886-.372 1.434-.372.568 0 1.051.131 1.449.393.401.261.701.635.899 1.12.203.484.29 1.061.262 1.73h-.942v-.334c-.01-.694-.151-1.212-.423-1.554-.272-.345-.677-.517-1.214-.517-.575 0-1.013.184-1.313.554-.3.37-.45.9-.45 1.59 0 .666.15 1.182.45 1.548.3.367.727.55 1.282.55.373 0 .697-.086.973-.257.275-.17.491-.416.648-.737l.895.308c-.22.5-.551.886-.994 1.162-.44.272-.933.408-1.48.408zm-2.088-2.72v-.748h4.175v.748h-4.175zm12.42 2.563.005-3.615c0-.422-.113-.751-.34-.988-.223-.241-.514-.361-.873-.361-.209 0-.408.048-.597.146a1.1 1.1 0 0 0-.46.45c-.118.202-.178.462-.178.78l-.491-.2a2.022 2.022 0 0 1 .245-1.05 1.85 1.85 0 0 1 .712-.707c.3-.167.638-.251 1.015-.251.589 0 1.053.18 1.391.539.338.355.507.835.507 1.438l-.005 3.819h-.931zm-6.758 0v-5.65h.832v1.512h.104v4.138h-.936zm3.384 0 .005-3.578c0-.433-.111-.77-.334-1.015-.223-.248-.52-.371-.89-.371-.366 0-.662.125-.889.376-.226.251-.34.584-.34 1l-.491-.293c0-.367.087-.694.261-.984.174-.29.412-.516.711-.68.3-.167.64-.251 1.02-.251.381 0 .712.08.994.24.283.161.501.391.654.691.154.296.23.65.23 1.062l-.005 3.803h-.926zm7.279.157c-.422 0-.776-.077-1.062-.23a1.642 1.642 0 0 1-.644-.618 1.68 1.68 0 0 1-.214-.837c0-.296.056-.552.167-.769.115-.22.276-.4.482-.544a2.43 2.43 0 0 1 .737-.345c.269-.073.569-.136.9-.188.335-.056.673-.107 1.015-.152.341-.045.66-.089.957-.13l-.335.193c.011-.502-.091-.874-.303-1.114-.21-.24-.572-.361-1.088-.361-.342 0-.642.078-.9.235-.255.154-.434.405-.539.753l-.884-.266c.136-.495.4-.884.79-1.167.391-.282.905-.424 1.543-.424.513 0 .952.093 1.318.278.37.181.635.457.795.826.081.175.131.365.152.57.021.203.031.415.031.639v3.494h-.826v-1.355l.194.125c-.213.457-.511.803-.895 1.036-.38.234-.844.35-1.391.35zm.141-.78c.335 0 .624-.059.868-.178.248-.122.447-.28.597-.476.149-.198.247-.415.292-.648.053-.175.081-.368.084-.58.007-.217.011-.383.011-.498l.324.142-.895.12c-.292.038-.57.08-.831.125a6.165 6.165 0 0 0-.706.152 2.292 2.292 0 0 0-.435.188.993.993 0 0 0-.324.298.777.777 0 0 0-.12.445c0 .154.038.3.115.44.08.139.202.252.366.34.167.087.385.13.654.13zm7.292.623a4.188 4.188 0 0 1-.994.078 2.208 2.208 0 0 1-.869-.193 1.247 1.247 0 0 1-.58-.565 1.658 1.658 0 0 1-.183-.675c-.007-.23-.011-.49-.011-.78v-5.084h.931v5.043c0 .23.002.427.006.59a.943.943 0 0 0 .109.425.769.769 0 0 0 .597.392c.275.038.607.028.994-.032v.8zm-3.782-4.88v-.77h3.782v.77h-3.782zm5.033-1.769v-.962h.931v.962h-.931zm0 6.649v-5.65h.931v5.65h-.931zm4.881.157c-.572 0-1.059-.128-1.46-.382a2.486 2.486 0 0 1-.91-1.062c-.209-.45-.317-.962-.324-1.538.007-.59.117-1.107.329-1.553.217-.45.525-.8.926-1.052.401-.25.884-.377 1.449-.377.596 0 1.109.147 1.538.44.432.293.722.694.868 1.203l-.92.277a1.514 1.514 0 0 0-.581-.764 1.581 1.581 0 0 0-.915-.272c-.387 0-.706.091-.958.272a1.575 1.575 0 0 0-.559.743 3.059 3.059 0 0 0-.189 1.083c.007.628.152 1.135.435 1.522.286.384.709.576 1.271.576.369 0 .676-.084.92-.252.244-.17.429-.416.555-.737l.941.246c-.195.526-.5.93-.915 1.208-.415.28-.915.419-1.501.419zm5.618-.006c-.673 0-1.226-.146-1.658-.439a1.855 1.855 0 0 1-.79-1.24l.952-.151c.077.306.253.55.528.732.276.178.618.267 1.026.267.387 0 .69-.08.91-.24a.768.768 0 0 0 .329-.655c0-.16-.036-.29-.11-.387-.073-.101-.224-.195-.455-.282-.226-.087-.57-.192-1.03-.314-.499-.133-.891-.27-1.177-.413-.286-.143-.49-.309-.612-.497a1.233 1.233 0 0 1-.183-.686c0-.33.091-.62.272-.868.181-.25.434-.444.758-.58a2.96 2.96 0 0 1 1.141-.205c.429 0 .812.069 1.15.204.339.137.611.33.816.581a1.6 1.6 0 0 1 .372.868l-.952.173a1.028 1.028 0 0 0-.44-.716c-.244-.175-.559-.267-.946-.278-.366-.014-.665.05-.895.194-.226.143-.34.336-.34.58a.52.52 0 0 0 .126.35c.087.099.246.19.476.278.233.087.572.187 1.015.298.498.126.89.264 1.176.413.29.147.496.321.618.523.122.2.183.445.183.738 0 .544-.201.973-.602 1.287-.401.31-.954.465-1.658.465z" fill="#363C4F"/>
        <path d="M380.952 74.868c0 10.096-8.186 18.28-18.284 18.28-10.099 0-18.285-8.184-18.285-18.28 0-10.097 8.186-18.281 18.285-18.281 10.098 0 18.284 8.184 18.284 18.28zm-33.014 0c0 8.133 6.594 14.727 14.73 14.727 8.135 0 14.73-6.594 14.73-14.727 0-8.134-6.595-14.728-14.73-14.728-8.136 0-14.73 6.594-14.73 14.728z" fill="#CBEBCF"/>
        <g filter="url(#edovimhb5j)">
            <path d="M362.668 58.35c0-.974.791-1.772 1.76-1.678a18.29 18.29 0 0 1 15.847 13.266 18.287 18.287 0 0 1-.599 11.64 18.288 18.288 0 0 1-18.884 11.474 18.281 18.281 0 0 1-15.09-25.001c.363-.904 1.436-1.239 2.3-.79.865.448 1.191 1.51.849 2.422a14.758 14.758 0 0 0 3.74 15.964 14.757 14.757 0 0 0 24.288-14.759 14.763 14.763 0 0 0-12.453-10.67c-.966-.116-1.758-.895-1.758-1.868z" fill="#04C894"/>
        </g>
        <path d="M298.242 63.682c-.748 0-1.412-.152-1.993-.455a3.43 3.43 0 0 1-1.365-1.264c-.329-.538-.494-1.156-.494-1.851 0-.623.144-1.2.431-1.734.288-.534.709-.96 1.264-1.28l-.04.605a3.712 3.712 0 0 1-1.012-1.138 3.016 3.016 0 0 1-.353-1.46c0-.648.152-1.21.455-1.686a3.1 3.1 0 0 1 1.263-1.106c.534-.267 1.149-.4 1.844-.4.696 0 1.311.133 1.844.4.539.261.96.63 1.263 1.106.309.476.463 1.038.463 1.687 0 .539-.115 1.022-.345 1.451-.225.43-.568.816-1.028 1.162l-.008-.612c.544.308.96.732 1.248 1.27.293.534.439 1.112.439 1.735 0 .695-.167 1.313-.502 1.851-.329.54-.787.96-1.373 1.264-.581.303-1.248.455-2.001.455zm0-1.781c.555 0 1.005-.152 1.35-.456.35-.303.525-.748.525-1.333 0-.586-.172-1.03-.517-1.334-.346-.309-.798-.463-1.358-.463-.554 0-1.001.154-1.341.463-.34.303-.51.748-.51 1.334 0 .585.17 1.03.51 1.334.34.303.787.455 1.341.455zm0-5.383c.466 0 .842-.115 1.13-.345.293-.236.439-.591.439-1.067s-.146-.83-.439-1.06c-.288-.235-.664-.352-1.13-.352-.46 0-.837.117-1.13.353-.287.23-.431.583-.431 1.059s.144.831.431 1.067c.293.23.67.345 1.13.345zm9.977 7.164c-.8 0-1.506-.17-2.118-.51a3.713 3.713 0 0 1-1.436-1.436c-.34-.612-.51-1.318-.51-2.119v-3.64c0-.8.17-1.507.51-2.119a3.658 3.658 0 0 1 1.436-1.428c.612-.345 1.318-.518 2.118-.518.801 0 1.504.173 2.111.518.612.34 1.091.816 1.436 1.428s.518 1.318.518 2.119v3.64c0 .8-.173 1.507-.518 2.119a3.713 3.713 0 0 1-1.436 1.436c-.607.34-1.31.51-2.111.51zm0-1.797c.398 0 .759-.094 1.083-.283.325-.193.581-.45.769-.768a2.12 2.12 0 0 0 .283-1.083v-3.915c0-.403-.095-.764-.283-1.083a2.078 2.078 0 0 0-.769-.77 2.072 2.072 0 0 0-1.083-.29 2.07 2.07 0 0 0-1.082.29 2.078 2.078 0 0 0-.769.77c-.189.319-.283.68-.283 1.083v3.915a2.11 2.11 0 0 0 1.052 1.851c.324.189.685.283 1.082.283zm7.834 1.561-1.255-1.255 10.051-10.043 1.255 1.263-10.051 10.035zm7.697.236a2.76 2.76 0 0 1-1.42-.377 2.969 2.969 0 0 1-1.02-1.02 2.734 2.734 0 0 1-.384-1.428c0-.513.13-.983.392-1.412a2.992 2.992 0 0 1 1.036-1.028 2.673 2.673 0 0 1 1.396-.385c.518 0 .991.129 1.42.385.429.251.769.591 1.02 1.02.257.424.385.897.385 1.42 0 .523-.128 1-.385 1.428a2.886 2.886 0 0 1-1.02 1.02 2.76 2.76 0 0 1-1.42.377zm0-1.617c.215 0 .413-.055.597-.164.188-.11.337-.257.447-.44a1.15 1.15 0 0 0 .165-.604c0-.22-.055-.421-.165-.604a1.245 1.245 0 0 0-.447-.44 1.142 1.142 0 0 0-.597-.164c-.219 0-.421.055-.604.164a1.33 1.33 0 0 0-.447.44c-.11.183-.165.384-.165.604 0 .22.055.421.165.604.115.183.264.33.447.44.183.11.385.164.604.164zm-6.598-4.503c-.518 0-.992-.126-1.421-.377a2.955 2.955 0 0 1-1.027-1.02 2.776 2.776 0 0 1-.377-1.428c0-.513.131-.983.392-1.412a3 3 0 0 1 1.036-1.028 2.674 2.674 0 0 1 1.397-.385c.517 0 .988.129 1.412.385.429.251.771.591 1.028 1.02.256.424.384.897.384 1.42 0 .523-.128 1-.384 1.428a2.958 2.958 0 0 1-1.028 1.02 2.72 2.72 0 0 1-1.412.377zm0-1.617c.219 0 .421-.055.604-.164.183-.11.329-.257.439-.44a1.15 1.15 0 0 0 .165-.604c0-.22-.055-.421-.165-.604a1.263 1.263 0 0 0-.439-.44 1.154 1.154 0 0 0-.604-.164c-.22 0-.421.055-.605.164-.183.11-.329.257-.439.44-.11.183-.165.384-.165.604 0 .22.055.421.165.604.11.183.256.33.439.44.184.11.385.164.605.164z" fill="#363C4F"/>
    </g>
    <defs>
        <filter id="rn8y53jhha" x="30.863" y="60.953" width="347.842" height="352.362" filterUnits="userSpaceOnUse" color-interpolation-filters="sRGB">
            <feFlood flood-opacity="0" result="BackgroundImageFix"/>
            <feColorMatrix in="SourceAlpha" values="0 0 0 0 0 0 0 0 0 0 0 0 0 0 0 0 0 0 127 0" result="hardAlpha"/>
            <feOffset dy="19.047"/>
            <feGaussianBlur stdDeviation="19.047"/>
            <feColorMatrix values="0 0 0 0 0.645913 0 0 0 0 0.80854 0 0 0 0 0.665626 0 0 0 1 0"/>
            <feBlend in2="BackgroundImageFix" result="effect1_dropShadow_1072_1216"/>
            <feBlend in="SourceGraphic" in2="effect1_dropShadow_1072_1216" result="shape"/>
        </filter>
        <filter id="27162hxo5c" x="274.922" y="285.589" width="39.037" height="46.946" filterUnits="userSpaceOnUse" color-interpolation-filters="sRGB">
            <feFlood flood-opacity="0" result="BackgroundImageFix"/>
            <feColorMatrix in="SourceAlpha" values="0 0 0 0 0 0 0 0 0 0 0 0 0 0 0 0 0 0 127 0" result="hardAlpha"/>
            <feOffset dy="2.615"/>
            <feGaussianBlur stdDeviation="2.615"/>
            <feComposite in2="hardAlpha" operator="out"/>
            <feColorMatrix values="0 0 0 0 0.791667 0 0 0 0 0.577907 0 0 0 0 0.155035 0 0 0 0.4 0"/>
            <feBlend in2="BackgroundImageFix" result="effect1_dropShadow_1072_1216"/>
            <feBlend in="SourceGraphic" in2="effect1_dropShadow_1072_1216" result="shape"/>
        </filter>
        <filter id="v2mh1v4s2d" x=".989" y="249.01" width="216.389" height="185.507" filterUnits="userSpaceOnUse" color-interpolation-filters="sRGB">
            <feFlood flood-opacity="0" result="BackgroundImageFix"/>
            <feColorMatrix in="SourceAlpha" values="0 0 0 0 0 0 0 0 0 0 0 0 0 0 0 0 0 0 127 0" result="hardAlpha"/>
            <feOffset dy="17.506"/>
            <feGaussianBlur stdDeviation="17.506"/>
            <feColorMatrix values="0 0 0 0 0.15834 0 0 0 0 0.161998 0 0 0 0 0.166874 0 0 0 0.24 0"/>
            <feBlend in2="BackgroundImageFix" result="effect1_dropShadow_1072_1216"/>
            <feBlend in="SourceGraphic" in2="effect1_dropShadow_1072_1216" result="shape"/>
        </filter>
        <filter id="au3m57enhe" x="113.651" y="316.017" width="59.839" height="59.725" filterUnits="userSpaceOnUse" color-interpolation-filters="sRGB">
            <feFlood flood-opacity="0" result="BackgroundImageFix"/>
            <feColorMatrix in="SourceAlpha" values="0 0 0 0 0 0 0 0 0 0 0 0 0 0 0 0 0 0 127 0" result="hardAlpha"/>
            <feOffset dy="2.615"/>
            <feGaussianBlur stdDeviation="2.615"/>
            <feComposite in2="hardAlpha" operator="out"/>
            <feColorMatrix values="0 0 0 0 0.0311458 0 0 0 0 0.575 0 0 0 0 0.278754 0 0 0 0.4 0"/>
            <feBlend in2="BackgroundImageFix" result="effect1_dropShadow_1072_1216"/>
            <feBlend in="SourceGraphic" in2="effect1_dropShadow_1072_1216" result="shape"/>
        </filter>
        <filter id="6jsjm4pdtf" x="224.703" y="103.223" width="207.309" height="178.343" filterUnits="userSpaceOnUse" color-interpolation-filters="sRGB">
            <feFlood flood-opacity="0" result="BackgroundImageFix"/>
            <feColorMatrix in="SourceAlpha" values="0 0 0 0 0 0 0 0 0 0 0 0 0 0 0 0 0 0 127 0" result="hardAlpha"/>
            <feOffset dy="17.506"/>
            <feGaussianBlur stdDeviation="17.506"/>
            <feColorMatrix values="0 0 0 0 0.15834 0 0 0 0 0.161998 0 0 0 0 0.166874 0 0 0 0.24 0"/>
            <feBlend in2="BackgroundImageFix" result="effect1_dropShadow_1072_1216"/>
            <feBlend in="SourceGraphic" in2="effect1_dropShadow_1072_1216" result="shape"/>
        </filter>
        <filter id="4ji591xvyg" x="355.38" y="166.997" width="33.618" height="54.16" filterUnits="userSpaceOnUse" color-interpolation-filters="sRGB">
            <feFlood flood-opacity="0" result="BackgroundImageFix"/>
            <feColorMatrix in="SourceAlpha" values="0 0 0 0 0 0 0 0 0 0 0 0 0 0 0 0 0 0 127 0" result="hardAlpha"/>
            <feOffset dy="2.615"/>
            <feGaussianBlur stdDeviation="2.615"/>
            <feComposite in2="hardAlpha" operator="out"/>
            <feColorMatrix values="0 0 0 0 0.791667 0 0 0 0 0.577907 0 0 0 0 0.155035 0 0 0 0.4 0"/>
            <feBlend in2="BackgroundImageFix" result="effect1_dropShadow_1072_1216"/>
            <feBlend in="SourceGraphic" in2="effect1_dropShadow_1072_1216" result="shape"/>
        </filter>
        <filter id="1dzuhhog5h" x="163.37" y="186.668" width="28.746" height="36.468" filterUnits="userSpaceOnUse" color-interpolation-filters="sRGB">
            <feFlood flood-opacity="0" result="BackgroundImageFix"/>
            <feColorMatrix in="SourceAlpha" values="0 0 0 0 0 0 0 0 0 0 0 0 0 0 0 0 0 0 127 0" result="hardAlpha"/>
            <feOffset dy="2.615"/>
            <feGaussianBlur stdDeviation="2.615"/>
            <feComposite in2="hardAlpha" operator="out"/>
            <feColorMatrix values="0 0 0 0 0.7125 0 0 0 0 0.121719 0 0 0 0 0.121719 0 0 0 0.4 0"/>
            <feBlend in2="BackgroundImageFix" result="effect1_dropShadow_1072_1216"/>
            <feBlend in="SourceGraphic" in2="effect1_dropShadow_1072_1216" result="shape"/>
        </filter>
        <filter id="lf953p8l4i" x="247.989" y=".494" width="178.423" height="155.551" filterUnits="userSpaceOnUse" color-interpolation-filters="sRGB">
            <feFlood flood-opacity="0" result="BackgroundImageFix"/>
            <feColorMatrix in="SourceAlpha" values="0 0 0 0 0 0 0 0 0 0 0 0 0 0 0 0 0 0 127 0" result="hardAlpha"/>
            <feOffset dy="17.506"/>
            <feGaussianBlur stdDeviation="17.506"/>
            <feColorMatrix values="0 0 0 0 0.15834 0 0 0 0 0.161998 0 0 0 0 0.166874 0 0 0 0.24 0"/>
            <feBlend in2="BackgroundImageFix" result="effect1_dropShadow_1072_1216"/>
            <feBlend in="SourceGraphic" in2="effect1_dropShadow_1072_1216" result="shape"/>
        </filter>
        <filter id="edovimhb5j" x="339.153" y="54.049" width="47.03" height="46.946" filterUnits="userSpaceOnUse" color-interpolation-filters="sRGB">
            <feFlood flood-opacity="0" result="BackgroundImageFix"/>
            <feColorMatrix in="SourceAlpha" values="0 0 0 0 0 0 0 0 0 0 0 0 0 0 0 0 0 0 127 0" result="hardAlpha"/>
            <feOffset dy="2.615"/>
            <feGaussianBlur stdDeviation="2.615"/>
            <feComposite in2="hardAlpha" operator="out"/>
            <feColorMatrix values="0 0 0 0 0.0311458 0 0 0 0 0.575 0 0 0 0 0.278754 0 0 0 0.4 0"/>
            <feBlend in2="BackgroundImageFix" result="effect1_dropShadow_1072_1216"/>
            <feBlend in="SourceGraphic" in2="effect1_dropShadow_1072_1216" result="shape"/>
        </filter>
        <clipPath id="fwhznvewib">
            <path fill="#fff" transform="translate(259.025 104.474)" d="M0 0h13.077v13.077H0z"/>
        </clipPath>
    </defs>
</svg>
