<svg width="46" height="46" viewBox="0 0 46 46" fill="none" xmlns="http://www.w3.org/2000/svg">
    <path d="M3 23C3 11.954 11.954 3 23 3s20 8.954 20 20-8.954 20-20 20S3 34.046 3 23z" fill="#F2F4F7"/>
    <g clip-path="url(#yofycrtcca)">
        <path d="M26.333 26.333 23 23m0 0-3.333 3.333M23 23v7.5m6.992-2.175A4.168 4.168 0 0 0 28 20.5h-1.05a6.668 6.668 0 1 0-11.45 6.083" stroke="#475467" stroke-width="1.667" stroke-linecap="round" stroke-linejoin="round"/>
    </g>
    <path d="M23 40c-9.389 0-17-7.611-17-17H0c0 12.703 10.297 23 23 23v-6zm17-17c0 9.389-7.611 17-17 17v6c12.703 0 23-10.297 23-23h-6zM23 6c9.389 0 17 7.611 17 17h6C46 10.297 35.703 0 23 0v6zm0-6C10.297 0 0 10.297 0 23h6c0-9.389 7.611-17 17-17V0z" fill="#F9FAFB"/>
    <defs>
        <clipPath id="yofycrtcca">
            <path fill="#fff" transform="translate(13 13)" d="M0 0h20v20H0z"/>
        </clipPath>
    </defs>
</svg>
