<svg width="85" height="57" viewBox="0 0 85 57" fill="none" xmlns="http://www.w3.org/2000/svg">
    <mask id="9dfwf4qldc" maskUnits="userSpaceOnUse" x="-3.691" y="-3.764" width="91.49" height="64.074" fill="#000">
        <path fill="#fff" d="M-3.691-3.764h91.49V60.31h-91.49z"/>
        <path fill-rule="evenodd" clip-rule="evenodd" d="M39.362 37.361c-3.63-1.145-7.517-.092-11.081 1.244a17.543 17.543 0 0 1-11.478.301c-9.28-2.928-14.429-12.824-11.5-22.104 2.927-9.28 12.823-14.428 22.103-11.5a17.544 17.544 0 0 1 9.227 6.834c2.152 3.14 4.73 6.233 8.36 7.379 3.63 1.145 7.517.092 11.081-1.245a17.543 17.543 0 0 1 11.478-.3c9.28 2.927 14.43 12.824 11.501 22.103-2.928 9.28-12.824 14.429-22.103 11.501a17.543 17.543 0 0 1-9.228-6.834c-2.151-3.14-4.73-6.233-8.36-7.379z"/>
    </mask>
    <path fill-rule="evenodd" clip-rule="evenodd" d="M39.362 37.361c-3.63-1.145-7.517-.092-11.081 1.244a17.543 17.543 0 0 1-11.478.301c-9.28-2.928-14.429-12.824-11.5-22.104 2.927-9.28 12.823-14.428 22.103-11.5a17.544 17.544 0 0 1 9.227 6.834c2.152 3.14 4.73 6.233 8.36 7.379 3.63 1.145 7.517.092 11.081-1.245a17.543 17.543 0 0 1 11.478-.3c9.28 2.927 14.43 12.824 11.501 22.103-2.928 9.28-12.824 14.429-22.103 11.501a17.543 17.543 0 0 1-9.228-6.834c-2.151-3.14-4.73-6.233-8.36-7.379z" fill="url(#ty1kwrj25a)"/>
    <path d="m28.28 38.605-.925-2.468.926 2.468zM16.01 41.42a20.18 20.18 0 0 0 13.197-.346l-1.852-4.937a14.907 14.907 0 0 1-9.759.255L16.01 41.42zM2.788 16.01C-.578 26.676 5.34 38.053 16.01 41.42l1.586-5.028c-7.89-2.49-12.27-10.905-9.78-18.796l-5.028-1.587zM28.199 2.786C17.531-.579 6.154 5.341 2.788 16.01l5.028 1.587c2.49-7.891 10.905-12.27 18.797-9.78l1.586-5.029zm10.61 7.859a20.18 20.18 0 0 0-10.61-7.859l-1.586 5.029a14.907 14.907 0 0 1 7.845 5.81l4.35-2.98zm29.537 4.81a20.18 20.18 0 0 0-13.198.346L57 20.739a14.906 14.906 0 0 1 9.76-.255l1.586-5.029zm13.221 25.41c3.367-10.668-2.553-22.045-13.221-25.41l-1.587 5.028c7.891 2.49 12.27 10.905 9.78 18.796l5.028 1.587zm-25.41 13.222c10.668 3.366 22.044-2.553 25.41-13.221L76.54 39.28c-2.49 7.891-10.905 12.27-18.796 9.78l-1.587 5.028zm-10.61-7.858a20.18 20.18 0 0 0 10.61 7.858l1.586-5.028a14.907 14.907 0 0 1-7.846-5.81l-4.35 2.98zM44.2 22.03c4.556 1.437 9.2.06 12.8-1.29l-1.852-4.937c-3.528 1.323-6.657 2.052-9.361 1.198L44.2 22.03zm5.697 21.221c-2.173-3.172-5.186-6.966-9.742-8.403l-1.587 5.028c2.705.854 4.85 3.246 6.98 6.355l4.35-2.98zM34.458 13.626c2.173 3.172 5.186 6.966 9.742 8.403L45.787 17c-2.705-.853-4.849-3.245-6.979-6.354l-4.35 2.98zm-5.251 27.448c3.528-1.323 6.657-2.052 9.361-1.199l1.587-5.028c-4.556-1.438-9.2-.06-12.8 1.29l1.852 4.937z" fill="url(#af9escxotb)" mask="url(#9dfwf4qldc)"/>
    <circle opacity=".6" cx="22.015" cy="21.691" r="6.196" fill="#fff"/>
    <circle cx="23.018" cy="21.516" r="2.805" fill="#2DADD3"/>
    <circle cx="23.017" cy="21.517" r="1.427" fill="#DEEFFF"/>
    <circle opacity=".2" cx="32.205" cy="16.22" r="2.125" fill="#fff"/>
    <circle opacity=".2" cx="51.122" cy="39.855" r="3.013" fill="#fff"/>
    <circle opacity=".2" cx="73.657" cy="34.866" r="1.975" fill="#fff"/>
    <circle opacity=".2" cx="11.435" cy="27.734" r="2.125" fill="#fff"/>
    <circle cx="65.033" cy="31.99" r="2.125" fill="#2386C3"/>
    <circle opacity=".6" cx="62.39" cy="34.634" r="6.196" fill="#fff"/>
    <circle cx="65.033" cy="32.89" r="1.427" fill="#2796CA"/>
    <defs>
        <linearGradient id="ty1kwrj25a" x1="12.111" y1="3.432" x2="81.522" y2="62.087" gradientUnits="userSpaceOnUse">
            <stop stop-color="#39DDE8"/>
            <stop offset="1" stop-color="#1D6EB9"/>
        </linearGradient>
        <linearGradient id="af9escxotb" x1="21.092" y1="4.652" x2="72.063" y2="53.865" gradientUnits="userSpaceOnUse">
            <stop stop-color="#38D2B7"/>
            <stop offset="1" stop-color="#38D2B7"/>
        </linearGradient>
    </defs>
</svg>
