<svg width="70" height="70" viewBox="0 0 70 70" fill="none" xmlns="http://www.w3.org/2000/svg">
    <mask id="wsottdky6c" maskUnits="userSpaceOnUse" x="-2.613" y="8.236" width="75.079" height="52.885" fill="#000">
        <path fill="#fff" d="M-2.613 8.236h75.079v52.885H-2.613z"/>
        <path fill-rule="evenodd" clip-rule="evenodd" d="M32.835 42.217c-2.936-.926-6.08-.075-8.962 1.006a14.188 14.188 0 0 1-9.283.244C7.085 41.099 2.92 33.095 5.288 25.59c2.369-7.506 10.372-11.67 17.878-9.302a14.189 14.189 0 0 1 7.463 5.527c1.74 2.54 3.825 5.042 6.761 5.968 2.936.926 6.08.075 8.962-1.006a14.189 14.189 0 0 1 9.283-.244c7.506 2.368 11.67 10.372 9.302 17.877-2.368 7.506-10.372 11.67-17.877 9.302a14.189 14.189 0 0 1-7.463-5.527c-1.74-2.54-3.826-5.042-6.762-5.968z"/>
    </mask>
    <path fill-rule="evenodd" clip-rule="evenodd" d="M32.835 42.217c-2.936-.926-6.08-.075-8.962 1.006a14.188 14.188 0 0 1-9.283.244C7.085 41.099 2.92 33.095 5.288 25.59c2.369-7.506 10.372-11.67 17.878-9.302a14.189 14.189 0 0 1 7.463 5.527c1.74 2.54 3.825 5.042 6.761 5.968 2.936.926 6.08.075 8.962-1.006a14.189 14.189 0 0 1 9.283-.244c7.506 2.368 11.67 10.372 9.302 17.877-2.368 7.506-10.372 11.67-17.877 9.302a14.189 14.189 0 0 1-7.463-5.527c-1.74-2.54-3.826-5.042-6.762-5.968z" fill="url(#u703dx04ga)"/>
    <path d="m30.629 21.815-1.76 1.205 1.76-1.205zM13.949 45.5a16.321 16.321 0 0 0 10.673-.28l-1.497-3.993a12.056 12.056 0 0 1-7.893.206L13.949 45.5zM3.255 24.948C.533 33.576 5.32 42.778 13.949 45.5l1.283-4.067c-6.382-2.014-9.924-8.82-7.91-15.202l-4.067-1.283zm20.552-10.694C15.18 11.532 5.977 16.32 3.255 24.948l4.067 1.283c2.014-6.382 8.82-9.924 15.202-7.91l1.283-4.067zm8.58 6.356a16.321 16.321 0 0 0-8.58-6.356l-1.283 4.067a12.056 12.056 0 0 1 6.346 4.7l3.518-2.41zm23.89 3.89a16.32 16.32 0 0 0-10.674.28l1.498 3.993a12.056 12.056 0 0 1 7.893-.206l1.283-4.067zM66.97 45.052c2.723-8.628-2.065-17.83-10.693-20.552l-1.283 4.067c6.382 2.014 9.923 8.82 7.91 15.202l4.066 1.283zM46.418 55.746c8.629 2.722 17.83-2.066 20.552-10.694l-4.066-1.283c-2.014 6.382-8.82 9.924-15.203 7.91l-1.283 4.067zm-8.58-6.356a16.321 16.321 0 0 0 8.58 6.356l1.283-4.067a12.057 12.057 0 0 1-6.345-4.7l-3.518 2.411zm-1.09-19.573c3.685 1.162 7.441.048 10.353-1.044l-1.498-3.993c-2.854 1.07-5.384 1.66-7.571.97l-1.283 4.067zm4.608 17.163c-1.758-2.566-4.195-5.634-7.88-6.796l-1.282 4.067c2.187.69 3.921 2.625 5.644 5.14l3.518-2.411zM28.87 23.02c1.757 2.566 4.194 5.634 7.879 6.797l1.283-4.067c-2.188-.69-3.922-2.625-5.644-5.14l-3.518 2.41zm-4.248 22.2c2.854-1.07 5.384-1.66 7.572-.97l1.283-4.066c-3.685-1.163-7.441-.05-10.352 1.043l1.497 3.993z" fill="url(#wn368wf5ib)" mask="url(#wsottdky6c)"/>
    <circle opacity=".6" cx="18.805" cy="29.543" r="5.012" fill="#fff"/>
    <circle cx="19.616" cy="29.401" r="2.268" fill="#2DADD3"/>
    <circle cx="19.615" cy="29.402" r="1.154" fill="#DEEFFF"/>
    <circle opacity=".2" cx="27.047" cy="25.119" r="1.718" fill="#fff"/>
    <circle opacity=".2" cx="42.347" cy="44.234" r="2.437" fill="#fff"/>
    <circle opacity=".2" cx="60.572" cy="40.199" r="1.598" fill="#fff"/>
    <circle opacity=".2" cx="10.249" cy="34.431" r="1.718" fill="#fff"/>
    <circle cx="53.597" cy="37.873" r="1.718" fill="#2386C3"/>
    <circle opacity=".6" cx="51.46" cy="40.012" r="5.012" fill="#fff"/>
    <circle cx="53.597" cy="38.602" r="1.154" fill="#2796CA"/>
    <defs>
        <linearGradient id="u703dx04ga" x1="10.795" y1="14.776" x2="66.934" y2="62.215" gradientUnits="userSpaceOnUse">
            <stop stop-color="#39DDE8"/>
            <stop offset="1" stop-color="#1D6EB9"/>
        </linearGradient>
        <linearGradient id="wn368wf5ib" x1="18.059" y1="15.762" x2="59.284" y2="55.565" gradientUnits="userSpaceOnUse">
            <stop stop-color="#38D2B7"/>
            <stop offset="1" stop-color="#38D2B7"/>
        </linearGradient>
    </defs>
</svg>
